<?xml version="1.0" encoding="utf-8"?><svg xmlns="http://www.w3.org/2000/svg" xmlns:xlink="http://www.w3.org/1999/xlink"><symbol viewBox="0 0 512.001 512.001" id="about-books"><path d="M256.001 221.868c10.761 0 20.13-4.045 25.6-7.049 5.47 3.004 14.839 7.049 25.6 7.049 15.889 0 33.647-9.028 41.233-20.864.751-1.135 18.5-28.262 18.5-73.003 0-32.939-26.795-59.733-59.733-59.733-9.651 0-18.449 3.541-25.6 7.305-7.151-3.763-15.949-7.305-25.6-7.305-32.939 0-59.733 26.795-59.733 59.733 0 50.56 15.727 70.204 19.149 73.865 7.713 9.711 23.551 20.002 40.584 20.002zm0-136.533c7.612 0 15.394 3.942 21.325 7.381a8.508 8.508 0 0 0 8.55 0c5.931-3.439 13.713-7.381 21.325-7.381 23.526 0 42.667 19.14 42.667 42.667 0 39.27-15.488 63.317-15.718 63.659-3.985 6.212-16.026 13.141-26.948 13.141-10.999 0-20.446-6.801-20.506-6.844-1.51-1.126-3.302-1.69-5.094-1.69s-3.584.563-5.094 1.69c-.094.068-9.506 6.844-20.506 6.844-10.871 0-22.221-7.091-27.383-13.756a11.065 11.065 0 0 0-.657-.751c-.145-.154-14.626-16.026-14.626-62.293-.002-23.527 19.138-42.667 42.665-42.667zm18.287-29.739a8.52 8.52 0 0 0 7.322 4.139 8.49 8.49 0 0 0 4.386-1.22 8.528 8.528 0 0 0 2.918-11.708l-25.6-42.667a8.528 8.528 0 0 0-11.708-2.918 8.528 8.528 0 0 0-2.918 11.708l25.6 42.666zm26.641-1.229c.597.196 6.042 1.946 13.244 1.946h.009c10.206 0 19.081-3.482 25.643-10.052 15.616-15.616 8.414-37.956 8.098-38.904a8.56 8.56 0 0 0-5.393-5.393c-.606-.196-6.05-1.946-13.261-1.946-10.206 0-19.072 3.473-25.643 10.044-15.616 15.625-8.405 37.956-8.098 38.904a8.544 8.544 0 0 0 5.401 5.401zm14.762-32.239c3.345-3.345 7.91-5.043 13.577-5.043 1.203 0 2.338.077 3.345.196.521 4.599.282 11.776-4.855 16.913-3.345 3.345-7.919 5.052-13.577 5.052-1.203 0-2.338-.085-3.345-.196-.521-4.608-.282-11.785 4.855-16.922zm170.71 216.807h-409.6c-14.114 0-25.6 11.486-25.6 25.6v34.133c0 4.71 3.823 8.533 8.533 8.533s8.533-3.823 8.533-8.533v-34.133c0-4.702 3.831-8.533 8.533-8.533h25.6v42.667c0 4.71 3.823 8.533 8.533 8.533s8.533-3.823 8.533-8.533v-42.667h221.867v42.667c0 4.71 3.823 8.533 8.533 8.533s8.533-3.823 8.533-8.533v-42.667h85.333v42.667a8.536 8.536 0 0 0 8.533 8.533 8.536 8.536 0 0 0 8.533-8.533v-42.667h25.6c4.702 0 8.533 3.831 8.533 8.533v59.733h-25.6a8.536 8.536 0 0 0-8.533 8.533v76.8h-8.533a8.536 8.536 0 0 0-8.533 8.533 8.536 8.536 0 0 0 8.533 8.533h25.6V486.4c0 4.702-3.831 8.533-8.533 8.533H204.801v-42.667c0-4.71-3.823-8.533-8.533-8.533s-8.533 3.823-8.533 8.533v42.667h-17.067v-42.667a8.536 8.536 0 0 0-8.533-8.533 8.536 8.536 0 0 0-8.533 8.533v42.667h-17.067v-42.667c0-4.71-3.823-8.533-8.533-8.533s-8.533 3.823-8.533 8.533v42.667h-76.8c-4.702 0-8.533-3.831-8.533-8.533v-34.133a8.536 8.536 0 0 0-8.533-8.533 8.536 8.536 0 0 0-8.533 8.533V486.4c0 14.114 11.486 25.6 25.6 25.6h426.667c14.114 0 25.6-11.486 25.6-25.6v-59.733c0-11.085-8.789-17.067-17.067-17.067v-68.267h17.067c8.277 0 17.067-5.982 17.067-17.067v-59.733c-.003-14.112-11.489-25.598-25.603-25.598z"/><path d="M332.801 426.668a8.536 8.536 0 0 0 8.533-8.533 8.536 8.536 0 0 0-8.533-8.533h-93.867v-68.267h119.467v128a8.534 8.534 0 0 0 4.506 7.526 8.573 8.573 0 0 0 8.764-.427l20.864-13.909 20.864 13.909a8.544 8.544 0 0 0 8.764.427 8.538 8.538 0 0 0 4.506-7.526v-128h8.533c4.71 0 8.533-3.823 8.533-8.533s-3.823-8.533-8.533-8.533h-409.6c-14.353 0-25.6 11.247-25.6 25.6v51.2c0 14.114 11.486 25.6 25.6 25.6h307.199zm42.666-85.333H409.6v112.051l-12.331-8.218a8.541 8.541 0 0 0-9.472 0l-12.331 8.218V341.335zm-273.066 0h119.467v68.267H102.401v-68.267zm-85.334 59.733v-51.2c0-4.864 3.669-8.533 8.533-8.533h59.733v68.267H25.601c-4.787 0-8.534-3.747-8.534-8.534z"/><path d="M179.201 358.401a8.536 8.536 0 0 0-8.533 8.533v17.067c0 4.71 3.823 8.533 8.533 8.533s8.533-3.823 8.533-8.533v-17.067a8.536 8.536 0 0 0-8.533-8.533zm-34.134 0a8.536 8.536 0 0 0-8.533 8.533v17.067a8.536 8.536 0 0 0 8.533 8.533 8.536 8.536 0 0 0 8.533-8.533v-17.067c.001-4.71-3.822-8.533-8.533-8.533z"/></symbol><symbol viewBox="0 0 512 512" id="about-customer"><path d="M408.274 56.527h-.087c-4.503 0-8.109 3.65-8.109 8.153s3.694 8.153 8.196 8.153a8.153 8.153 0 0 0 0-16.306zM290.912 389.623l-77.599-32.332a9.214 9.214 0 0 1-5.686-8.53v-16.46l14.509-8.06a42.904 42.904 0 0 0 21.908-33.647l.032-.351h7.576c14.086 0 25.546-11.46 25.546-25.546v-15.703c2.284-5.523 8.696-23.2 8.696-47.587 0-33.695-13.199-65.487-37.165-89.521a128.218 128.218 0 0 0-30.794-22.799c-.392-27.598-28.021-49.953-61.942-49.953S94.443 61.489 94.05 89.087a128.165 128.165 0 0 0-30.794 22.799c-23.966 24.034-37.165 55.825-37.165 89.521 0 24.387 6.412 42.063 8.696 47.587v15.703c0 14.086 11.46 25.546 25.546 25.546h7.576l.031.351a42.903 42.903 0 0 0 21.909 33.647l14.509 8.06v16.46a9.218 9.218 0 0 1-5.686 8.53l-77.599 32.332A34.152 34.152 0 0 0 0 421.231v52.178c0 14.086 11.46 25.546 25.546 25.546h260.892c14.086 0 25.546-11.46 25.546-25.546v-52.178a34.155 34.155 0 0 0-21.072-31.608zm-30.02-124.927c0 5.095-4.145 9.24-9.24 9.24h-6.093l3.261-35.873h2.832c5.095 0 9.24 4.145 9.24 9.24v17.393zM155.992 55.44c21.355 0 39.325 11.054 44.29 25.933-13.966-4.898-28.895-7.453-44.29-7.453s-30.323 2.555-44.29 7.453c4.964-14.879 22.934-25.933 44.29-25.933zM60.331 273.936c-5.095 0-9.24-4.145-9.24-9.24v-17.393c0-5.095 4.145-9.24 9.24-9.24h2.832l3.261 35.873h-6.093zm37.437 36.051a26.611 26.611 0 0 1-13.59-20.87l-6.207-68.273c10.664-.067 29.363-.975 51.23-5.506 44.72-9.265 81.204-29.479 105.507-58.455a8.15 8.15 0 0 0-1.008-11.485 8.152 8.152 0 0 0-11.486 1.008c-53.04 63.24-151.327 58.059-152.671 57.977v.009a8.2 8.2 0 0 0-1.253.009 8.152 8.152 0 0 0-7.381 8.857l.772 8.501h-1.35a25.42 25.42 0 0 0-15.243 5.058 121.064 121.064 0 0 1-2.694-25.41c0-29.348 11.509-57.05 32.406-78.007 21.333-21.393 50.167-33.175 81.191-33.175s59.857 11.781 81.191 33.175c20.897 20.955 32.406 48.659 32.406 78.007 0 9.901-1.215 18.547-2.694 25.411a25.412 25.412 0 0 0-15.243-5.059h-1.35l.773-8.502a8.15 8.15 0 0 0-2.355-6.503l-17.393-17.393a8.152 8.152 0 0 0-11.529 0 8.152 8.152 0 0 0 0 11.529l14.693 14.693-5.805 63.855c-6.658 5.889-27.775 20.588-72.694 20.588-4.503 0-8.153 3.65-8.153 8.153s3.65 8.153 8.153 8.153c31.214 0 52.574-6.536 66.428-13.435a26.6 26.6 0 0 1-8.203 7.091l-45.291 25.162c-8.099 4.499-17.769 4.499-25.867 0l-45.29-25.163zm7.175 62.354a25.477 25.477 0 0 0 15.72-23.58v-7.402l14.476 8.043c6.529 3.626 13.69 5.441 20.853 5.441s14.324-1.813 20.853-5.441l14.476-8.043v7.402a25.474 25.474 0 0 0 15.72 23.58l8.552 3.563c-15.294 17.756-30.075 26.578-40.086 30.892-11.073 4.771-18.74 5.163-19.516 5.192-.776-.028-8.443-.421-19.516-5.192-10.011-4.313-24.791-13.136-40.086-30.892l8.554-3.563zM52.178 482.65H25.546c-5.095 0-9.24-4.145-9.24-9.24v-52.178c0-2.248.417-4.422 1.189-6.436l27.952 22.363a17.844 17.844 0 0 1 6.731 14.006v31.485zm191.321-31.487v31.486H68.484v-31.486c0-10.46-4.684-20.205-12.851-26.739l-25.921-20.737 50.923-21.218c26.865 33.228 54.02 42.37 67.203 44.879v27.582c0 4.503 3.65 8.153 8.153 8.153s8.153-3.65 8.153-8.153v-27.582c13.184-2.509 40.338-11.651 67.203-44.879l50.923 21.218-25.921 20.737c-8.166 6.534-12.85 16.28-12.85 26.739zm52.178 22.247c0 5.095-4.145 9.24-9.24 9.24h-26.633v-31.486a17.852 17.852 0 0 1 6.731-14.007l27.952-22.362a17.96 17.96 0 0 1 1.189 6.436v52.179z"/><path d="M145.944 243.765c-3.896-8.085-13.292-13.311-23.939-13.311s-20.043 5.225-23.939 13.311a8.154 8.154 0 0 0 14.691 7.077c.953-1.978 4.519-4.082 9.249-4.082s8.295 2.103 9.249 4.082a8.152 8.152 0 1 0 14.689-7.077zm67.973 0c-3.895-8.085-13.291-13.311-23.939-13.311s-20.043 5.225-23.939 13.311a8.154 8.154 0 0 0 14.691 7.077c.953-1.978 4.519-4.082 9.249-4.082s8.295 2.103 9.249 4.082a8.152 8.152 0 1 0 14.689-7.077zm194.27-230.72c-57.243 0-103.813 46.57-103.813 103.813 0 30.035 12.718 57.98 35.132 77.723-11.247 18.412-23.453 29.023-23.578 29.131a8.153 8.153 0 0 0 5.939 14.327c1.341-.107 31.956-2.721 59.114-20.983a103.87 103.87 0 0 0 27.207 3.616c57.243 0 103.813-46.57 103.813-103.813C512 59.615 465.43 13.045 408.187 13.045zm0 191.32a87.484 87.484 0 0 1-26.236-4.011 8.15 8.15 0 0 0-7.248 1.194c-10.038 7.327-21.056 12.056-30.517 15.084a161.753 161.753 0 0 0 12.989-20.038 8.154 8.154 0 0 0-2.185-10.378c-21.805-16.751-34.31-42.032-34.31-69.358 0-48.252 39.255-87.507 87.507-87.507s87.507 39.255 87.507 87.507-39.255 87.507-87.507 87.507z"/><path d="M416.883 160.883h-.544v-53.265h.544c4.503 0 8.153-3.65 8.153-8.153s-3.65-8.153-8.153-8.153H399.49c-4.503 0-8.153 3.65-8.153 8.153s3.65 8.153 8.153 8.153h.544v53.265h-.544a8.153 8.153 0 0 0-8.153 8.153 8.153 8.153 0 0 0 8.153 8.153h17.393a8.153 8.153 0 1 0 0-16.306z"/></symbol><symbol viewBox="0 0 470 470" id="about-file"><path d="M360.828 384.339a7.481 7.481 0 0 0 2.798-5.839v-341c0-4.143-3.357-7.5-7.5-7.5H139.141C133.79 12.647 117.605 0 98.52 0 79.742 0 63.311 12.514 57.906 30H33.874a7.499 7.499 0 0 0-7.5 7.5v425c0 4.143 3.357 7.5 7.5 7.5h238.187c2.425 0 4.527-1.092 5.902-2.794l82.865-82.867zm-81.202 59.989V386h58.327l-58.327 58.328zM98.52 15c10.663 0 19.922 6.105 24.482 15H74.036c4.604-8.948 13.975-15 24.484-15zM41.374 45h84.646v52.5c0 6.893-5.607 12.5-12.5 12.5s-12.5-5.607-12.5-12.5v-30c0-4.143-3.357-7.5-7.5-7.5s-7.5 3.357-7.5 7.5v30c0 15.163 12.337 27.5 27.5 27.5s27.5-12.337 27.5-27.5V45h207.606v326h-76.5a7.499 7.499 0 0 0-7.5 7.5V455H41.374V45z"/><path d="M296.126 345.5c4.143 0 7.5-3.357 7.5-7.5s-3.357-7.5-7.5-7.5H93.874c-4.143 0-7.5 3.357-7.5 7.5s3.357 7.5 7.5 7.5h202.252zm-202.252-45h202.252c4.143 0 7.5-3.357 7.5-7.5s-3.357-7.5-7.5-7.5H93.874c-4.143 0-7.5 3.357-7.5 7.5s3.357 7.5 7.5 7.5zm0-45h202.252c4.143 0 7.5-3.357 7.5-7.5s-3.357-7.5-7.5-7.5H93.874c-4.143 0-7.5 3.357-7.5 7.5s3.357 7.5 7.5 7.5zm0-45h202.252c4.143 0 7.5-3.357 7.5-7.5s-3.357-7.5-7.5-7.5H93.874c-4.143 0-7.5 3.357-7.5 7.5s3.357 7.5 7.5 7.5zm0-45h202.252c4.143 0 7.5-3.357 7.5-7.5s-3.357-7.5-7.5-7.5H93.874c-4.143 0-7.5 3.357-7.5 7.5s3.357 7.5 7.5 7.5zM396.126 30h-10c-4.143 0-7.5 3.357-7.5 7.5s3.357 7.5 7.5 7.5h2.5v410h-80.072c-4.143 0-7.5 3.357-7.5 7.5s3.357 7.5 7.5 7.5h87.572c4.143 0 7.5-3.357 7.5-7.5v-425c0-4.143-3.357-7.5-7.5-7.5zm40 0h-10c-4.143 0-7.5 3.357-7.5 7.5s3.357 7.5 7.5 7.5h2.5v410h-2.5c-4.143 0-7.5 3.357-7.5 7.5s3.357 7.5 7.5 7.5h10c4.143 0 7.5-3.357 7.5-7.5v-425c0-4.143-3.357-7.5-7.5-7.5z"/></symbol><symbol viewBox="0 0 463.001 463.001" id="about-loupe"><path d="M303.501 0c-87.948 0-159.5 71.551-159.5 159.5 0 36.188 12.122 69.593 32.507 96.386l-32.311 32.311a7.63 7.63 0 0 0-.569.643 39.816 39.816 0 0 0-8.127-.84c-10.55 0-20.47 4.109-27.933 11.572l-95.999 95.999C4.108 403.03 0 412.949 0 423.5s4.108 20.471 11.568 27.928C19.031 458.891 28.951 463 39.501 463s20.47-4.109 27.933-11.572l95.999-95.999c7.461-7.458 11.569-17.377 11.569-27.929 0-2.765-.289-5.484-.84-8.129.222-.176.437-.363.642-.568l32.31-32.31C233.908 306.879 267.313 319 303.501 319c87.948 0 159.5-71.551 159.5-159.5S391.449 0 303.501 0zM56.826 440.822C52.197 445.451 46.045 448 39.501 448s-12.696-2.549-17.326-7.179C17.548 436.196 15 430.045 15 423.5s2.548-12.696 7.176-17.322l86.698-86.698 34.647 34.647-86.695 86.695zm97.249-97.354l-34.528-34.528a24.425 24.425 0 0 1 15.954-5.926c6.274 0 12.55 2.389 17.326 7.166 4.627 4.625 7.175 10.776 7.175 17.321a24.306 24.306 0 0 1-5.927 15.967zm13.655-38.803a39.845 39.845 0 0 0-4.296-5.092 40.06 40.06 0 0 0-5.098-4.299l27.841-27.841c3 3.259 6.134 6.393 9.393 9.393l-27.84 27.839zM303.501 304c-79.678 0-144.5-64.822-144.5-144.5S223.823 15 303.501 15s144.5 64.822 144.5 144.5S383.179 304 303.501 304z"/><path d="M303.501 32c-70.304 0-127.5 57.196-127.5 127.5S233.197 287 303.501 287s127.5-57.196 127.5-127.5S373.805 32 303.501 32zm0 240c-62.032 0-112.5-50.467-112.5-112.5S241.469 47 303.501 47s112.5 50.467 112.5 112.5S365.533 272 303.501 272z"/><path d="M355.58 79.438a7.499 7.499 0 0 0-10.378 2.188 7.5 7.5 0 0 0 2.188 10.378C370.314 106.944 384 132.176 384 159.5c0 18.667-6.534 36.86-18.399 51.226a7.5 7.5 0 1 0 11.566 9.552C391.246 203.231 399 181.646 399 159.501c.001-32.414-16.231-62.343-43.42-80.063zm-34.724-13.863A96.293 96.293 0 0 0 303.501 64c-4.143 0-7.5 3.358-7.5 7.5s3.357 7.5 7.5 7.5c4.922 0 9.849.447 14.645 1.328a7.504 7.504 0 0 0 8.732-6.021 7.501 7.501 0 0 0-6.022-8.732z"/></symbol><symbol viewBox="0 0 512 512" id="about-mortarboard"><path d="M360.465 443.988c-4.574-1.161-9.207 1.638-10.342 6.204l-8.533 34.133c-1.152 4.582 1.638 9.207 6.212 10.351a8.272 8.272 0 0 0 2.074.256 8.535 8.535 0 0 0 8.269-6.46l8.533-34.133a8.537 8.537 0 0 0-6.213-10.351zM256 273.066a8.453 8.453 0 0 0 3.26-.648l93.867-38.844c4.352-1.801 6.417-6.793 4.617-11.145-1.801-4.361-6.81-6.409-11.153-4.625L256 255.299 17.067 156.432v-2.833c0-4.71-3.823-8.533-8.533-8.533S0 148.889 0 153.599v8.533a8.524 8.524 0 0 0 5.274 7.885l247.467 102.4c1.04.435 2.15.649 3.259.649zm101.513 87.424a8.522 8.522 0 0 0-11.426-3.874c-16.205 8.013-43.273 17.331-81.553 18.603v-76.553c0-4.71-3.823-8.533-8.533-8.533s-8.533 3.823-8.533 8.533v76.476c-105.958-3.379-140.151-67.567-145.067-78.251v-57.958a8.536 8.536 0 0 0-8.533-8.533 8.536 8.536 0 0 0-8.533 8.533v59.733c0 1.084.205 2.159.606 3.174 1.485 3.695 37.803 90.692 170.061 90.692 46.225 0 78.618-11.213 97.647-20.617 4.23-2.09 5.963-7.201 3.864-11.425zM384 452.266a8.53 8.53 0 0 0-8.533 8.533v25.6a8.53 8.53 0 0 0 8.533 8.533 8.53 8.53 0 0 0 8.533-8.533v-25.6a8.53 8.53 0 0 0-8.533-8.533z"/><path d="M503.467 145.066a8.53 8.53 0 0 0-8.533 8.533v2.816l-102.4 42.146v-15.42l114.193-47.258a8.525 8.525 0 0 0 5.274-7.885 8.539 8.539 0 0 0-5.265-7.885L259.26 17.714a8.54 8.54 0 0 0-6.519 0L5.274 120.114a8.533 8.533 0 0 0 0 15.77l247.467 102.4c1.041.435 2.15.649 3.26.649s2.219-.213 3.26-.649l89.481-37.026c4.361-1.792 6.426-6.784 4.625-11.145-1.801-4.352-6.793-6.409-11.145-4.617L256 221.166 30.848 127.999 256 34.832l225.152 93.167-97.971 40.542-93.841-35.038c.495-1.775.794-3.601.794-5.504 0-14.353-14.993-25.6-34.133-25.6s-34.133 11.247-34.133 25.6c0 14.353 14.993 25.6 34.133 25.6 8.542 0 16.162-2.33 22.084-6.084l97.382 36.361v210.228c-9.907 3.541-17.067 12.919-17.067 24.03 0 14.114 11.486 25.6 25.6 25.6s25.6-11.486 25.6-25.6c0-11.11-7.159-20.488-17.067-24.03v-48.435c24.499-18.492 33.28-43.119 33.664-44.211a8.631 8.631 0 0 0 .469-2.79v-59.733c0-4.71-3.814-8.533-8.533-8.533s-8.533 3.823-8.533 8.533v58.155c-1.476 3.618-6.605 14.771-17.067 25.779v-105.85l114.185-46.993a8.53 8.53 0 0 0 5.282-7.893V153.6a8.53 8.53 0 0 0-8.533-8.534zM256 136.532c-10.419 0-17.067-5.052-17.067-8.533 0-3.482 6.647-8.533 17.067-8.533s17.067 5.052 17.067 8.533c0 3.482-6.648 8.533-17.067 8.533zm128 290.134c-4.71 0-8.533-3.831-8.533-8.533S379.29 409.6 384 409.6s8.533 3.831 8.533 8.533c0 4.701-3.823 8.533-8.533 8.533zm33.877 23.526c-1.143-4.565-5.786-7.356-10.342-6.204a8.535 8.535 0 0 0-6.212 10.351l8.533 34.133a8.535 8.535 0 0 0 8.269 6.46c.683 0 1.382-.077 2.074-.256a8.531 8.531 0 0 0 6.212-10.351l-8.534-34.133z"/></symbol><symbol viewBox="0 0 512 512" id="about-recommended"><path d="M392.327 226.071c0-16.209-13.186-29.394-29.395-29.394H308.91c13.125-14.753 21.703-31.552 23.36-46.623 1.012-9.205-1.832-18.342-7.805-25.069-5.459-6.149-12.924-9.576-21.02-9.651l-.281-.001c-7.831 0-15.181 3.016-20.728 8.512-5.548 5.497-8.618 12.82-8.654 20.635-.285 1.711-3.295 7.61-10.66 14.614-6.03 5.736-16.446 13.621-31.825 18.614-6.03 1.958-11.541 5.563-16.379 10.715a105.986 105.986 0 0 1-11.048 10.18 16.454 16.454 0 0 0-7.728-1.924h-51.307c-9.136 0-16.568 7.432-16.568 16.568v136.818c0 9.136 7.432 16.568 16.568 16.568h51.307c6.228 0 11.659-3.458 14.489-8.551h130.923c13.851 0 25.119-11.268 25.119-25.119 0-4.657-1.273-9.021-3.491-12.765 7.217-4.418 12.042-12.376 12.042-21.44 0-4.657-1.273-9.021-3.491-12.765 7.217-4.418 12.042-12.376 12.042-21.44a24.982 24.982 0 0 0-4.371-14.146c7.793-5.293 12.923-14.227 12.923-24.336zm-29.395 13.361h-4.276a8.017 8.017 0 0 0 0 16.034c5.01 0 9.086 4.076 9.086 9.086s-4.076 9.086-9.086 9.086h-8.551a8.017 8.017 0 0 0 0 16.034c5.01 0 9.086 4.076 9.086 9.086 0 5.01-4.076 9.086-9.086 9.086h-8.551a8.017 8.017 0 0 0 0 16.034c5.01 0 9.086 4.076 9.086 9.086 0 5.01-4.076 9.086-9.086 9.086H212.71v-77.495a8.017 8.017 0 0 0-16.034 0v85.511a.534.534 0 0 1-.534.534h-51.307a.534.534 0 0 1-.534-.534V213.244c0-.295.239-.534.534-.534h51.307c.295 0 .534.239.534.534v17.103a8.017 8.017 0 0 0 16.034 0v-17.103c0-.389-.032-.77-.059-1.152a121.724 121.724 0 0 0 13.954-12.695c2.967-3.161 6.211-5.327 9.642-6.44 18.87-6.126 31.569-15.99 38.898-23.186 9.186-9.019 14.669-18.421 14.669-25.152 0-3.556 1.387-6.889 3.906-9.385 2.55-2.527 5.927-3.862 9.576-3.867 4.494.042 7.47 2.341 9.177 4.263 2.926 3.295 4.366 8.033 3.857 12.672-1.751 15.929-14.49 35.619-32.454 50.161a8.018 8.018 0 0 0 5.044 14.247h74.01c7.368 0 13.361 5.993 13.361 13.361s-5.992 13.361-13.359 13.361z"/><path d="M170.489 316.306c-4.427 0-8.059 3.632-8.059 8.059s3.632 8.059 8.059 8.059 8.059-3.632 8.059-8.059c.001-4.426-3.631-8.059-8.059-8.059z"/><path d="M497.71 256l13.772-36.443a8.014 8.014 0 0 0-1.243-7.847l-24.359-30.404 1.836-38.915a8.017 8.017 0 0 0-3.606-7.078l-32.562-21.389-10.278-37.578a8.016 8.016 0 0 0-5.617-5.617l-37.578-10.278-21.389-32.561a8.027 8.027 0 0 0-7.078-3.606l-38.915 1.836-30.404-24.359a8.018 8.018 0 0 0-7.847-1.243L255.999 14.29 219.558.519a8.012 8.012 0 0 0-7.847 1.243l-30.404 24.359-38.915-1.836a8.001 8.001 0 0 0-7.078 3.606l-21.388 32.562-37.578 10.278a8.016 8.016 0 0 0-5.617 5.617l-10.278 37.578-32.562 21.388a8.016 8.016 0 0 0-3.606 7.078l1.836 38.915-24.359 30.404a8.018 8.018 0 0 0-1.243 7.847L14.29 256 .518 292.442a8.014 8.014 0 0 0 1.243 7.847l24.359 30.404-1.836 38.915a8.017 8.017 0 0 0 3.606 7.078l32.562 21.389 10.278 37.578a8.016 8.016 0 0 0 5.617 5.617l37.578 10.278 21.388 32.562a8.041 8.041 0 0 0 7.078 3.606l38.915-1.836 30.404 24.359a8.013 8.013 0 0 0 7.847 1.243L256 497.71l36.443 13.772a8.02 8.02 0 0 0 7.846-1.243l30.404-24.359 38.915 1.836a8.025 8.025 0 0 0 7.078-3.606l21.389-32.562 37.578-10.278a8.016 8.016 0 0 0 5.617-5.617l10.278-37.578 32.562-21.389a8.016 8.016 0 0 0 3.606-7.078l-1.836-38.915 24.359-30.404a8.018 8.018 0 0 0 1.243-7.847L497.71 256zm-16.069 2.834l13.226 34.999-23.394 29.199a8.014 8.014 0 0 0-1.752 5.39l1.764 37.373-31.271 20.541a8.017 8.017 0 0 0-3.332 4.586l-9.871 36.089-36.089 9.871a8.022 8.022 0 0 0-4.586 3.332l-20.541 31.271-37.373-1.764a8.023 8.023 0 0 0-5.39 1.752l-29.199 23.394-34.999-13.226a8.018 8.018 0 0 0-5.668 0l-34.999 13.226-29.199-23.394a8.03 8.03 0 0 0-5.39-1.752l-37.373 1.764-20.541-31.271a8.017 8.017 0 0 0-4.586-3.332l-36.089-9.871-9.871-36.089a8.022 8.022 0 0 0-3.332-4.586l-31.271-20.541 1.764-37.373a8.012 8.012 0 0 0-1.752-5.39l-23.394-29.199 13.227-34.999a8.019 8.019 0 0 0 0-5.668l-13.227-34.999 23.394-29.199a8.014 8.014 0 0 0 1.752-5.39l-1.764-37.373 31.271-20.541a8.017 8.017 0 0 0 3.332-4.586l9.871-36.089 36.089-9.871a8.022 8.022 0 0 0 4.586-3.332l20.541-31.271 37.373 1.764a8.022 8.022 0 0 0 5.39-1.752l29.199-23.394 34.999 13.227c1.827.69 3.842.69 5.668 0l34.999-13.227 29.199 23.394a8.01 8.01 0 0 0 5.39 1.752l37.373-1.764 20.541 31.271a8.017 8.017 0 0 0 4.586 3.332l36.089 9.871 9.871 36.089a8.022 8.022 0 0 0 3.332 4.586l31.271 20.541-1.764 37.373a8.012 8.012 0 0 0 1.752 5.39l23.394 29.199-13.227 34.999a8.024 8.024 0 0 0 .001 5.668z"/><path d="M406.634 117.574a209.24 209.24 0 0 0-12.573-12.573 8.017 8.017 0 0 0-11.327.484 8.016 8.016 0 0 0 .484 11.327c2.003 1.84 3.997 3.75 5.925 5.678a194.67 194.67 0 0 1 5.679 5.926 7.996 7.996 0 0 0 5.908 2.595c1.937 0 3.88-.698 5.419-2.111a8.015 8.015 0 0 0 .485-11.326zm-41.042-34.449c-38.66-24.63-85.206-35.576-131.059-30.829-46.525 4.82-90.395 25.722-123.531 58.857-36.467 36.467-57.699 84.911-59.785 136.408-2.073 51.194 14.883 100.898 47.746 139.954a7.998 7.998 0 0 0 6.139 2.855 8.017 8.017 0 0 0 6.13-13.177c-30.281-35.989-45.905-81.795-43.995-128.982 1.922-47.462 21.49-92.11 55.101-125.72 30.54-30.541 70.972-49.806 113.846-54.247 42.275-4.38 85.171 5.709 120.792 28.403a8.016 8.016 0 0 0 11.068-2.453 8.017 8.017 0 0 0-2.452-11.069zm62.919 62.918a8.017 8.017 0 1 0-13.522 8.614c22.694 35.622 32.781 78.52 28.403 120.792-4.441 42.874-23.706 83.305-54.246 113.847-33.611 33.61-78.259 53.179-125.72 55.101-47.179 1.918-92.994-13.713-128.982-43.993a8.016 8.016 0 0 0-11.295.973 8.016 8.016 0 0 0 .973 11.295c36.921 31.065 83.351 47.917 131.566 47.916 2.789 0 5.589-.057 8.389-.17 51.497-2.085 99.94-23.317 136.408-59.784 33.136-33.136 54.039-77.007 58.857-123.532 4.748-45.856-6.201-92.4-30.831-131.059z"/></symbol><symbol viewBox="0 0 512 512" id="about-structure"><path d="M262.258 20.872c-27.809 0-50.433 22.624-50.433 50.433a50.494 50.494 0 0 0 6.184 24.212c1.992 3.633 6.551 4.965 10.181 2.971a7.5 7.5 0 0 0 2.971-10.182 35.45 35.45 0 0 1-4.336-17.001c0-19.538 15.895-35.433 35.433-35.433s35.433 15.895 35.433 35.433-15.895 35.433-35.433 35.433c-3.047 0-6.068-.386-8.98-1.146a7.494 7.494 0 0 0-9.152 5.361 7.5 7.5 0 0 0 5.361 9.152 50.594 50.594 0 0 0 12.771 1.633c27.809 0 50.433-22.624 50.433-50.433s-22.624-50.433-50.433-50.433zM127.455 204.293c-27.809 0-50.433 22.624-50.433 50.433 0 27.81 22.624 50.434 50.433 50.434 27.81 0 50.434-22.624 50.434-50.434 0-27.809-22.624-50.433-50.434-50.433zm0 85.867c-19.538 0-35.433-15.896-35.433-35.434 0-19.538 15.895-35.433 35.433-35.433s35.434 15.895 35.434 35.433-15.896 35.434-35.434 35.434zm307.957-35.501c-4.077-.703-7.96 2.039-8.662 6.121-2.926 17.023-17.612 29.38-34.92 29.38-19.538 0-35.433-15.896-35.433-35.434 0-19.538 15.895-35.433 35.433-35.433 12.558 0 23.922 6.436 30.398 17.215a7.498 7.498 0 0 0 10.291 2.566 7.498 7.498 0 0 0 2.566-10.291c-9.075-15.106-25.65-24.49-43.256-24.49-27.808 0-50.432 22.624-50.432 50.433 0 27.81 22.624 50.434 50.433 50.434 24.633 0 45.536-17.596 49.703-41.839a7.5 7.5 0 0 0-6.121-8.662zm-54.766-68.404l-12.49-27.568a7.498 7.498 0 0 0-6.831-4.405h-93.462V137.24c0-4.143-3.357-7.5-7.5-7.5s-7.5 3.357-7.5 7.5v17.042H159.4a7.502 7.502 0 0 0-6.832 4.405l-12.489 27.568a7.501 7.501 0 0 0 13.664 6.19l10.493-23.163h192.253l10.494 23.163a7.5 7.5 0 1 0 13.663-6.19zM50.433 390.262C22.624 390.262 0 412.886 0 440.695s22.624 50.433 50.433 50.433 50.433-22.624 50.433-50.433-22.625-50.433-50.433-50.433zm0 85.865C30.895 476.127 15 460.233 15 440.695c0-19.538 15.895-35.433 35.433-35.433s35.433 15.895 35.433 35.433-15.895 35.432-35.433 35.432zm139.473-85.865c-13.818 0-27.187 5.765-36.676 15.815a7.498 7.498 0 0 0 .305 10.602 7.501 7.501 0 0 0 10.602-.305c6.767-7.166 15.918-11.112 25.77-11.112 19.538 0 35.433 15.895 35.433 35.433s-15.895 35.433-35.433 35.433-35.433-15.895-35.433-35.433c0-4.143-3.357-7.5-7.5-7.5s-7.5 3.357-7.5 7.5c0 27.809 22.624 50.433 50.433 50.433s50.433-22.624 50.433-50.433-22.625-50.433-50.434-50.433zm-11.183-18.039l-12.49-27.568a7.5 7.5 0 0 0-6.832-4.405H128.39v-15.042c0-4.143-3.357-7.5-7.5-7.5s-7.5 3.357-7.5 7.5v15.042H82.378a7.502 7.502 0 0 0-6.832 4.405l-12.49 27.568a7.501 7.501 0 0 0 13.664 6.19l10.494-23.163h67.351l10.494 23.163a7.5 7.5 0 1 0 13.664-6.19zm143.371 18.039c-27.809 0-50.433 22.624-50.433 50.433s22.624 50.433 50.433 50.433 50.433-22.624 50.433-50.433-22.625-50.433-50.433-50.433zm0 85.865c-19.538 0-35.433-15.895-35.433-35.433s15.895-35.433 35.433-35.433 35.433 15.895 35.433 35.433-15.895 35.433-35.433 35.433zm139.473-85.865c-27.809 0-50.433 22.624-50.433 50.433s22.624 50.433 50.433 50.433S512 468.503 512 440.695s-22.624-50.433-50.433-50.433zm0 85.865c-19.538 0-35.433-15.895-35.433-35.433s15.895-35.433 35.433-35.433S497 421.157 497 440.695c0 19.538-15.895 35.432-35.433 35.432zm-11.183-103.904l-12.49-27.568a7.5 7.5 0 0 0-6.832-4.405h-31.011v-15.042c0-4.143-3.357-7.5-7.5-7.5s-7.5 3.357-7.5 7.5v15.042h-31.012a7.502 7.502 0 0 0-6.832 4.405l-12.49 27.568a7.501 7.501 0 0 0 3.737 9.927 7.505 7.505 0 0 0 9.927-3.737l10.494-23.163h67.351l10.494 23.163a7.5 7.5 0 1 0 13.664-6.19z"/></symbol><symbol viewBox="0 0 488 488" id="about-translation"><path d="M213.769 111.58c-5.499 0-9.999 4.501-9.999 10.003v51.216h-10.498V171.899c-3.5-34.911-36.995-63.02-71.79-60.219-5.499.4-9.599 5.302-9.199 10.803.4 5.502 5.299 9.603 10.798 9.203 23.597-1.901 47.193 17.606 50.093 41.213H71.09c-2.8 0-5.499 1.2-7.399 3.301a9.902 9.902 0 0 0-2.5 7.702c1.7 17.005 10.698 33.211 24.596 44.614 12.098 9.803 26.796 15.205 41.294 15.205 2 0 4.099-.1 6.099-.3 27.996-3.001 51.193-24.308 58.092-50.416h12.498v40.513c0 5.502 4.499 10.003 9.999 10.003 5.499 0 9.999-4.501 9.999-10.003V121.884c0-5.802-4.499-10.304-9.999-10.304zm-82.688 111.836c-10.998 1.2-22.897-2.601-32.695-10.503-6.699-5.402-11.798-12.404-14.698-20.006h86.688c-6.2 16.004-21.397 28.608-39.295 30.509zm274.661 105.633l-50.293-99.432a9.99 9.99 0 0 0-8.899-5.502 9.88 9.88 0 0 0-8.899 5.502L286.559 331.35c-2.5 4.902-.5 10.903 4.399 13.404 1.4.7 3 1.1 4.499 1.1 3.699 0 7.199-2.001 8.899-5.502l17.597-35.011h49.393l16.598 32.81c2.5 4.902 8.499 6.902 13.398 4.401 4.9-2.599 6.899-8.601 4.4-13.503zm-73.79-43.814l14.598-29.009 14.698 29.009h-29.296z"/><path d="M486.33 272.631c-4.799-31.31-20.097-60.319-43.094-81.826-43.494-40.613-106.985-49.516-159.377-23.808-7.899-71.023-68.09-126.54-141.08-126.54-38.094 0-73.889 14.705-100.885 41.513C14.898 108.779 0 144.591 0 182.803c0 38.112 14.898 73.924 41.894 100.832 26.896 26.809 62.791 41.513 100.885 41.513 22.097 0 43.094-5.102 61.791-14.205 6.399 58.118 48.093 107.334 105.685 122.539h.1c11.498 2.801 22.997 4.201 34.395 4.201 51.293 0 99.986-27.709 125.482-74.124 15.298-27.507 20.897-59.818 16.098-90.928zm-343.55 32.511c-67.59 0-122.682-54.817-122.682-122.339 0-67.421 55.092-122.339 122.682-122.339 67.29 0 121.982 54.917 121.982 122.339S210.07 305.142 142.78 305.142zm310.055 48.815c-26.796 48.816-83.288 73.523-137.48 60.119-52.492-13.904-89.587-60.619-91.487-114.436 35.195-24.608 58.692-64.721 60.791-110.335 46.493-27.209 105.385-20.907 144.979 16.205 40.794 38.012 50.293 99.032 23.197 148.447zM193.172 425.88v-.1c-.1-.4-.2-.8-.3-1.1v-.1c-.1-.3-.2-.7-.4-1 0-.1-.1-.2-.2-.3-.1-.2-.3-.5-.4-.7-.1-.1-.1-.2-.2-.3l-.6-.9c-.2-.3-.5-.6-.8-.9l-.2-.2c-.2-.2-.5-.4-.7-.6-.1-.1-.2-.1-.3-.2-.2-.2-.5-.3-.7-.5-.1-.1-.2-.1-.3-.2-.3-.2-.7-.4-1-.5l-51.093-20.607c-5.099-2.101-10.898.4-12.998 5.502s.4 10.903 5.499 13.004l34.195 13.804c-18.797 10.103-41.494 10.903-61.191 1.5h-.1c-24.896-11.504-40.594-36.912-39.994-64.921.1-5.502-4.199-10.103-9.799-10.203-5.499-.1-10.099 4.201-10.199 9.803-.9 35.911 19.397 68.622 51.493 83.527 11.998 5.702 24.796 8.503 37.595 8.503 10.898 0 21.797-2.101 32.095-6.102l-9.099 22.207c-2.1 5.102.4 11.004 5.499 13.004 1.2.5 2.5.7 3.799.7 3.899 0 7.699-2.301 9.299-6.202l20.597-50.516c0-.1.1-.2.1-.3-.1-.1-.1-.2 0-.3.1-.3.2-.6.2-.8 0-.1 0-.2.1-.3.1-.4.1-.8.2-1.2V426.983c0-.3-.1-.6-.1-.9l.002-.203zM295.458 62.265v.1c.1.4.2.8.3 1.1v.1c.1.3.2.7.4 1 0 .1.1.2.2.3.1.2.3.5.4.7.1.1.1.2.2.3l.6.9c.2.3.5.6.8.9l.2.2c.2.2.5.4.7.6.1.1.2.1.3.2.2.2.5.3.7.5.1.1.2.1.3.2.3.2.7.4 1 .5l51.093 20.607c5.099 2.101 10.898-.4 12.998-5.502 2.1-5.102-.4-10.903-5.499-13.004l-34.195-13.804c18.797-10.103 41.494-10.903 61.191-1.5h.1c24.896 11.504 40.594 36.912 39.994 64.921-.1 5.502 4.199 10.103 9.799 10.203h.2c5.399 0 9.899-4.301 9.999-9.803.8-36.011-19.397-68.822-51.593-83.627-22.297-10.603-47.393-11.104-69.59-2.401l9.099-22.207c2.1-5.102-.4-11.003-5.499-13.004-5.099-2.101-10.998.4-12.998 5.502L296.06 56.762c0 .1-.1.2-.1.3s-.1.3-.1.4c-.1.3-.2.6-.2.8 0 .1 0 .2-.1.3-.1.4-.1.8-.2 1.2v1.4c0 .3.1.6.1.9l-.002.203z"/></symbol><symbol viewBox="0 0 512 512" id="about-worker"><path d="M317.415 242.681c-28.354-28.355-87.684-22.935-111.877-19.289-7.621 1.149-13.152 7.599-13.152 15.336V256a7.5 7.5 0 0 0 15 0v-17.272h.001c0-.254.167-.47.388-.504 9.664-1.456 28.838-3.701 48.706-2.379 23.378 1.557 40.311 7.425 50.328 17.442a7.5 7.5 0 0 0 10.606 0 7.5 7.5 0 0 0 0-10.606z"/><path d="M373.73 425.647l-46.125-16.773a7.492 7.492 0 0 0-2.044-5.739l-13.965-14.672v-24.628a89.288 89.288 0 0 0 4.341-3.787c17.619-16.514 27.723-39.83 27.723-63.968v-19.669c5.32-11.577 8.016-23.828 8.016-36.443v-80.161a7.5 7.5 0 0 0-7.5-7.5H231.952c-39.496 0-71.629 32.133-71.629 71.629v16.032c0 12.616 2.696 24.867 8.016 36.443v16.924c0 28.026 12.461 53.275 32.064 69.921v25.208l-13.965 14.672a7.492 7.492 0 0 0-2.044 5.739l-46.125 16.773c-15.578 5.665-26.044 20.607-26.044 37.182v41.67a7.5 7.5 0 0 0 15 0v-41.67c0-10.291 6.498-19.568 16.17-23.085l48.631-17.684 20.245 30.367a15.456 15.456 0 0 0 11.381 6.833 15.453 15.453 0 0 0 12.5-4.468l12.347-12.347V504.5a7.5 7.5 0 0 0 15 0v-62.055l12.347 12.347a15.45 15.45 0 0 0 12.5 4.468 15.464 15.464 0 0 0 11.381-6.833l20.245-30.367 48.631 17.684c9.672 3.517 16.17 12.794 16.17 23.085v41.67a7.5 7.5 0 0 0 15 0v-41.67c.001-16.575-10.465-31.517-26.043-37.182zM183.339 293.335v-18.602a7.501 7.501 0 0 0-.746-3.261c-4.824-9.99-7.27-20.589-7.27-31.504v-16.032c0-31.225 25.404-56.629 56.629-56.629h104.726v72.661c0 10.915-2.446 21.515-7.27 31.504a7.501 7.501 0 0 0-.746 3.261v21.347c0 20.302-8.162 39.133-22.981 53.024-14.807 13.879-34.165 20.794-54.532 19.479-38.024-2.46-67.81-35.514-67.81-75.248zm42.207 150.851a.487.487 0 0 1-.416.148c-.244-.024-.338-.167-.379-.227l-23.315-34.973 7.5-7.88 35.366 24.174-18.756 18.758zM256 415.254l-40.597-27.75v-13.989c10.506 5.677 22.266 9.228 34.776 10.038a91.17 91.17 0 0 0 5.898.191c14.334-.001 28.13-3.426 40.52-9.929v13.689L256 415.254zm31.248 28.853c-.041.061-.135.203-.379.227a.487.487 0 0 1-.416-.148l-18.757-18.757 35.366-24.174 7.5 7.88-23.314 34.972z"/><path d="M167.823 480.968a7.5 7.5 0 0 0-7.5 7.5V504.5a7.5 7.5 0 0 0 15 0v-16.032a7.5 7.5 0 0 0-7.5-7.5zm176.354 0a7.5 7.5 0 0 0-7.5 7.5V504.5a7.5 7.5 0 0 0 15 0v-16.032a7.5 7.5 0 0 0-7.5-7.5zm64.501-417.727C367.896 22.459 313.674 0 256 0S144.104 22.459 103.322 63.241s-63.241 95.004-63.241 152.678c0 80.81 44.554 154.227 116.274 191.6a7.5 7.5 0 0 0 10.116-3.186 7.5 7.5 0 0 0-3.185-10.117c-27.638-14.402-50.936-34.56-68.755-58.572h41.694c9.13 20.587 20.624 38.852 33.821 53.614a7.5 7.5 0 1 0 11.183-9.997c-11.015-12.321-20.573-27.12-28.47-43.686 3.683-.477 6.531-3.618 6.531-7.43a7.5 7.5 0 0 0-7.5-7.5h-5.506c-11.449-29.108-18.114-62.554-18.957-97.226h8.431a7.5 7.5 0 0 0 0-15h-8.434c.84-35.518 7.611-68.71 18.819-97.226H248.5v16.548a7.5 7.5 0 0 0 15 0v-16.548h102.356c11.208 28.516 17.979 61.708 18.819 97.226h-8.434a7.5 7.5 0 0 0 0 15h8.431c-.843 34.671-7.508 68.118-18.957 97.226h-5.506a7.5 7.5 0 0 0-7.5 7.5c0 3.813 2.848 6.954 6.531 7.43-7.896 16.567-17.454 31.365-28.47 43.686a7.499 7.499 0 0 0 .593 10.59 7.474 7.474 0 0 0 4.996 1.909 7.482 7.482 0 0 0 5.594-2.501c13.197-14.762 24.691-33.026 33.821-53.614h41.563c-16.35 21.988-37.085 40.552-60.882 54.318a7.501 7.501 0 0 0 7.511 12.985c32.23-18.645 59.261-45.456 78.171-77.537 19.484-33.054 29.782-70.915 29.782-109.492 0-57.674-22.459-111.896-63.241-152.678zM127.869 314.212a262.329 262.329 0 0 0 2.287 6.433H84.414c-17.617-28.868-27.904-62.192-29.193-97.226h57.095c.707 31.913 5.925 62.423 15.553 90.793zM112.32 208.419H55.235c1.311-35.518 11.875-68.71 29.363-97.226h45.516c-10.888 29.537-17.017 62.688-17.794 97.226zm23.873-112.225H94.748c22.726-30.53 53.907-54.403 90.042-68.145-11.409 9.757-21.98 21.943-31.428 36.392-6.441 9.85-12.172 20.485-17.169 31.753zm112.307-.001h-95.85c22.093-46.306 56.648-77.313 95.85-80.844v80.844zm15 .001V15.35c39.202 3.531 73.757 34.538 95.85 80.844H263.5zm95.138-31.754c-9.447-14.449-20.019-26.634-31.428-36.392 36.135 13.743 67.316 37.616 90.042 68.145h-41.445c-4.997-11.267-10.728-21.903-17.169-31.753zm23.249 46.753h45.516c17.488 28.516 28.052 61.708 29.363 97.226H399.68c-.777-34.538-6.906-67.689-17.793-97.226zm47.328 206.601c-.566.96-1.162 1.901-1.743 2.851h-45.627a263.82 263.82 0 0 0 2.287-6.433c9.628-28.37 14.845-58.88 15.552-90.792h57.085c-1.239 33.29-10.694 65.771-27.554 94.374z"/></symbol><symbol viewBox="0 0 478.448 478.448" id="carousel-next"><path d="M131.659 0l-31.165 32.035 213.31 207.197-213.31 207.141 31.156 32.075 246.304-239.216z"/></symbol><symbol viewBox="0 0 370.814 370.814" id="carousel-prev"><path d="M292.92 24.848L268.781 0 77.895 185.401l190.886 185.413 24.139-24.853-165.282-160.56z"/></symbol><symbol viewBox="0 0 54.757 54.757" id="contacts-address"><path d="M27.557 12c-3.859 0-7 3.141-7 7s3.141 7 7 7 7-3.141 7-7-3.141-7-7-7zm0 12c-2.757 0-5-2.243-5-5s2.243-5 5-5 5 2.243 5 5-2.243 5-5 5z"/><path d="M40.94 5.617A19.052 19.052 0 0 0 27.38 0a19.05 19.05 0 0 0-13.56 5.617c-6.703 6.702-7.536 19.312-1.804 26.952L27.38 54.757 42.721 32.6c5.755-7.671 4.922-20.281-1.781-26.983zm.159 25.814L27.38 51.243 13.639 31.4C8.44 24.468 9.185 13.08 15.235 7.031 18.479 3.787 22.792 2 27.38 2s8.901 1.787 12.146 5.031c6.05 6.049 6.795 17.437 1.573 24.4z"/></symbol><symbol viewBox="0 0 205.996 205.996" id="contacts-email"><path d="M102.996 61.363c22.958 0 41.635 18.678 41.635 41.635a6 6 0 0 0 12 0c0-29.574-24.061-53.635-53.635-53.635S49.36 73.424 49.36 102.998s24.061 53.635 53.635 53.635c18.99 0 36.745-10.195 46.336-26.607a6 6 0 0 0-10.361-6.055c-7.448 12.745-21.233 20.662-35.976 20.662-22.958 0-41.635-18.678-41.635-41.635s18.679-41.635 41.637-41.635z"/><path d="M205.698 95.053c-3.76-50.059-44.326-90.782-94.359-94.727C81.095-2.059 51.51 8.817 30.163 30.165 8.815 51.513-2.061 81.1.324 111.341c3.931 49.847 44.483 90.399 94.329 94.329 2.747.217 5.484.323 8.214.323 27.329 0 53.553-10.753 72.962-30.161a6 6 0 0 0-8.485-8.486c-18.862 18.861-45.012 28.47-71.747 26.361-44.023-3.471-79.838-39.286-83.31-83.31-2.108-26.735 7.5-52.887 26.361-71.747 18.861-18.861 45.008-28.473 71.747-26.361 44.189 3.483 80.016 39.451 83.337 83.662a93.044 93.044 0 0 1-.397 18.086 19.122 19.122 0 0 1-10.208 14.713c-5.095 2.633-10.819 2.623-15.706-.026a5.996 5.996 0 0 0-8.134 2.415 5.998 5.998 0 0 0 2.415 8.134c8.435 4.573 18.251 4.623 26.933.139a31.108 31.108 0 0 0 16.613-23.935c.812-6.719.963-13.59.45-20.424z"/></symbol><symbol viewBox="0 0 405.333 405.333" id="contacts-tel"><path d="M373.333 266.88c-25.003 0-49.493-3.904-72.725-11.584-11.328-3.904-24.171-.896-31.637 6.699l-46.016 34.752c-52.779-28.16-86.571-61.931-114.389-114.368l33.813-44.928c8.512-8.533 11.563-20.971 7.915-32.64C142.592 81.472 138.667 56.96 138.667 32c0-17.643-14.357-32-32-32H32C14.357 0 0 14.357 0 32c0 205.845 167.488 373.333 373.333 373.333 17.643 0 32-14.357 32-32V298.88c0-17.643-14.357-32-32-32zM384 373.333c0 5.888-4.8 10.667-10.667 10.667-194.091 0-352-157.909-352-352 0-5.888 4.8-10.667 10.667-10.667h74.667c5.867 0 10.667 4.779 10.667 10.667 0 27.243 4.267 53.995 12.629 79.36 1.237 3.989.235 8.107-3.669 12.16l-38.827 51.413a10.665 10.665 0 0 0-.981 11.264c31.637 62.144 70.059 100.587 132.651 132.651 3.605 1.877 8.021 1.493 11.285-.981l52.523-39.808a10.7 10.7 0 0 1 10.859-2.539c25.515 8.427 52.267 12.693 79.531 12.693 5.867 0 10.667 4.779 10.667 10.667v74.453z"/></symbol><symbol viewBox="0 0 139.4 44.7" id="dorohovdesign"><path d="M52.2 19.5V8.1H57c3.6 0 6.1 2.1 6.1 5.7 0 3.5-2.6 5.7-6.1 5.7h-4.8zm7.9-5.7c0-1.8-1.1-3.1-3.1-3.1h-1.9v6.2H57c2 0 3.1-1.4 3.1-3.1m4.1 0c0-3.4 2.6-5.9 6.1-5.9 3.5 0 6.1 2.4 6.1 5.9 0 3.5-2.6 5.9-6.1 5.9-3.5 0-6.1-2.4-6.1-5.9m9.2 0c0-1.9-1.2-3.3-3.1-3.3-1.9 0-3.1 1.4-3.1 3.3 0 1.8 1.2 3.3 3.1 3.3 1.9 0 3.1-1.4 3.1-3.3m11 5.7l-1.9-3.8H81v3.8h-2.9V8.1h5.7c2.5 0 3.9 1.7 3.9 3.8 0 2-1.2 3-2.3 3.4l2.3 4.2h-3.3zm.3-7.6c0-.8-.6-1.2-1.4-1.2H81v2.4h2.3c.8 0 1.4-.4 1.4-1.2m4.2 1.9c0-3.4 2.6-5.9 6.1-5.9 3.5 0 6.1 2.4 6.1 5.9 0 3.5-2.6 5.9-6.1 5.9-3.5 0-6.1-2.4-6.1-5.9m9.1 0c0-1.9-1.2-3.3-3.1-3.3-1.9 0-3.1 1.4-3.1 3.3 0 1.8 1.2 3.3 3.1 3.3 1.9 0 3.1-1.4 3.1-3.3m12.4 5.7v-4.6h-4.7v4.6h-3V8.1h3v4.3h4.7V8.1h2.9v11.4zm4.6-5.7c0-3.4 2.6-5.9 6.1-5.9 3.5 0 6.1 2.4 6.1 5.9 0 3.5-2.6 5.9-6.1 5.9-3.5 0-6.1-2.4-6.1-5.9m9.2 0c0-1.9-1.2-3.3-3.1-3.3-1.9 0-3.1 1.4-3.1 3.3 0 1.8 1.2 3.3 3.1 3.3 1.9 0 3.1-1.4 3.1-3.3m7.3 5.7l-4.3-11.4h3.3l2.8 8.2 2.8-8.2h3.3l-4.2 11.4zm-79.3 17V25.1H57c3.6 0 6.1 2.1 6.1 5.7 0 3.5-2.6 5.7-6.1 5.7h-4.8zm7.9-5.7c0-1.8-1.1-3.1-3.1-3.1h-1.9v6.2H57c2 0 3.1-1.4 3.1-3.1m4.7 5.7V25.1h8.3v2.6h-5.3v1.8H73V32h-5.2v1.9h5.3v2.6zm9.6-1.6l1.5-2.2c.8.8 2.1 1.5 3.6 1.5 1 0 1.6-.4 1.6-.9 0-1.5-6.4-.3-6.4-4.7 0-1.9 1.6-3.6 4.5-3.6 1.8 0 3.4.5 4.6 1.6l-1.6 2.1c-1-.8-2.2-1.2-3.3-1.2-.8 0-1.2.3-1.2.8 0 1.4 6.4.4 6.4 4.6 0 2.3-1.7 3.8-4.7 3.8-2.2 0-3.8-.7-5-1.8m11.5-9.8h2.9v11.3h-2.9zm4.7 5.7c0-3.6 2.8-5.9 6.1-5.9 2.5 0 4.1 1.3 4.8 2.8L99.1 29c-.4-.7-1.3-1.4-2.4-1.4-1.9 0-3.2 1.4-3.2 3.3s1.3 3.3 3.2 3.3c.8 0 1.7-.3 2.1-.7v-.9h-2.6V30h5.5v4.5c-1.2 1.3-2.9 2.2-5 2.2-3.4 0-6.1-2.3-6.1-5.9m20.9 5.7l-4.8-6.6v6.6h-2.9V25.1h3l4.6 6.3v-6.3h2.9v11.4zM17.7 0H0v44.7h17.8c15 0 24.6-8.8 24.6-22.4C42.4 8.7 32.7 0 17.7 0m-.4 35.7h-8V9.5h8c9.3 0 15.7 3.7 15.7 12.7.1 7.5-5.8 13.5-15.7 13.5"/><path d="M19.1 17H17v10.6h2c4 0 6.4-2.4 6.4-5.4 0-3.7-2.6-5.2-6.3-5.2"/></symbol><symbol viewBox="0 0 96.124 96.123" id="fb"><path d="M72.089.02L59.624 0C45.62 0 36.57 9.285 36.57 23.656v10.907H24.037a1.96 1.96 0 0 0-1.96 1.961v15.803a1.96 1.96 0 0 0 1.96 1.96H36.57v39.876a1.96 1.96 0 0 0 1.96 1.96h16.352a1.96 1.96 0 0 0 1.96-1.96V54.287h14.654a1.96 1.96 0 0 0 1.96-1.96l.006-15.803a1.963 1.963 0 0 0-1.961-1.961H56.842v-9.246c0-4.444 1.059-6.7 6.848-6.7l8.397-.003a1.96 1.96 0 0 0 1.959-1.96V1.98A1.96 1.96 0 0 0 72.089.02z"/></symbol><symbol viewBox="0 0 482.9 482.9" id="icon-age-limit"><path d="M239.7 260.2h3.2c29.3-.5 53-10.8 70.5-30.5 38.5-43.4 32.1-117.8 31.4-124.9-2.5-53.3-27.7-78.8-48.5-90.7C280.8 5.2 262.7.4 242.5 0h-1.7c-11.1 0-32.9 1.8-53.8 13.7-21 11.9-46.6 37.4-49.1 91.1-.7 7.1-7.1 81.5 31.4 124.9 17.4 19.7 41.1 30 70.4 30.5zm-75.1-152.9c0-.3.1-.6.1-.8 3.3-71.7 54.2-79.4 76-79.4h1.2c27 .6 72.9 11.6 76 79.4 0 .3 0 .6.1.8.1.7 7.1 68.7-24.7 104.5-12.6 14.2-29.4 21.2-51.5 21.4h-1c-22-.2-38.9-7.2-51.4-21.4-31.7-35.6-24.9-103.9-24.8-104.5z"/><path d="M446.8 383.6v-.3c0-.8-.1-1.6-.1-2.5-.6-19.8-1.9-66.1-45.3-80.9-.3-.1-.7-.2-1-.3-45.1-11.5-82.6-37.5-83-37.8-6.1-4.3-14.5-2.8-18.8 3.3-4.3 6.1-2.8 14.5 3.3 18.8 1.7 1.2 41.5 28.9 91.3 41.7 23.3 8.3 25.9 33.2 26.6 56 0 .9 0 1.7.1 2.5.1 9-.5 22.9-2.1 30.9-16.2 9.2-79.7 41-176.3 41-96.2 0-160.1-31.9-176.4-41.1-1.6-8-2.3-21.9-2.1-30.9 0-.8.1-1.6.1-2.5.7-22.8 3.3-47.7 26.6-56 49.8-12.8 89.6-40.6 91.3-41.7 6.1-4.3 7.6-12.7 3.3-18.8-4.3-6.1-12.7-7.6-18.8-3.3-.4.3-37.7 26.3-83 37.8-.4.1-.7.2-1 .3-43.4 14.9-44.7 61.2-45.3 80.9 0 .9 0 1.7-.1 2.5v.3c-.1 5.2-.2 31.9 5.1 45.3 1 2.6 2.8 4.8 5.2 6.3 3 2 74.9 47.8 195.2 47.8s192.2-45.9 195.2-47.8c2.3-1.5 4.2-3.7 5.2-6.3 5-13.3 4.9-40 4.8-45.2z"/></symbol><symbol viewBox="0 0 60 60" id="icon-date"><path d="M54 58h-3v-4h-5V43.778c0-2.7-1.342-5.208-3.589-6.706L31.803 30l10.608-7.072A8.045 8.045 0 0 0 46 16.222V6h5V2h3a1 1 0 1 0 0-2H6a1 1 0 1 0 0 2h3v4h5v10.222c0 2.7 1.342 5.208 3.589 6.706L28.197 30l-10.608 7.072A8.045 8.045 0 0 0 14 43.778V54H9v4H6a1 1 0 1 0 0 2h48a1 1 0 1 0 0-2zM18.698 21.264A6.05 6.05 0 0 1 16 16.222V6h28v10.222a6.05 6.05 0 0 1-2.698 5.042L30 28.798l-11.302-7.534zM16 43.778a6.05 6.05 0 0 1 2.698-5.042L30 31.202l11.302 7.534A6.05 6.05 0 0 1 44 43.778V54H16V43.778z"/><path d="M20.917 17.936A2.057 2.057 0 0 1 20 16.222V14a1 1 0 1 0-2 0v2.222a4.05 4.05 0 0 0 1.808 3.378l4.638 3.092a1 1 0 1 0 1.11-1.664l-4.639-3.092zM40.192 41.26l-4.638-3.092a1 1 0 1 0-1.11 1.664l4.638 3.092c.575.383.918 1.023.918 1.714v2.222a1 1 0 1 0 2 0v-2.222a4.05 4.05 0 0 0-1.808-3.378z"/></symbol><symbol viewBox="0 0 54.757 54.757" id="icon-place"><path d="M27.557 12c-3.859 0-7 3.141-7 7s3.141 7 7 7 7-3.141 7-7-3.141-7-7-7zm0 12c-2.757 0-5-2.243-5-5s2.243-5 5-5 5 2.243 5 5-2.243 5-5 5z"/><path d="M40.94 5.617A19.052 19.052 0 0 0 27.38 0a19.05 19.05 0 0 0-13.56 5.617c-6.703 6.702-7.536 19.312-1.804 26.952L27.38 54.757 42.721 32.6c5.755-7.671 4.922-20.281-1.781-26.983zm.159 25.814L27.38 51.243 13.639 31.4C8.44 24.468 9.185 13.08 15.235 7.031 18.479 3.787 22.792 2 27.38 2s8.901 1.787 12.146 5.031c6.05 6.049 6.795 17.437 1.573 24.4z"/></symbol><symbol viewBox="0 0 451 451" id="icon-search"><path d="M447.05 428l-109.6-109.6c29.4-33.8 47.2-77.9 47.2-126.1C384.65 86.2 298.35 0 192.35 0 86.25 0 .05 86.3.05 192.3s86.3 192.3 192.3 192.3c48.2 0 92.3-17.8 126.1-47.2L428.05 447c2.6 2.6 6.1 4 9.5 4s6.9-1.3 9.5-4c5.2-5.2 5.2-13.8 0-19zM26.95 192.3c0-91.2 74.2-165.3 165.3-165.3 91.2 0 165.3 74.2 165.3 165.3s-74.1 165.4-165.3 165.4c-91.1 0-165.3-74.2-165.3-165.4z"/></symbol><symbol viewBox="0 0 97.395 97.395" id="inst"><path d="M12.501 0h72.393c6.875 0 12.5 5.09 12.5 12.5v72.395c0 7.41-5.625 12.5-12.5 12.5H12.501C5.624 97.395 0 92.305 0 84.895V12.5C0 5.09 5.624 0 12.501 0zm58.447 10.821a4.395 4.395 0 0 0-4.383 4.385v10.495a4.396 4.396 0 0 0 4.383 4.385h11.008a4.398 4.398 0 0 0 4.385-4.385V15.206a4.397 4.397 0 0 0-4.385-4.385H70.948zm15.439 30.367h-8.572a28.486 28.486 0 0 1 1.25 8.355c0 16.2-13.556 29.332-30.275 29.332-16.718 0-30.272-13.132-30.272-29.332 0-2.904.438-5.708 1.25-8.355h-8.945v41.141a3.884 3.884 0 0 0 3.872 3.872h67.822a3.883 3.883 0 0 0 3.872-3.872V41.188h-.002zM48.789 29.533c-10.802 0-19.56 8.485-19.56 18.953s8.758 18.953 19.56 18.953c10.803 0 19.562-8.485 19.562-18.953s-8.758-18.953-19.562-18.953z"/></symbol><symbol viewBox="0 0 189 150" id="logotip"><path d="M119.9 7.7c-11.3-11.7-17.2-2.5-15.3 4.6 3.4-2.7 7-5.2 15.3-4.6zm-25.7 3.6C58.9 16.9 30.8 29 11.3 48.7V26.3c.6-6.2 3.4-11.4 9.9-15 4.4-2.3 6.3-1.9 11.1-2.1C48.1 8.6 63.8 8 79.6 7.6c6.2.2 11.3 1.3 14.6 3.7zM40.1 38.8C25.6 47.2-.3 66.5.2 85.2c.4 9.5 5.8 17.4 14.3 22.4.1 1.5.5 2.8 1.8 4.9 1.8 3 4.2 5.4 8.1 6.8 3.9 1.4 6.4 1.1 10.4.8 14.6-.6 29.1-1.3 43.7-1.9 6.9-.4 9.5-.4 16.1-3 6.7-2.7 12.6-6.7 16.9-13.1 3.3-4.8 4.3-9 4.6-15v-2.5c-.2-5-1.6-8.4-2.1-9.5-.1-.1-.4-.7-.7-1.4-2.5-4.7-6.1-7.5-7.2-8.4-1.1-.8-2.1-1.5-3.3-2.1-5.3-2.9-10.4-3.5-12.2-3.7 15-8.6 21.4-24.5 11.8-38.8-19.7 1.6-35.1 5.5-46.4 11.5 2.1-.1 5-.2 8.8-.4 3.7 0 5.4-.2 8.2 2.7 3.4 3.6 4.4 9.8-.7 14.5-2.7 1.9-5.8 2.6-9.1 2.8h-9.6c-3.2 0-5 .2-7.9-1.5-3.9-1.9-5.5-6-5.6-11.5zM13.2 69.9l1.2 33.9v1.8C8.3 101.7 4.1 96 3.5 89.2c-.7-7.5 3.2-14.4 9.7-19.3zm40.7 3.9h19.7c5.5 0 9.9 4.4 9.9 9.9s-4.4 9.9-9.9 9.9H53.9c-5.5 0-9.9-4.4-9.9-9.9-.1-5.4 4.4-9.9 9.9-9.9z"/><path d="M160 3.3C145.4.1 130.6-.3 115.6.3c8.1 4.3 12.6 11.3 11.3 22.5 11.6-9.4 22.8-16.9 33.1-19.5zm-38.6 110.8c12.3 6.7 25.4 9.7 39.6 6.1 5.4-1.4 13.7-3.5 15.7-9.3 1.5-4.4-.4-9-2.8-11.6-3.2-3.4-5.7-2.1-9.8-1.8-7.1.8-15.8 2.7-22.5.1-4.9-2.3-7.9-5.4-9.6-8.9-1.4-3-2.8-6.4 1.9-6.1 10.3 1.4 20.6 2.8 30.8 4.1 4.8.6 9.6 1.1 13.9-.2 3.5-1.1 5.7-2.7 7.2-4.9 5.7-8.9 2.5-24.7-3-33.1-11.9-18.3-37.6-24.7-56.8-14.3-6.1 3.3-11.7 8.1-16.6 14.5-7.4 10.6-9.2 22.7-7.5 35.6 3.4 13.8 9.9 23.6 19.5 29.8zm17.4-58.5c7.1-4.8 18.6-2.8 21.1 6.1 1.3 4.4-.4 6.9-4.9 6.5-4.9-.4-9.9-.6-14.8-.9-7.1-1.5-6.4-8.2-1.4-11.7zm-118.6 77c0-1.6-1.1-3.1-2.7-3.1s-2.7 1.5-2.7 3.1v14.2c0 1.6 1.1 2.7 2.7 2.7s2.7-1.1 2.7-2.7v-14.2zm6.6 9c0-1.5 1.2-2.8 2.7-2.8 1.2 0 2.1 1.1 2.1 2.6v5.5c0 1.6 1.1 2.7 2.7 2.7s2.7-1.1 2.7-2.7v-5.7c0-5.1-2-7.7-6.1-7.7-1.6 0-3.2.6-4.4 1.6-.5-.8-1.3-1.3-2.3-1.3-1.6 0-2.7 1.1-2.7 2.7v10.4c0 1.6 1.1 2.7 2.7 2.7s2.7-1.1 2.7-2.7l-.1-5.3zm13-2.5v5.4c0 4 2 5.4 5.5 5.4 1.1 0 1.9-.1 2.5-.2 1.2-.4 1.9-1.3 1.9-2.5 0-1.5-.8-2.8-2.3-2.8-.2 0-.9.1-1.2.1-.5 0-.7-.1-.7-.7-.1-.5-.1-.8-.1-1.8v-2.9h1.5c1.6 0 2.7-1.1 2.7-2.7s-1.1-2.7-2.7-2.7h-1.5v-1.5c0-1.6-1.1-2.7-2.7-2.7s-2.7 1.1-2.7 2.7v1.5h-.1c-1.6 0-2.7 1.1-2.7 2.7-.2 1.7.9 2.7 2.6 2.7zm23.6 3.7c1.5 1.2 1.8 2.5.5 4.3-1.4 1.8-3.7 2.8-6.3 2.8-2.2 0-4.2-.8-5.8-2.3-1.6-1.6-2.3-3.5-2.3-5.8 0-2.2.8-4.2 2.3-5.8 1.6-1.6 3.5-2.5 5.8-2.5 2.1 0 3.7.6 5.3 1.8 1.4 1.1 2.2 2.5 2.2 4.1 0 1.5-1.1 2.6-2.7 2.6H55c.1 1.6.9 2.8 2.7 2.8.9 0 1.6-.4 2.1-1.1.7-1.5 2.4-1.9 3.6-.9zm-8-4h3.9c-.4-.8-1.1-1.3-2-1.3-.9-.1-1.5.3-1.9 1.3zm15.6 8v-5.1c0-1.6 1.2-2.9 2.7-2.9h.7c1.6 0 2.7-1.1 2.7-2.6 0-1.6-1.1-2.7-2.7-2.7h-.1c-1.4 0-2.7.5-3.7 1.5-.5-.7-1.3-1.2-2.2-1.2-1.6 0-2.7 1.1-2.7 2.7V147c0 1.6 1.1 2.7 2.7 2.7 1.5-.2 2.6-1.2 2.6-2.9zm12.1-5.2c0-1.5 1.2-2.8 2.7-2.8 1.2 0 2.1 1.1 2.1 2.6v5.5c0 1.6 1.1 2.7 2.7 2.7s2.7-1.1 2.7-2.7v-5.7c0-5.1-2-7.7-6.1-7.7-1.6 0-3.2.6-4.4 1.6-.5-.8-1.3-1.3-2.3-1.3-1.6 0-2.7 1.1-2.7 2.7v10.4c0 1.6 1.1 2.7 2.7 2.7s2.7-1.1 2.7-2.7l-.1-5.3zm27.7-5.2c0-1.6-1.1-2.7-2.7-2.7-1.2 0-2 .5-2.5 1.4-1.3-1.2-2.8-1.8-4.4-1.8-2.2 0-3.9.8-5.1 2.5s-1.9 3.6-1.9 5.8c0 2.2.6 4.2 1.9 5.8 1.3 1.6 2.9 2.5 5.1 2.5 1.8 0 3.3-.6 4.6-1.6.5.8 1.3 1.3 2.3 1.3 1.6 0 2.7-1.1 2.7-2.7v-10.5zm-10.2 3.2c1.1-1.2 2.9-1.2 4 0 .6.6.8 1.3.8 2.1s-.2 1.5-.8 2.1c-1.1 1.1-2.9 1.1-4 0-.6-.6-.8-1.3-.8-2.1s.3-1.5.8-2.1zm13.7-.5v5.4c0 4 2 5.4 5.5 5.4 1.1 0 1.9-.1 2.5-.2 1.2-.4 1.9-1.3 1.9-2.5 0-1.5-.8-2.8-2.3-2.8-.2 0-.9.1-1.2.1-.5 0-.7-.1-.7-.7-.1-.5-.1-.8-.1-1.8v-2.9h1.5c1.6 0 2.7-1.1 2.7-2.7s-1.1-2.7-2.7-2.7h-1.5v-1.5c0-1.6-1.1-2.7-2.7-2.7s-2.7 1.1-2.7 2.7v1.5h-.1c-1.6 0-2.7 1.1-2.7 2.7-.2 1.7.8 2.7 2.6 2.7zm16-.9c0-1.6-1.1-2.7-2.7-2.7s-2.7 1.1-2.7 2.7v8.6c0 1.6 1.1 2.7 2.7 2.7s2.7-1.1 2.7-2.7v-8.6zm9.3-4.7c-2.3 0-4.3.8-6 2.5s-2.5 3.5-2.5 5.8c0 2.2.8 4.2 2.5 5.8 1.6 1.6 3.6 2.3 6 2.3s4.3-.8 6-2.3c1.6-1.6 2.5-3.5 2.5-5.8 0-2.2-.8-4.2-2.5-5.8s-3.6-2.5-6-2.5zm-2 6.1c1.1-1.2 2.9-1.2 4 0 .6.6.8 1.3.8 2.1s-.2 1.5-.8 2.1c-1.1 1.1-2.9 1.1-4 0-.6-.6-.8-1.3-.8-2.1s.3-1.5.8-2.1zm16.6 2c0-1.5 1.2-2.8 2.7-2.8 1.2 0 2.1 1.1 2.1 2.6v5.5c0 1.6 1.1 2.7 2.7 2.7s2.7-1.1 2.7-2.7v-5.7c0-5.1-2-7.7-6.1-7.7-1.6 0-3.2.6-4.4 1.6-.5-.8-1.3-1.3-2.3-1.3-1.6 0-2.7 1.1-2.7 2.7v10.4c0 1.6 1.1 2.7 2.7 2.7s2.7-1.1 2.7-2.7v-5.3h-.1zm27.8-5.2c0-1.6-1.1-2.7-2.7-2.7-1.2 0-2 .5-2.5 1.4-1.3-1.2-2.8-1.8-4.4-1.8-2.2 0-3.9.8-5.1 2.5-1.3 1.6-1.9 3.6-1.9 5.8 0 2.2.6 4.2 1.9 5.8 1.3 1.6 2.9 2.5 5.1 2.5 1.8 0 3.3-.6 4.6-1.6.5.8 1.3 1.3 2.3 1.3 1.6 0 2.7-1.1 2.7-2.7v-10.5zm-10.1 3.2c1.1-1.2 2.9-1.2 4 0 .6.6.8 1.3.8 2.1s-.2 1.5-.8 2.1c-1.1 1.1-2.9 1.1-4 0-.6-.6-.8-1.3-.8-2.1-.1-.8.2-1.5.8-2.1zm11.2 7.4c0 1.6 1.1 2.7 2.7 2.7s2.7-1.1 2.7-2.7v-14.7c0-1.6-1.1-2.7-2.7-2.7s-2.7 1.1-2.7 2.7V147zm-52.7-14.8c0 1.5-1.2 2.7-2.7 2.7-1.5 0-2.7-1.2-2.7-2.7 0-1.5 1.2-2.7 2.7-2.7 1.5.1 2.7 1.2 2.7 2.7z"/><path d="M102.7 63.3s11.4 6 13.1 18c1.5 11.1-2.1 17.9-5.4 22.3-3.6-5.1-7.6-12.2-8.6-20.4-1.6-11.4.9-19.9.9-19.9z"/></symbol><symbol viewBox="0 0 54 54" id="map-location"><path d="M26.7 0C16 .4 7.1 8.8 6.1 19.4c-.2 2.1-.1 4.2.3 6.2 0 0 0 .2.1.7.3 1.5.8 2.9 1.5 4.3 2.2 5.1 7.2 13.7 18.4 23 .7.6 1.7.6 2.4 0C40 44.3 45 35.7 47.2 30.6c.6-1.4 1.1-2.8 1.5-4.3.1-.4.1-.7.1-.7.3-1.3.4-2.7.4-4.1C49 9.4 39-.4 26.7 0zm.8 32.3c-5.8 0-10.5-4.7-10.5-10.5s4.7-10.5 10.5-10.5S38 16 38 21.8s-4.7 10.5-10.5 10.5z"/></symbol><symbol viewBox="0 0 371.23 371.23" id="modal-close"><path d="M371.23 21.213L350.018 0 185.615 164.402 21.213 0 0 21.213l164.402 164.402L0 350.018l21.213 21.212 164.402-164.402L350.018 371.23l21.212-21.212-164.402-164.403z"/></symbol><symbol viewBox="0 0 325 512" id="next-panel"><path d="M8.533 264.532h82.449l62.891 241.084a8.535 8.535 0 0 0 16.52 0l62.891-241.084h82.449a8.53 8.53 0 0 0 8.533-8.533 8.53 8.53 0 0 0-8.533-8.533h-77.995l35.055-134.383a8.523 8.523 0 0 0-4.668-9.89c-3.703-1.732-8.175-.563-10.564 2.816l-86.895 123.102V8.533A8.53 8.53 0 0 0 162.133 0a8.53 8.53 0 0 0-8.533 8.533V229.11L66.705 106.008a8.529 8.529 0 0 0-6.972-3.61 8.537 8.537 0 0 0-8.261 10.684l35.055 134.383H8.533A8.53 8.53 0 0 0 0 255.998a8.531 8.531 0 0 0 8.533 8.534zm162.133-5.819l73.762-104.491-73.762 282.726V258.713zm-90.828-104.5L153.6 258.712v178.236L79.838 154.213z"/></symbol><symbol viewBox="0 0 95.481 95.481" id="ok"><path d="M43.041 67.254c-7.402-.772-14.076-2.595-19.79-7.064-.709-.556-1.441-1.092-2.088-1.713-2.501-2.402-2.753-5.153-.774-7.988 1.693-2.426 4.535-3.075 7.489-1.682.572.27 1.117.607 1.639.969 10.649 7.317 25.278 7.519 35.967.329 1.059-.812 2.191-1.474 3.503-1.812 2.551-.655 4.93.282 6.299 2.514 1.564 2.549 1.544 5.037-.383 7.016-2.956 3.034-6.511 5.229-10.461 6.761-3.735 1.448-7.826 2.177-11.875 2.661.611.665.899.992 1.281 1.376 5.498 5.524 11.02 11.025 16.5 16.566 1.867 1.888 2.257 4.229 1.229 6.425-1.124 2.4-3.64 3.979-6.107 3.81-1.563-.108-2.782-.886-3.865-1.977-4.149-4.175-8.376-8.273-12.441-12.527-1.183-1.237-1.752-1.003-2.796.071-4.174 4.297-8.416 8.528-12.683 12.735-1.916 1.889-4.196 2.229-6.418 1.15-2.362-1.145-3.865-3.556-3.749-5.979.08-1.639.886-2.891 2.011-4.014 5.441-5.433 10.867-10.88 16.295-16.322.359-.362.694-.746 1.217-1.305z"/><path d="M47.55 48.329c-13.205-.045-24.033-10.992-23.956-24.218C23.67 10.739 34.505-.037 47.84 0c13.362.036 24.087 10.967 24.02 24.478-.068 13.199-10.971 23.897-24.31 23.851zm12.001-24.186c-.023-6.567-5.253-11.795-11.807-11.801-6.609-.007-11.886 5.316-11.835 11.943.049 6.542 5.324 11.733 11.896 11.709 6.552-.023 11.768-5.285 11.746-11.851z"/></symbol><symbol viewBox="51 -52.2 477.2 477.2" id="owl-next"><path d="M167.6 401.9c-5.3 5.3-5.3 13.8 0 19.1 2.6 2.7 6.1 4 9.5 4s6.9-1.4 9.5-4l225.1-225c5.3-5.3 5.3-13.8 0-19.1L186.6-48.2c-5.3-5.3-13.8-5.3-19.1 0s-5.3 13.8 0 19.1L383 186.4 167.6 401.9z"/></symbol><symbol viewBox="0 0 477.175 477.175" id="owl-prev"><path d="M145.188 238.575l215.5-215.5c5.3-5.3 5.3-13.8 0-19.1s-13.8-5.3-19.1 0l-225.1 225.1c-5.3 5.3-5.3 13.8 0 19.1l225.1 225c2.6 2.6 6.1 4 9.5 4s6.9-1.3 9.5-4c5.3-5.3 5.3-13.8 0-19.1l-215.4-215.5z"/></symbol><symbol viewBox="0 0 459.325 459.325" id="plus"><path d="M459.319 229.668c0 22.201-17.992 40.193-40.205 40.193H269.85v149.271c0 22.207-17.998 40.199-40.196 40.193-11.101 0-21.149-4.492-28.416-11.763-7.276-7.281-11.774-17.324-11.769-28.419l-.006-149.288H40.181c-11.094 0-21.134-4.492-28.416-11.774C4.501 250.817.006 240.769.006 229.668 0 207.471 17.992 189.475 40.202 189.475h149.267V40.202C189.469 17.998 207.471 0 229.671 0c22.192.006 40.178 17.986 40.19 40.187v149.288h149.282c22.196.012 40.165 17.996 40.176 40.193z"/></symbol><symbol viewBox="0 0 64 64" id="programm-books"><path d="M63 39.474h-1.957c-2.353-5.044-2.354-9.967 0-15.046h1.956a1 1 0 1 0 0-2H25.898v-.743h31.905a1 1 0 1 0 0-2h-1.957c-2.353-5.044-2.352-9.966 0-15.046h1.957a1 1 0 1 0 0-2H5.244c-.363 0-.698.197-.875.515-3.632 6.555-3.617 12.64.045 18.09a1 1 0 0 0 .83.441h10.13v.743h-4.933a1 1 0 0 0-.875.515c-3.634 6.555-3.618 12.64.045 18.09a1 1 0 0 0 .83.441h52.558a1 1 0 1 0 0-2zm-45.626-27.83h6.524v17.335l-2.849-1.291a1 1 0 0 0-.826 0l-2.849 1.291V11.644zM5.787 19.685c-2.875-4.577-2.857-9.509.054-15.046h47.822c-2.085 5.011-2.086 10.064-.003 15.046H25.898v-8.041h16.046a1 1 0 1 0 0-2H12.113a1 1 0 1 0 0 2h3.261v8.041H5.787zm5.25 4.743h4.337v6.103a1 1 0 0 0 1.413.91l3.85-1.744 3.848 1.744a.996.996 0 0 0 .955-.07 1 1 0 0 0 .458-.84v-6.103h32.961c-2.086 5.01-2.086 10.063-.002 15.046H10.983c-2.875-4.577-2.858-9.508.054-15.046zm43.155 19.887h1.957a1 1 0 1 0 0-2H3.59c-.363 0-.698.198-.875.516-3.635 6.554-3.619 12.64.045 18.088a1 1 0 0 0 .83.442h52.56a1 1 0 1 0 0-2h-1.957c-2.353-5.044-2.353-9.967 0-15.046zM4.132 59.361c-2.876-4.576-2.858-9.508.055-15.046h47.821c-2.085 5.011-2.086 10.063-.002 15.046H4.132z"/></symbol><symbol viewBox="6 -6 512 512" id="programm-briefcase"><path d="M280.8 327.1h-40.1c-5.2 0-9.4-4.2-9.4-9.4v-40.5c0-5.2 4.2-9.4 9.4-9.4h40.1c5.2 0 9.4 4.2 9.4 9.4v40.5c-.1 5.1-4.3 9.4-9.4 9.4zm-38.2-11.3h36.3v-36.7h-36.3v36.7z"/><path d="M472.9 469.8H51.2c-18.4 0-33.3-15-33.3-33.3V297.7c0-5 4.1-9.1 9.1-9.1s9.1 4.1 9.1 9.1v138.8c0 8.4 6.8 15.2 15.2 15.2H473c8.4 0 15.2-6.8 15.2-15.2V297.7c0-5 4.1-9.1 9.1-9.1s9.1 4.1 9.1 9.1v138.8c-.2 18.4-15.1 33.3-33.5 33.3zM264.1 302.6L498 250.3c11.2-.6 20.1-9.9 20.1-21.2v-99.4c0-11.7-9.5-21.2-21.2-21.2H27.4c-11.7 0-21.2 9.5-21.2 21.2v99.4c0 11.3 8.9 20.6 20.1 21.2l233.9 52.3c.7.1 1.3.2 2 .2s1.2-.1 1.9-.2zm232.7-176c1.6 0 3 1.4 3 3V229c0 1.6-1.4 3-3 3-.7 0-1.3.1-2 .2l-232.7 52.1-232.8-52c-.7-.1-1.3-.2-2-.2-1.6 0-3-1.4-3-3v-99.4c0-1.6 1.4-3 3-3h469.5zM187.7 68.8v-7.7c0-8.4 6.8-15.2 15.2-15.2H320c8.4 0 15.2 6.8 15.2 15.2v7.1c0 5 4.1 9.1 9.1 9.1s9.1-4.1 9.1-9.1v-7.1c0-18.4-15-33.3-33.3-33.3H202.8c-18.4 0-33.3 15-33.3 33.3v7.7c0 5 4.1 9.1 9.1 9.1s9.1-4.1 9.1-9.1zm93.5 202l-43 8.2-2 43.1 51.3-4-6.3-47.3z"/></symbol><symbol viewBox="0 0 511.795 511.795" id="programm-diploma"><path d="M307.098 179.004a8.53 8.53 0 0 0 8.533 8.533h85.333c4.719 0 8.533-3.823 8.533-8.533s-3.814-8.533-8.533-8.533h-85.333a8.53 8.53 0 0 0-8.533 8.533zm51.2 51.2a8.53 8.53 0 0 0 8.533 8.533h51.2c4.719 0 8.533-3.823 8.533-8.533s-3.814-8.533-8.533-8.533h-51.2a8.53 8.53 0 0 0-8.533 8.533zm-8.534-93.867a8.53 8.53 0 0 0 8.533-8.533 8.53 8.53 0 0 0-8.533-8.533h-17.067a8.53 8.53 0 0 0-8.533 8.533 8.53 8.53 0 0 0 8.533 8.533h17.067zm-102.4 85.333c-4.719 0-8.533 3.823-8.533 8.533s3.814 8.533 8.533 8.533h85.333c4.719 0 8.533-3.823 8.533-8.533s-3.814-8.533-8.533-8.533h-85.333zm42.667 238.934H127.898c-14.114 0-25.6-11.486-25.6-25.6V42.47a8.53 8.53 0 0 0-8.533-8.533c-23.526 0-42.667 19.14-42.667 42.667 0 4.71 3.814 8.533 8.533 8.533s8.533-3.823 8.533-8.533c0-11.128 7.134-20.617 17.067-24.141v382.541c0 23.526 19.14 42.667 42.667 42.667h162.133c4.719 0 8.533-3.823 8.533-8.533s-3.814-8.534-8.533-8.534z"/><path d="M162.031 187.537h119.467c4.719 0 8.533-3.823 8.533-8.533s-3.814-8.533-8.533-8.533H162.031c-4.719 0-8.533 3.823-8.533 8.533s3.814 8.533 8.533 8.533zm0-51.2h34.133a8.53 8.53 0 0 0 8.533-8.533 8.53 8.53 0 0 0-8.533-8.533h-34.133a8.53 8.53 0 0 0-8.533 8.533 8.53 8.53 0 0 0 8.533 8.533zm136.533-17.067h-68.267a8.53 8.53 0 0 0-8.533 8.533 8.53 8.53 0 0 0 8.533 8.533h68.267a8.53 8.53 0 0 0 8.533-8.533 8.53 8.53 0 0 0-8.533-8.533z"/><path d="M418.031 0H93.764c-42.249 0-76.638 34.295-76.8 76.501v.401c.111 27.213 14.797 52.565 38.391 66.219a8.54 8.54 0 0 0 11.656-3.106c2.372-4.079.964-9.301-3.106-11.657-18.397-10.658-29.84-30.438-29.874-51.66.06-32.888 26.829-59.631 59.733-59.631h324.267c32.93 0 59.733 26.795 59.733 59.733v358.4c0 4.326-1.212 8.67-3.49 12.544-2.381 4.062-1.033 9.293 3.029 11.682a8.486 8.486 0 0 0 4.318 1.178 8.52 8.52 0 0 0 7.364-4.207c3.823-6.494 5.845-13.824 5.845-21.197V76.8C494.831 34.449 460.382 0 418.031 0z"/><path d="M443.631 392.337c0-28.237-22.963-51.2-51.2-51.2-28.237 0-51.2 22.963-51.2 51.2 0 28.237 22.963 51.2 51.2 51.2 28.237 0 51.2-22.963 51.2-51.2zm-51.2 34.133c-18.825 0-34.133-15.309-34.133-34.133s15.309-34.133 34.133-34.133c18.825 0 34.133 15.309 34.133 34.133s-15.308 34.133-34.133 34.133zm-15.403 25.609c-4.07-2.355-9.293-.956-11.657 3.123l-18.372 31.838-2.918-4.403a8.489 8.489 0 0 0-6.605-3.814l-5.274-.316 18.68-32.341c2.355-4.079.956-9.301-3.123-11.657-4.079-2.364-9.301-.964-11.665 3.123l-25.574 44.297c-1.476 2.56-1.519 5.709-.12 8.311s4.045 4.301 7.006 4.471l14.788.887 8.166 12.365a8.52 8.52 0 0 0 7.117 3.831h.265a8.576 8.576 0 0 0 7.134-4.267l25.284-43.793c2.355-4.077.956-9.3-3.132-11.655zm71.962-14.046c-2.364-4.087-7.595-5.487-11.657-3.123-4.087 2.355-5.487 7.578-3.132 11.656l18.458 31.94-5.274.316a8.569 8.569 0 0 0-6.613 3.814l-2.901 4.403-18.278-31.676c-2.372-4.079-7.595-5.478-11.665-3.123-4.079 2.355-5.478 7.578-3.123 11.657l25.19 43.631a8.576 8.576 0 0 0 7.134 4.267h.265a8.56 8.56 0 0 0 7.125-3.831l8.158-12.356 14.78-.896c2.961-.171 5.606-1.869 7.006-4.471s1.348-5.751-.119-8.311l-25.354-43.897zM162.031 238.737h51.2c4.719 0 8.533-3.823 8.533-8.533s-3.814-8.533-8.533-8.533h-51.2c-4.719 0-8.533 3.823-8.533 8.533s3.814 8.533 8.533 8.533zm0 51.2h102.4c4.719 0 8.533-3.823 8.533-8.533s-3.814-8.533-8.533-8.533h-102.4c-4.719 0-8.533 3.823-8.533 8.533s3.814 8.533 8.533 8.533zm.904 106.214c2.099 4.215 7.228 5.922 11.443 3.823 4.215-2.108 5.931-7.236 3.814-11.452-8.448-16.896-10.342-32.051-5.086-40.559 2.799-4.531 7.68-6.827 14.524-6.827 4.07 0 5.589 1.399 6.545 2.765 6.357 9.165.316 37.077-6.007 53.973a8.54 8.54 0 0 0 3.379 10.172 8.56 8.56 0 0 0 10.65-1.143 204.463 204.463 0 0 1 11.034-10.206v4.173a8.514 8.514 0 0 0 5.265 7.876 8.518 8.518 0 0 0 9.301-1.843c3.9-3.891 8.422-7.706 12.228-10.453-.102.213-.205.418-.307.614a8.563 8.563 0 0 0 .393 8.294 8.553 8.553 0 0 0 7.253 4.045h34.133c4.719 0 8.533-3.823 8.533-8.533s-3.814-8.533-8.533-8.533h-22.212c.691-4.062.521-8.192-1.536-11.52-2.176-3.524-5.965-5.547-10.385-5.547-5.274 0-11.477 3.208-17.143 7.185-.435-3.721-2.637-6.784-5.982-8.166-2.278-.939-5.214-2.167-12.339 2.108 2.807-14.703 3.627-31.65-3.695-42.214-3.2-4.617-9.361-10.112-20.574-10.112-12.783 0-23.1 5.299-29.047 14.925-8.508 13.772-6.93 34.602 4.351 57.155zm229.496-114.747a8.53 8.53 0 0 0-8.533-8.533h-85.333c-4.719 0-8.533 3.823-8.533 8.533s3.814 8.533 8.533 8.533h85.333a8.53 8.53 0 0 0 8.533-8.533z"/></symbol><symbol viewBox="0 0 512 512" id="programm-graduation"><path d="M231 330.438H8c-4.416 0-8 3.576-8 8v72.752c0 4.424 3.584 8 8 8h201.976v-16H16v-56.752h207v19.792h16v-27.792c0-4.424-3.584-8-8-8zm273 0H281c-4.424 0-8 3.576-8 8v32.184h16v-24.184h207v56.752H302.024v16H504c4.424 0 8-3.576 8-8v-72.752c0-4.424-3.576-8-8-8z"/><path d="M504 403.19H302.024v16H496v9.032H290.92v16H504c4.424 0 8-3.576 8-8V411.19c0-4.424-3.576-8-8-8zM16 428.222v-9.032h195.28v-16H8c-4.416 0-8 3.576-8 8v25.032c0 4.424 3.584 8 8 8h213.088v-16H16zm257 19.072v41.136l-12.344-8.832a8.028 8.028 0 0 0-9.312 0L239 488.43v-41.136h-16v56.704c0 3 1.68 5.744 4.344 7.12a8.023 8.023 0 0 0 8.312-.608L256 495.942l20.344 14.56a7.986 7.986 0 0 0 4.656 1.496 7.97 7.97 0 0 0 3.656-.88 8.017 8.017 0 0 0 4.344-7.12v-56.704h-16zm8-116.848h-50c-4.416 0-8 3.576-8 8v32.192h16v-24.192h34v24.184h16v-32.184c0-4.424-3.576-8-8-8zm-25 47.864c-16.288 0-29.536 13.248-29.536 29.528 0 16.288 13.248 29.536 29.536 29.536 16.288 0 29.544-13.248 29.536-29.536 0-16.28-13.248-29.528-29.536-29.528zm0 43.064c-7.464 0-13.536-6.064-13.536-13.536 0-7.456 6.072-13.528 13.536-13.528 7.472 0 13.544 6.064 13.536 13.528 0 7.464-6.064 13.536-13.536 13.536z"/><path d="M256 354.998c-29.144 0-52.848 23.704-52.848 52.84s23.704 52.848 52.848 52.848 52.848-23.712 52.848-52.848-23.704-52.84-52.848-52.84zm0 89.688c-20.32 0-36.848-16.528-36.848-36.848 0-20.312 16.528-36.84 36.848-36.84s36.856 16.528 36.848 36.84c0 20.32-16.528 36.848-36.848 36.848zm0-384.92c-17.512 0-31.24 10.12-31.24 23.032S238.488 105.83 256 105.83c17.52 0 31.24-10.12 31.24-23.032S273.512 59.766 256 59.766zm0 30.064c-9.456 0-15.24-4.552-15.24-7.032s5.784-7.032 15.24-7.032 15.24 4.552 15.24 7.032-5.784 7.032-15.24 7.032z"/><path d="M502.528 70.23L259.64.518A13.029 13.029 0 0 0 252.4.51L9.48 70.23C3.816 71.854.008 76.91.008 82.798 0 88.686 3.808 93.742 9.472 95.374l242.92 69.72c1.184.336 2.392.504 3.608.504s2.424-.168 3.6-.504l242.928-69.72c5.664-1.632 9.472-6.68 9.472-12.576s-3.808-10.944-9.472-12.568zM256 149.478L23.672 82.798 256 16.126l232.328 66.672L256 149.478z"/><path d="M231.744 81.158l-88.712 33.664a7.996 7.996 0 0 0-5.16 7.48v59.904h16v-54.384l83.552-31.704-5.68-14.96z"/><path d="M186.896 305.102l-16.016-79.976a31.262 31.262 0 0 0 6.624-19.312c0-17.432-14.184-31.616-31.616-31.616s-31.616 14.184-31.616 31.616c0 7.088 2.32 13.8 6.608 19.312l-16.016 79.984a7.983 7.983 0 0 0 1.656 6.64 8.008 8.008 0 0 0 6.184 2.928h66.344c2.4 0 4.672-1.088 6.192-2.936a7.983 7.983 0 0 0 1.656-6.64zm-64.432-6.424l14.896-74.32a8 8 0 0 0-2.288-7.328c-3.096-2.992-4.8-6.968-4.8-11.216 0-8.616 7.008-15.616 15.616-15.616 8.616 0 15.616 7.008 15.616 15.616 0 4.24-1.704 8.216-4.808 11.216a8.006 8.006 0 0 0-2.288 7.328l14.88 74.32h-46.824z"/><path d="M419.84 177.302c-2.784-21.912-10-42.912-21.464-62.416-1.848-3.152-5.6-4.632-9.112-3.64L256 149.502l-133.296-38.256c-3.496-.984-7.256.496-9.104 3.64-11.4 19.408-18.608 40.32-21.416 62.16-1.968 15.208 6.52 30.088 20.632 36.184l6.624 2.8 6.224-14.744-6.504-2.744c-7.6-3.288-12.168-11.28-11.112-19.456 2.28-17.688 7.768-34.712 16.328-50.712l127.992 36.736a13.13 13.13 0 0 0 7.248.008l127.992-36.744c8.608 16.08 14.112 33.192 16.36 50.944 1.048 8.232-3.368 16.032-10.968 19.408-49.832 22.112-93.776 36.488-134.304 43.968a17.78 17.78 0 0 1-6.44.008c-25.216-4.592-53.616-12.912-86.832-25.424l-5.64 14.968c34.128 12.856 63.44 21.424 89.608 26.192 2.008.368 4.024.544 6.04.544 2.064 0 4.12-.192 6.16-.552 41.784-7.712 86.888-22.456 137.896-45.08 14.112-6.264 22.288-20.752 20.352-36.048z"/></symbol><symbol viewBox="0 0 512.003 512.003" id="programm-group"><path d="M477.196 318.082l-57.66-36.13a18.31 18.31 0 0 1-9.54-16.077V242.46c6.741-7.04 24.055-27.093 31.087-53.632 7.066-5.803 11.187-14.387 11.187-23.586v-29.483c0-6.904-3.012-13.858-8.533-19.883l-.017-39.543c-.043-.759-5.197-76.331-93.85-76.331-15.975 0-30.449 2.625-43.095 7.788-14.25-5.177-31.204-7.788-50.772-7.788-19.568 0-36.523 2.611-50.774 7.789C192.583 2.628 178.108.002 162.133.002c-88.644 0-93.807 75.571-93.867 76.8v39.074c-5.53 6.033-8.533 12.979-8.533 19.883v29.483c0 9.199 4.13 17.783 11.187 23.586 7.031 26.539 24.346 46.592 31.087 53.632v23.415c0 6.707-3.652 12.868-9.984 16.341L35.26 317.817A67.608 67.608 0 0 0 0 377.201v23.868a8.536 8.536 0 0 0 8.533 8.533h59.638a76.911 76.911 0 0 0-8.434 35.038v58.829a8.53 8.53 0 0 0 8.533 8.533h375.467a8.53 8.53 0 0 0 8.533-8.533V444.64a76.914 76.914 0 0 0-8.434-35.038h59.634a8.53 8.53 0 0 0 8.533-8.533v-23.868c0-24.764-13.508-47.522-34.807-59.119zM17.067 392.535v-15.334c0-18.517 10.104-35.533 26.812-44.663l56.755-35.601a35.365 35.365 0 0 0 18.441-31.061v-26.94a8.564 8.564 0 0 0-2.697-6.229c-.23-.213-22.938-21.811-29.602-50.833a8.556 8.556 0 0 0-3.686-5.256c-3.934-2.543-6.289-6.793-6.289-11.375V135.76c0-3.072 2.091-6.716 5.726-10.01a8.508 8.508 0 0 0 2.807-6.323l-.017-42.121c.162-2.466 4.591-60.237 76.817-60.237 7.734 0 14.871.658 21.515 1.986-4.519 3.274-8.59 6.96-12.193 11.07-20.207 23.049-18.338 50.995-17.852 55.689v45.389c-5.47 6.212-8.533 14.182-8.533 22.4v34.133c0 10.377 4.719 20.062 12.774 26.53 7.817 30.95 24.183 54.281 29.892 61.764v39.706c0 8.26-4.497 15.846-11.75 19.797l-76.143 41.532a76.914 76.914 0 0 0-19.789 15.471H17.067zm418.136 102.4h-358.4V444.64a59.884 59.884 0 0 1 13.055-37.336 8.606 8.606 0 0 0 1.4-1.689 59.898 59.898 0 0 1 16.76-13.574l76.134-41.523a39.594 39.594 0 0 0 20.651-34.782v-42.667a8.61 8.61 0 0 0-1.98-5.47c-.213-.247-21.171-25.737-29.107-60.297a8.492 8.492 0 0 0-3.678-5.257c-4.949-3.2-7.902-8.55-7.902-14.31v-34.133c0-4.787 2.031-9.25 5.717-12.578a8.552 8.552 0 0 0 2.816-6.34V85.335c0-.375-.026-.742-.077-1.118-.034-.239-2.927-23.876 13.696-42.837 5.93-6.768 13.625-12.129 23.021-16.081a8.524 8.524 0 0 0 1.957-.794c12.669-4.943 28.282-7.437 46.736-7.437 18.443 0 34.049 2.493 46.714 7.431a8.497 8.497 0 0 0 1.986.805c9.312 3.918 16.953 9.221 22.86 15.904 16.614 18.782 13.875 42.803 13.85 43.008a8.226 8.226 0 0 0-.077 1.118v49.348a8.552 8.552 0 0 0 2.816 6.34c3.686 3.328 5.717 7.791 5.717 12.578v34.133c0 5.76-2.953 11.11-7.902 14.31a8.487 8.487 0 0 0-3.678 5.257c-7.936 34.56-28.894 60.049-29.107 60.297a8.615 8.615 0 0 0-1.98 5.47v42.667a39.592 39.592 0 0 0 20.651 34.782l76.134 41.523a59.931 59.931 0 0 1 16.756 13.569 8.563 8.563 0 0 0 1.404 1.695 59.88 59.88 0 0 1 13.055 37.335v50.297zm59.734-102.4h-62.984a76.914 76.914 0 0 0-19.789-15.471h-.009l-76.134-41.532a22.522 22.522 0 0 1-11.75-19.797v-39.706c5.709-7.484 22.076-30.814 29.892-61.764 8.055-6.468 12.774-16.154 12.774-26.53v-34.133c0-8.218-3.063-16.188-8.533-22.4V85.813c.486-4.693 2.355-32.64-17.852-55.689-3.603-4.11-7.675-7.796-12.193-11.07 6.645-1.328 13.782-1.986 21.512-1.986 72.226 0 76.655 57.771 76.8 59.733v42.624a8.508 8.508 0 0 0 2.807 6.323c3.644 3.294 5.726 6.938 5.726 10.01v29.483c0 4.582-2.347 8.832-6.281 11.375a8.572 8.572 0 0 0-3.695 5.256c-6.656 29.022-29.363 50.62-29.602 50.833a8.57 8.57 0 0 0-2.697 6.229v26.94c0 12.954 7.066 24.858 17.988 30.797l57.66 36.13a50.553 50.553 0 0 1 26.359 44.399v15.335z"/></symbol><symbol viewBox="-103.5 105.5 290 290" id="programm-plane"><title>Ellipse (Stroke)</title><desc>Created using Figma</desc><path d="M-65.5 139.9l20.2-4.5-8.5 18-2.8-9z"/></symbol><symbol viewBox="0 0 59.998 59.998" id="programm-rich"><path d="M16.586 10.028a2.903 2.903 0 0 0 2.73 1.97h7.431a2.903 2.903 0 0 0 2.73-1.97c.388-1.126 1.607-3.645 2.553-4.445a2.99 2.99 0 0 0 1.014-2.842A2.846 2.846 0 0 0 31.116.559c-3.001-.995-5.663-.66-7.698.967a.959.959 0 0 1-1.22 0C20.163-.1 17.503-.435 14.5.56a2.846 2.846 0 0 0-1.929 2.182 2.99 2.99 0 0 0 1.014 2.842c1.071.906 2.711 3.604 3.001 4.444zm-2.051-6.905a.85.85 0 0 1 .594-.664c.93-.308 1.797-.461 2.599-.461 1.234 0 2.312.364 3.221 1.091a2.959 2.959 0 0 0 3.718 0c1.501-1.2 3.458-1.412 5.82-.63a.85.85 0 0 1 .593.664.974.974 0 0 1-.343.935c-1.528 1.294-2.894 4.576-3.15 5.319a.9.9 0 0 1-.839.622h-7.431a.9.9 0 0 1-.839-.622c-.417-1.208-2.272-4.194-3.599-5.319a.972.972 0 0 1-.344-.935zm16.997 10.875a1 1 0 0 0-1-1 .977.977 0 0 0-.5.153.968.968 0 0 0-.5-.153h-12a1 1 0 0 0 0 2h12v1h-11a1 1 0 0 0 0 2h11.925c.896.746 2 1.173 3.179 1.173a4.97 4.97 0 0 0 3.536-1.466.999.999 0 1 0-1.414-1.414c-1.13 1.13-3.088 1.133-4.226.014v-2.307zm-10 12c-6.411 0-14 8.131-14 15a1 1 0 0 0 2 0c0-5.71 6.729-13 12-13a1 1 0 0 0 0-2z"/><path d="M49.532 31.998c-1.031 0-2.259.06-3.497.201-1.347-2.466-3.123-4.587-5.365-6.304L33.468 21c-1.191-.914-3.068-2.002-5.246-2.002h-7.777a8.632 8.632 0 0 0-5.3 1.822l-7.078 5.157c-7.377 5.8-9.712 15.964-5.551 24.168 1.514 2.985 4.043 6.592 7.501 6.826.271.018.545.028.821.028h19.459a7.986 7.986 0 0 0 6.235 3c2.898 0 5.434-1.555 6.838-3.869 1.787.555 3.978.869 6.162.869 4.809 0 10-1.529 10-4v-5.5h-.079c.048-.162.079-.328.079-.5v-11.5c0-2.764-6.286-3.501-10-3.501zm7.924 3.491c-.021.021-.038.042-.067.065a1.712 1.712 0 0 1-.139.098 4.211 4.211 0 0 1-.463.24 10.244 10.244 0 0 1-.677.257c-.146.048-.314.096-.483.143-.132.037-.262.075-.408.111-.19.047-.404.09-.617.133-.161.033-.314.067-.488.098-.24.042-.508.078-.773.114-.181.025-.35.053-.543.075-.315.036-.662.061-1.008.086-.176.013-.336.031-.52.042a31.629 31.629 0 0 1-3.482 0c-.184-.01-.344-.028-.52-.042-.346-.026-.693-.051-1.008-.086-.193-.022-.362-.05-.543-.075-.265-.036-.533-.072-.773-.114-.174-.031-.327-.065-.488-.098-.213-.044-.427-.087-.617-.133-.146-.036-.275-.073-.408-.111a11.73 11.73 0 0 1-.483-.143c-.116-.038-.219-.077-.321-.115a6.77 6.77 0 0 1-.356-.142 4.211 4.211 0 0 1-.463-.24 1.495 1.495 0 0 1-.139-.098c-.027-.021-.042-.04-.062-.06.012-.01.02-.02.034-.031.037-.031.09-.066.142-.1a3.16 3.16 0 0 1 .301-.169c.065-.033.129-.065.205-.098.079-.035.17-.07.261-.106.108-.042.226-.084.351-.126.09-.03.177-.061.277-.091.224-.068.469-.135.738-.2.124-.03.268-.057.403-.085a15.686 15.686 0 0 1 1.123-.201 27.309 27.309 0 0 1 4.085-.288c4.726-.001 7.369.974 7.929 1.49zm-15.249 8.227c.09.038.183.074.277.111a13.359 13.359 0 0 0 1.477.477c.078.021.153.044.232.063.303.076.613.146.931.208.066.013.135.023.202.036.255.048.513.092.775.131.112.017.225.031.338.046a24.308 24.308 0 0 0 1.751.167c.106.006.212.014.318.019.342.015.683.025 1.023.025.34 0 .681-.01 1.023-.025.108-.005.216-.013.324-.019a21.828 21.828 0 0 0 1.742-.166c.116-.015.232-.03.347-.047.258-.038.512-.082.763-.129.071-.013.143-.024.214-.038.316-.063.625-.132.926-.207.084-.021.164-.045.247-.067.217-.058.43-.118.636-.183.101-.032.198-.065.296-.098a13.26 13.26 0 0 0 .81-.305c.18-.076.351-.156.516-.238.052-.026.111-.048.161-.074l.006 3.524c-.235.569-2.819 1.837-6.896 2.04-.366.013-.72.031-1.115.031-2.203 0-4.379-.338-6.041-.932l-.019-.03a8.09 8.09 0 0 0-.378-.601c-.02-.029-.043-.056-.064-.085a7.765 7.765 0 0 0-.393-.51c-.042-.049-.087-.094-.13-.143a8.086 8.086 0 0 0-.379-.406c-.068-.067-.141-.127-.211-.192-.116-.106-.23-.212-.351-.311-.012-.01-.022-.021-.034-.03l.002-2.353c.051.027.112.05.164.076.165.081.333.16.51.235zM28.996 54.998H10.838c-.231 0-.461-.008-.688-.023-1.965-.133-4.043-2.17-5.851-5.735-3.731-7.356-1.626-16.479 4.974-21.669l7.078-5.157a6.655 6.655 0 0 1 4.093-1.416h7.777c1.617 0 3.083.864 4.076 1.623l7.202 4.894a17.694 17.694 0 0 1 4.445 5.001c-1.266.261-2.49.659-3.331 1.243l-.069.048a3.26 3.26 0 0 0-.349.291c-.045.043-.085.087-.126.132a2.262 2.262 0 0 0-.217.269c-.052.077-.09.16-.13.242-.035.074-.077.145-.102.223a1.713 1.713 0 0 0-.089.534v9.089a7.848 7.848 0 0 0-1.044-.337l-.141-.036a7.912 7.912 0 0 0-1.072-.178c-.041-.004-.082-.003-.123-.006a7.942 7.942 0 0 0-.62-.031c-.11 0-.216.012-.325.016a8.058 8.058 0 0 0-1.305.151l-.02.003c-.027.006-.052.017-.079.023-.313.069-.618.16-.916.266-.108.038-.216.076-.322.118a7.93 7.93 0 0 0-.866.404c-.105.057-.203.123-.305.185a7.787 7.787 0 0 0-.568.379c-.108.079-.217.156-.321.24-.235.19-.459.393-.671.609-.093.094-.178.194-.266.293a7.93 7.93 0 0 0-.428.523c-.073.098-.15.191-.219.292a7.917 7.917 0 0 0-.478.804c-.056.108-.107.218-.159.329a7.848 7.848 0 0 0-.305.753c-.026.075-.058.146-.081.222a7.923 7.923 0 0 0-.238 1.012c-.008.044-.024.086-.031.13-.008.054-.008.112-.015.166a7.99 7.99 0 0 0-.063.714c-.004.086-.012.171-.013.258 0 .037-.006.073-.006.11 0 .159.015.314.024.47.039.864.18 1.732.441 2.529zm7.536 3a6.004 6.004 0 0 1-5.996-5.929c0-.078.002-.155.005-.233a5.95 5.95 0 0 1 .017-.328c.007-.092.018-.183.029-.274.012-.093.026-.185.042-.276.045-.26.103-.517.182-.766.008-.027.02-.052.029-.078.084-.251.185-.496.302-.733l.033-.068a6.168 6.168 0 0 1 2.421-2.541l.011-.007c.234-.133.48-.245.73-.345.065-.026.131-.049.196-.072.222-.079.448-.148.681-.199.032-.007.062-.018.094-.024.289-.059.579-.091.868-.108.055-.003.11-.007.166-.008.295-.009.589-.001.879.033l.049.008c.306.038.609.099.907.185l.013.003c.307.089.608.204.902.343.27.128.533.271.779.436l.04.028c.035.024.067.051.101.075.166.119.325.245.478.38.037.032.073.066.109.099.153.142.299.29.436.446l.042.046c.318.37.592.779.812 1.218.051.1.102.201.147.304.076.175.142.352.201.531l.014.039c.058.181.105.365.145.55l.011.043c.038.184.066.37.087.557l.008.049a6.007 6.007 0 0 1-.002 1.249c-.003.031-.01.06-.014.091a5.69 5.69 0 0 1-.088.538c-.004.02-.011.039-.015.059-.043.19-.094.378-.156.564l-.009.024a6.227 6.227 0 0 1-.228.574c-.949 2.071-3.036 3.517-5.458 3.517zm13-3c-1.898 0-3.787-.253-5.339-.706l.001-.006c.097-.324.168-.658.224-.998.013-.081.026-.161.037-.243.045-.344.077-.691.077-1.047 0-.259-.014-.516-.039-.771-.009-.092-.025-.181-.037-.272-.017-.129-.029-.259-.052-.386 1.517.28 3.279.429 5.128.429 2.39 0 5.845-.305 8.004-1.259l.006 3.188c-.256.619-3.291 2.071-8.01 2.071zm0-12c-4.703 0-7.731-1.441-7.995-1.994l.002-3.261c.025.011.055.02.081.031a9.59 9.59 0 0 0 .798.3c.272.088.559.167.852.24.096.024.195.046.293.068a17.787 17.787 0 0 0 .972.198c.243.043.487.081.734.117l.233.035c.323.043.646.081.967.112l.241.021a32.257 32.257 0 0 0 1.701.108l.271.01c.293.008.579.013.849.013.269 0 .555-.005.848-.013l.275-.01a31.277 31.277 0 0 0 1.702-.109l.238-.021c.322-.032.645-.069.968-.113l.236-.035c.246-.035.49-.074.732-.117.109-.019.215-.04.322-.06.221-.043.438-.089.653-.139.098-.023.196-.044.292-.068.299-.075.591-.155.868-.245l.04-.014c.261-.086.508-.181.743-.281.028-.012.061-.022.089-.034l.006 3.188c-.257.621-3.292 2.073-8.011 2.073z"/></symbol><symbol viewBox="-103.5 105.5 290 290" id="programm-round"><title>Ellipse (Stroke)</title><desc>Created using Figma</desc><path d="M39 105.5h5c.3 0 .5.2.5.5s-.2.5-.5.5h-5c-.3 0-.5-.2-.5-.5 0-.2.2-.5.5-.5zm-4.4.7c0 .3-.2.5-.5.5-1.6.1-3.3.2-4.9.3-.3 0-.5-.2-.5-.5s.2-.5.5-.5c1.6-.1 3.3-.3 4.9-.3.3 0 .5.2.5.5zm13.8 0c0-.3.2-.5.5-.5 1.7.1 3.3.2 4.9.3.3 0 .5.3.5.5 0 .3-.3.5-.5.5-1.6-.1-3.3-.2-4.9-.3-.3 0-.5-.3-.5-.5zm-23.6.8c0 .3-.2.5-.4.6-1.6.2-3.3.4-4.9.7-.3 0-.5-.1-.6-.4 0-.3.1-.5.4-.6 1.6-.2 3.3-.5 4.9-.7.3-.1.5.1.6.4zm33.4 0c0-.3.3-.5.6-.4 1.6.2 3.3.4 4.9.7.3 0 .5.3.4.6 0 .3-.3.5-.6.4-1.6-.2-3.2-.5-4.9-.7-.2-.1-.4-.4-.4-.6zM15 108.4c.1.3-.1.5-.4.6-1.6.3-3.2.6-4.8 1-.3.1-.5-.1-.6-.4-.1-.3.1-.5.4-.6 1.6-.4 3.2-.7 4.8-1 .3 0 .5.2.6.4zm53 0c.1-.3.3-.4.6-.4 1.6.3 3.2.6 4.8 1 .3.1.4.3.4.6-.1.3-.3.4-.6.4-1.6-.4-3.2-.7-4.8-1-.3 0-.4-.3-.4-.6zm-62.6 2.2c.1.3-.1.5-.4.6-1.6.4-3.2.9-4.7 1.3-.3.1-.5-.1-.6-.3-.1-.3.1-.5.3-.6 1.6-.5 3.2-.9 4.8-1.3.2-.2.5 0 .6.3zm72.2 0c.1-.3.3-.4.6-.4 1.6.4 3.2.9 4.8 1.3.3.1.4.4.3.6-.1.3-.4.4-.6.3-1.6-.5-3.1-.9-4.7-1.3-.3 0-.4-.3-.4-.5zm-81.7 2.7c.1.3-.1.5-.3.6-1.6.5-3.1 1.1-4.6 1.6-.3.1-.5 0-.6-.3-.1-.3 0-.5.3-.6 1.5-.6 3.1-1.1 4.7-1.7.1 0 .4.2.5.4zm91.2 0c.1-.3.4-.4.6-.3 1.6.5 3.1 1.1 4.7 1.7.3.1.4.4.3.6-.1.3-.4.4-.6.3-1.5-.6-3.1-1.1-4.6-1.6-.3-.1-.5-.4-.4-.7zm-100.5 3.5c.1.3 0 .5-.3.7-1.5.6-3 1.3-4.5 2-.3.1-.5 0-.7-.2-.1-.3 0-.5.2-.7 1.5-.7 3-1.3 4.5-2 .4-.2.7-.1.8.2zm109.8 0c.1-.3.4-.4.7-.3 1.5.6 3 1.3 4.5 2 .3.1.4.4.2.7-.1.3-.4.4-.7.2-1.5-.7-3-1.3-4.5-2-.2-.1-.4-.4-.2-.6zm-118.7 4c.1.2 0 .5-.2.7-1.5.7-2.9 1.5-4.4 2.3-.2.1-.5 0-.7-.2-.1-.2 0-.5.2-.7 1.4-.8 2.9-1.5 4.4-2.3.2-.1.5 0 .7.2zm127.6 0c.1-.2.4-.3.7-.2 1.5.7 2.9 1.5 4.4 2.3.2.1.3.4.2.7s-.4.3-.7.2c-1.4-.8-2.9-1.5-4.4-2.3-.2-.1-.3-.4-.2-.7zM-31 125.5c.1.2.1.5-.2.7-1.4.8-2.8 1.7-4.2 2.6-.2.1-.5.1-.7-.2-.1-.2-.1-.5.2-.7 1.4-.9 2.8-1.7 4.2-2.6.2-.1.5 0 .7.2zm145 0c.1-.2.4-.3.7-.2 1.4.8 2.8 1.7 4.2 2.6.2.1.3.5.2.7-.1.2-.5.3-.7.2-1.4-.9-2.8-1.7-4.2-2.6-.2-.2-.3-.5-.2-.7zm-153.4 5.2c.2.2.1.5-.1.7-1.4.9-2.7 1.9-4 2.8-.2.2-.5.1-.7-.1-.2-.2-.1-.5.1-.7 1.3-1 2.7-1.9 4-2.9.2 0 .5 0 .7.2zm161.8 0c.2-.2.5-.3.7-.1 1.4.9 2.7 1.9 4 2.9.2.2.3.5.1.7-.2.2-.5.3-.7.1-1.3-1-2.7-1.9-4-2.8-.2-.2-.3-.5-.1-.8zm-169.8 5.9c.2.2.1.5-.1.7-1.3 1-2.6 2-3.8 3.1-.2.2-.5.2-.7-.1-.2-.2-.2-.5.1-.7 1.3-1.1 2.5-2.1 3.8-3.1.2-.2.6-.2.7.1zm177.8 0c.2-.2.5-.3.7-.1 1.3 1 2.6 2.1 3.8 3.1.2.2.2.5.1.7-.2.2-.5.2-.7.1-1.3-1.1-2.5-2.1-3.8-3.1-.3-.2-.3-.5-.1-.7zm-185.3 6.3c.2.2.2.5 0 .7-1.2 1.1-2.4 2.2-3.6 3.4-.2.2-.5.2-.7 0-.2-.2-.2-.5 0-.7 1.2-1.1 2.4-2.3 3.6-3.4.2-.2.5-.2.7 0zm192.8 0c.2-.2.5-.2.7 0 1.2 1.1 2.4 2.2 3.6 3.4.2.2.2.5 0 .7-.2.2-.5.2-.7 0-1.2-1.1-2.4-2.3-3.6-3.4-.1-.2-.1-.5 0-.7zm-200 6.8c.2.2.2.5 0 .7-1.1 1.2-2.3 2.4-3.4 3.6-.2.2-.5.2-.7 0-.2-.2-.2-.5 0-.7 1.1-1.2 2.2-2.4 3.4-3.6.2-.2.5-.2.7 0zm207.2 0c.2-.2.5-.2.7 0 1.1 1.2 2.3 2.4 3.4 3.6.2.2.2.5 0 .7-.2.2-.5.2-.7 0-1.1-1.2-2.2-2.4-3.4-3.6-.2-.2-.2-.5 0-.7zM-68.7 157c.2.2.2.5.1.7-1.1 1.3-2.1 2.5-3.1 3.8-.2.2-.5.3-.7.1-.2-.2-.3-.5-.1-.7 1-1.3 2.1-2.6 3.1-3.8.2-.2.5-.3.7-.1zm220.4 0c.2-.2.5-.2.7.1 1.1 1.3 2.1 2.5 3.1 3.8.2.2.1.5-.1.7-.2.2-.5.1-.7-.1-1-1.3-2-2.6-3.1-3.8-.1-.2-.1-.5.1-.7zm-226.5 7.8c.2.2.3.5.1.7-1 1.3-1.9 2.7-2.8 4-.2.2-.5.3-.7.1-.2-.2-.3-.5-.1-.7.9-1.4 1.9-2.7 2.9-4 0-.3.4-.3.6-.1zm232.6 0c.2-.2.5-.1.7.1 1 1.3 1.9 2.7 2.9 4 .2.2.1.5-.1.7-.2.2-.5.1-.7-.1-.9-1.4-1.9-2.7-2.8-4-.2-.3-.2-.6 0-.7zm-238.2 8.1c.2.1.3.5.2.7-.9 1.4-1.7 2.8-2.6 4.2-.1.2-.4.3-.7.2-.2-.1-.3-.4-.2-.7.8-1.4 1.7-2.8 2.6-4.2.1-.3.5-.4.7-.2zm243.8 0c.2-.1.5-.1.7.2.9 1.4 1.7 2.8 2.6 4.2.1.2.1.5-.2.7-.2.1-.5.1-.7-.2-.8-1.4-1.7-2.8-2.6-4.2-.1-.3 0-.6.2-.7zm-248.8 8.5c.2.1.3.4.2.7-.8 1.4-1.5 2.9-2.3 4.4-.1.2-.4.3-.7.2-.2-.1-.3-.4-.2-.7.7-1.5 1.5-2.9 2.3-4.4.1-.3.4-.3.7-.2zm253.8 0c.2-.1.5 0 .7.2.8 1.4 1.5 2.9 2.3 4.4.1.2 0 .5-.2.7-.2.1-.5 0-.7-.2-.7-1.5-1.5-2.9-2.3-4.4-.1-.3 0-.6.2-.7zm-258.3 8.8c.3.1.4.4.2.7-.7 1.5-1.3 3-2 4.5-.1.3-.4.4-.7.3-.3-.1-.4-.4-.3-.7.6-1.5 1.3-3 2-4.5.3-.3.6-.4.8-.3zm262.8 0c.3-.1.5 0 .7.2.7 1.5 1.3 3 2 4.5.1.3 0 .5-.3.7-.3.1-.5 0-.7-.3-.6-1.5-1.3-3-2-4.5-.1-.2 0-.5.3-.6zm-266.6 9.1c.3.1.4.4.3.6-.6 1.5-1.1 3.1-1.6 4.6-.1.3-.4.4-.6.3-.3-.1-.4-.4-.3-.6.5-1.6 1.1-3.1 1.7-4.7 0-.2.3-.3.5-.2zm270.4 0c.3-.1.5 0 .6.3.6 1.5 1.1 3.1 1.7 4.7.1.3-.1.5-.3.6-.3.1-.5-.1-.6-.3-.5-1.6-1.1-3.1-1.6-4.6-.2-.3-.1-.6.2-.7zm-273.5 9.4c.3.1.4.4.3.6-.5 1.6-.9 3.1-1.3 4.7-.1.3-.3.4-.6.4-.3-.1-.4-.3-.4-.6.4-1.6.9-3.2 1.3-4.8.1-.3.4-.4.7-.3zm276.7 0c.3-.1.5.1.6.3.5 1.6.9 3.2 1.3 4.8.1.3-.1.5-.4.6-.3.1-.5-.1-.6-.4-.4-1.6-.9-3.2-1.3-4.7-.1-.3.1-.6.4-.6zm-279.3 9.5c.3.1.4.3.4.6-.4 1.6-.7 3.2-1 4.8-.1.3-.3.4-.6.4-.3-.1-.4-.3-.4-.6.3-1.6.6-3.2 1-4.9.1-.2.4-.4.6-.3zm281.8 0c.3-.1.5.1.6.4.4 1.6.7 3.2 1 4.9.1.3-.1.5-.4.6-.3.1-.5-.1-.6-.4-.3-1.6-.6-3.2-1-4.8-.1-.4.1-.7.4-.7zm-283.6 9.7c.3 0 .5.3.4.6-.2 1.6-.5 3.2-.7 4.9 0 .3-.3.5-.6.4-.3 0-.5-.3-.4-.6.2-1.6.4-3.3.7-4.9 0-.3.3-.5.6-.4zm285.4 0c.3 0 .5.1.6.4.3 1.6.5 3.3.7 4.9 0 .3-.2.5-.4.6-.3 0-.5-.2-.6-.4-.2-1.6-.4-3.3-.7-4.9 0-.3.2-.6.4-.6zm-286.6 9.8c.3 0 .5.3.5.5-.1 1.6-.2 3.3-.3 4.9 0 .3-.2.5-.5.5s-.5-.2-.5-.5c.1-1.7.2-3.3.3-4.9-.1-.3.2-.6.5-.5zm287.8 0c.3 0 .5.2.5.5.1 1.6.3 3.3.3 4.9 0 .3-.2.5-.5.5s-.5-.2-.5-.5c-.1-1.6-.2-3.3-.3-4.9.1-.3.3-.5.5-.5zm-288.4 9.8c.3 0 .5.2.5.5v5c0 .3-.2.5-.5.5s-.5-.2-.5-.5v-5c0-.3.3-.5.5-.5zm289 0c.3 0 .5.2.5.5v5c0 .3-.2.5-.5.5s-.5-.2-.5-.5v-5c0-.2.2-.5.5-.5zm-288.8 9.9c.3 0 .5.2.5.5.1 1.6.2 3.3.3 4.9 0 .3-.2.5-.5.5s-.5-.2-.5-.5c-.1-1.6-.3-3.3-.3-4.9 0-.3.2-.5.5-.5zm288.6 0c.3 0 .5.2.5.5-.1 1.7-.2 3.3-.3 4.9 0 .3-.3.5-.5.5-.3 0-.5-.3-.5-.5.1-1.6.2-3.3.3-4.9 0-.3.3-.5.5-.5zm-287.8 9.8c.3 0 .5.2.6.4.2 1.6.4 3.3.7 4.9 0 .3-.1.5-.4.6-.3 0-.5-.1-.6-.4-.2-1.6-.5-3.3-.7-4.9-.1-.3.1-.5.4-.6zm287 0c.3 0 .5.3.4.6-.2 1.6-.4 3.3-.7 4.9 0 .3-.3.5-.6.4-.3 0-.5-.3-.4-.6.2-1.6.5-3.2.7-4.9.1-.2.4-.4.6-.4zm-285.6 9.8c.3-.1.5.1.6.4.3 1.6.6 3.2 1 4.8.1.3-.1.5-.4.6-.3.1-.5-.1-.6-.4-.4-1.6-.7-3.2-1-4.8 0-.3.2-.5.4-.6zm284.2 0c.3.1.4.3.4.6-.3 1.6-.6 3.2-1 4.8-.1.3-.3.4-.6.4-.3-.1-.4-.3-.4-.6.4-1.6.7-3.2 1-4.8 0-.3.3-.4.6-.4zm-282 9.6c.3-.1.5.1.6.4.4 1.6.9 3.2 1.3 4.7.1.3-.1.5-.3.6-.3.1-.5-.1-.6-.3-.5-1.6-.9-3.2-1.3-4.8-.2-.2 0-.5.3-.6zm279.8 0c.3.1.4.3.4.6-.4 1.6-.9 3.2-1.3 4.8-.1.3-.4.4-.6.3-.3-.1-.4-.4-.3-.6.5-1.6.9-3.1 1.3-4.7 0-.3.3-.4.5-.4zm-277.1 9.5c.3-.1.5.1.6.3.5 1.6 1.1 3.1 1.6 4.6.1.3 0 .5-.3.6-.3.1-.5 0-.6-.3-.6-1.5-1.1-3.1-1.7-4.7 0-.1.2-.4.4-.5zm274.4 0c.3.1.4.4.3.6-.5 1.6-1.1 3.1-1.7 4.7-.1.3-.4.4-.6.3-.3-.1-.4-.4-.3-.6.6-1.5 1.1-3.1 1.6-4.6.1-.3.4-.5.7-.4zm-270.9 9.3c.3-.1.5 0 .7.3.6 1.5 1.3 3 2 4.5.1.3 0 .5-.2.7-.3.1-.5 0-.7-.2-.7-1.5-1.3-3-2-4.5-.2-.4-.1-.7.2-.8zm267.4 0c.3.1.4.4.3.7-.6 1.5-1.3 3-2 4.5-.1.3-.4.4-.7.2-.3-.1-.4-.4-.2-.7.7-1.5 1.3-3 2-4.5.1-.2.4-.4.6-.2zm-263.4 8.9c.2-.1.5 0 .7.2.7 1.5 1.5 2.9 2.3 4.4.1.2 0 .5-.2.7-.2.1-.5 0-.7-.2-.8-1.4-1.5-2.9-2.3-4.4-.1-.2 0-.5.2-.7zm259.4 0c.2.1.3.4.2.7-.7 1.5-1.5 2.9-2.3 4.4-.1.2-.4.3-.7.2-.2-.1-.3-.4-.2-.7.8-1.4 1.5-2.9 2.3-4.4.1-.2.4-.3.7-.2zM-83.5 323c.2-.1.5-.1.7.2.8 1.4 1.7 2.8 2.6 4.2.1.2.1.5-.2.7-.2.1-.5.1-.7-.2-.9-1.4-1.7-2.8-2.6-4.2-.1-.2 0-.5.2-.7zm250 0c.2.1.3.4.2.7-.8 1.4-1.7 2.8-2.6 4.2-.1.2-.5.3-.7.2-.2-.1-.3-.5-.2-.7.9-1.4 1.7-2.8 2.6-4.2.2-.2.5-.3.7-.2zm-244.8 8.4c.2-.2.5-.1.7.1.9 1.4 1.9 2.7 2.8 4 .2.2.1.5-.1.7-.2.2-.5.1-.7-.1-1-1.3-1.9-2.7-2.9-4 0-.2 0-.5.2-.7zm239.6 0c.2.2.3.5.1.7-.9 1.4-1.9 2.7-2.9 4-.2.2-.5.3-.7.1-.2-.2-.3-.5-.1-.7 1-1.3 1.9-2.7 2.8-4 .2-.2.5-.3.8-.1zm-233.7 8c.2-.2.5-.1.7.1 1 1.3 2 2.6 3.1 3.8.2.2.2.5-.1.7-.2.2-.5.2-.7-.1-1.1-1.3-2.1-2.5-3.1-3.8-.2-.2-.2-.6.1-.7zm227.8 0c.2.2.3.5.1.7-1 1.3-2.1 2.6-3.1 3.8-.2.2-.5.2-.7.1-.2-.2-.2-.5-.1-.7 1.1-1.3 2.1-2.5 3.1-3.8.2-.3.5-.3.7-.1zm-221.5 7.5c.2-.2.5-.2.7 0 1.1 1.2 2.2 2.4 3.4 3.6.2.2.2.5 0 .7-.2.2-.5.2-.7 0-1.1-1.2-2.3-2.4-3.4-3.6-.2-.2-.2-.5 0-.7zm215.2 0c.2.2.2.5 0 .7-1.1 1.2-2.2 2.4-3.4 3.6-.2.2-.5.2-.7 0-.2-.2-.2-.5 0-.7 1.1-1.2 2.3-2.4 3.4-3.6.2-.1.5-.1.7 0zm-208.4 7.2c.2-.2.5-.2.7 0 1.2 1.1 2.4 2.3 3.6 3.4.2.2.2.5 0 .7-.2.2-.5.2-.7 0-1.2-1.1-2.4-2.2-3.6-3.4-.2-.2-.2-.5 0-.7zm201.6 0c.2.2.2.5 0 .7-1.2 1.1-2.4 2.3-3.6 3.4-.2.2-.5.2-.7 0-.2-.2-.2-.5 0-.7 1.2-1.1 2.4-2.2 3.6-3.4.2-.2.5-.2.7 0zM-52 360.7c.2-.2.5-.2.7-.1 1.3 1.1 2.5 2.1 3.8 3.1.2.2.3.5.1.7-.2.2-.5.3-.7.1-1.3-1-2.6-2.1-3.8-3.1-.2-.2-.3-.5-.1-.7zm187 0c.2.2.2.5-.1.7-1.3 1.1-2.5 2.1-3.8 3.1-.2.2-.5.1-.7-.1-.2-.2-.1-.5.1-.7 1.3-1 2.6-2 3.8-3.1.2-.1.5-.1.7.1zm-179.2 6.1c.2-.2.5-.3.7-.1 1.3 1 2.7 1.9 4 2.8.2.2.3.5.1.7-.2.2-.5.3-.7.1-1.4-.9-2.7-1.9-4-2.9-.3 0-.3-.4-.1-.6zm171.4 0c.2.2.1.5-.1.7-1.3 1-2.7 1.9-4 2.9-.2.2-.5.1-.7-.1-.2-.2-.1-.5.1-.7 1.4-.9 2.7-1.9 4-2.8.3-.2.6-.2.7 0zm-163.3 5.6c.1-.2.5-.3.7-.2 1.4.9 2.8 1.7 4.2 2.6.2.1.3.4.2.7-.1.2-.4.3-.7.2-1.4-.8-2.8-1.7-4.2-2.6-.3-.1-.4-.5-.2-.7zm155.2 0c.1.2.1.5-.2.7-1.4.9-2.8 1.7-4.2 2.6-.2.1-.5.1-.7-.2-.1-.2-.1-.5.2-.7 1.4-.8 2.8-1.7 4.2-2.6.3-.1.6 0 .7.2zm-146.7 5c.1-.2.4-.3.7-.2 1.4.8 2.9 1.5 4.4 2.3.2.1.3.4.2.7-.1.2-.4.3-.7.2-1.5-.7-2.9-1.5-4.4-2.3-.3-.1-.3-.4-.2-.7zm138.2 0c.1.2 0 .5-.2.7-1.4.8-2.9 1.5-4.4 2.3-.2.1-.5 0-.7-.2-.1-.2 0-.5.2-.7 1.5-.7 2.9-1.5 4.4-2.3.3-.1.6 0 .7.2zm-129.4 4.5c.1-.3.4-.4.7-.2 1.5.7 3 1.3 4.5 2 .3.1.4.4.3.7-.1.3-.4.4-.7.3-1.5-.6-3-1.3-4.5-2-.3-.3-.4-.6-.3-.8zm120.6 0c.1.3 0 .5-.2.7-1.5.7-3 1.3-4.5 2-.3.1-.5 0-.7-.3-.1-.3 0-.5.3-.7 1.5-.6 3-1.3 4.5-2 .2-.1.5 0 .6.3zm-111.5 3.8c.1-.3.4-.4.6-.3 1.5.6 3.1 1.1 4.6 1.6.3.1.4.4.3.6-.1.3-.4.4-.6.3-1.6-.5-3.1-1.1-4.7-1.7-.2 0-.3-.3-.2-.5zm102.4 0c.1.3 0 .5-.3.6-1.5.6-3.1 1.1-4.7 1.7-.3.1-.5-.1-.6-.3-.1-.3.1-.5.3-.6 1.6-.5 3.1-1.1 4.6-1.6.3-.2.6-.1.7.2zm-93 3.2c.1-.3.4-.4.6-.3 1.6.5 3.1.9 4.7 1.3.3.1.4.3.4.6-.1.3-.3.4-.6.4-1.6-.4-3.2-.9-4.8-1.3-.3-.2-.4-.5-.3-.7zm83.6 0c.1.3-.1.5-.3.6-1.6.5-3.2.9-4.8 1.3-.3.1-.5-.1-.6-.4-.1-.3.1-.5.4-.6 1.6-.4 3.2-.9 4.7-1.3.3-.1.6.1.6.4zm-74.1 2.5c.1-.3.3-.4.6-.4 1.6.4 3.2.7 4.8 1 .3.1.4.3.4.6-.1.3-.3.4-.6.4-1.6-.3-3.2-.6-4.8-1-.3-.1-.5-.4-.4-.6zm64.6 0c.1.3-.1.5-.4.6-1.6.4-3.2.7-4.8 1-.3.1-.5-.1-.6-.4-.1-.3.1-.5.4-.6 1.6-.3 3.2-.6 4.8-1 .3-.1.6.1.6.4zm-54.9 1.8c0-.3.3-.5.6-.4 1.6.2 3.2.5 4.9.7.3 0 .5.3.4.6 0 .3-.3.5-.6.4-1.6-.2-3.3-.4-4.9-.7-.3 0-.5-.3-.4-.6zm45.2 0c0 .3-.1.5-.4.6-1.6.3-3.3.5-4.9.7-.3 0-.5-.2-.6-.4 0-.3.2-.5.4-.6 1.6-.2 3.3-.4 4.9-.7.3 0 .6.2.6.4zm-35.4 1.2c0-.3.3-.5.5-.5 1.6.1 3.3.2 4.9.3.3 0 .5.2.5.5s-.2.5-.5.5c-1.7-.1-3.3-.2-4.9-.3-.3.1-.6-.2-.5-.5zm25.6 0c0 .3-.2.5-.5.5-1.6.1-3.3.3-4.9.3-.3 0-.5-.2-.5-.5s.2-.5.5-.5c1.6-.1 3.3-.2 4.9-.3.3.1.5.3.5.5zm-15.8.6c0-.3.2-.5.5-.5h5c.3 0 .5.2.5.5s-.2.5-.5.5h-5c-.3 0-.5-.3-.5-.5z"/></symbol><symbol viewBox="0 0 512.001 512.001" id="programm-sun"><path d="M313.276 104.185c-40.552-15.298-84.633-13.89-124.127 3.965-39.495 17.856-69.67 50.025-84.969 90.578-15.299 40.549-13.89 84.63 3.968 124.121 17.857 39.49 50.025 69.664 90.575 84.964 18.803 7.094 38.104 10.453 57.105 10.453 65.595 0 127.502-40.08 151.991-104.986 31.579-83.711-10.833-177.511-94.543-209.095zm75.703 201.988c-27.665 73.321-109.826 110.465-183.148 82.802-35.518-13.401-63.694-39.83-79.336-74.42-15.642-34.59-16.877-73.2-3.476-108.718 13.4-35.521 39.831-63.698 74.424-79.339 18.698-8.454 38.568-12.699 58.491-12.699 16.936 0 33.911 3.068 50.232 9.225 73.324 27.665 110.474 109.825 82.813 183.149z"/><path d="M354.151 181.791c-3.349-4.438-9.661-5.323-14.101-1.97-4.437 3.35-5.319 9.663-1.969 14.101 16.778 22.226 23.923 50.667 19.601 78.033-.867 5.493 2.882 10.648 8.374 11.516.532.084 1.061.125 1.583.125 4.868 0 9.149-3.539 9.932-8.498 5.169-32.736-3.368-66.744-23.42-93.307z"/><path d="M507.09 247.362l-31.462-18.797c-20.373-12.171-27.271-37.932-15.701-58.649l17.859-32.016a10.067 10.067 0 0 0-8.655-14.972l-36.586-.503c-23.764-.33-42.64-19.208-42.97-42.979l-.503-36.576a10.066 10.066 0 0 0-14.972-8.654L342.084 52.08c-20.717 11.568-46.474 4.668-58.645-15.703L264.642 4.905a10.07 10.07 0 0 0-17.286.001L228.56 36.377c-12.171 20.372-37.932 27.27-58.646 15.703l-32.016-17.87a10.066 10.066 0 0 0-14.974 8.654l-.503 36.59c-.321 23.768-19.195 42.645-42.969 42.976l-36.587.503a10.066 10.066 0 0 0-8.654 14.972l17.862 32.019c11.567 20.715 4.669 46.474-15.704 58.645l-31.46 18.795a10.065 10.065 0 0 0 .002 17.286l31.461 18.786c20.371 12.17 27.269 37.935 15.702 58.657l-17.86 32.006a10.067 10.067 0 0 0 8.654 14.973l36.586.503c23.774.33 42.648 19.207 42.97 42.979l.503 36.587a10.067 10.067 0 0 0 14.974 8.654l32.015-17.87c20.717-11.559 46.477-4.658 58.647 15.712l18.797 31.462a10.066 10.066 0 0 0 17.285 0l18.797-31.462c12.169-20.371 37.932-27.273 58.646-15.713l32.016 17.87a10.067 10.067 0 0 0 14.974-8.653l.503-36.586c.33-23.771 19.204-42.649 42.969-42.98l36.587-.503a10.069 10.069 0 0 0 8.654-14.973l-17.86-32.008c-11.567-20.721-4.669-46.485 15.701-58.654l31.462-18.787a10.068 10.068 0 0 0 4.906-8.643 10.089 10.089 0 0 0-4.91-8.645zm-41.79 18.786c-14.307 8.548-24.562 22.121-28.872 38.219-4.311 16.1-2.21 32.982 5.914 47.536l9.634 17.264-19.709.272c-16.683.232-32.37 6.859-44.17 18.661-11.797 11.802-18.422 27.489-18.654 44.174l-.272 19.706-17.274-9.643c-14.551-8.12-31.433-10.218-47.528-5.904-16.098 4.312-29.67 14.566-38.218 28.873l-10.153 16.996-10.153-16.996c-8.547-14.306-22.12-24.56-38.217-28.873a63.961 63.961 0 0 0-16.564-2.191c-10.739 0-21.36 2.735-30.966 8.096l-17.274 9.642-.272-19.703c-.226-16.684-6.849-32.373-18.651-44.177-11.801-11.802-27.488-18.429-44.174-18.661l-19.708-.272 9.634-17.263c8.124-14.555 10.225-31.437 5.914-47.537-4.311-16.098-14.564-29.672-28.874-38.221l-16.989-10.145 16.991-10.151c14.307-8.548 24.562-22.12 28.873-38.217 4.311-16.099 2.21-32.979-5.913-47.527l-9.638-17.275 19.711-.272c16.686-.232 32.373-6.857 44.173-18.657 11.802-11.803 18.426-27.492 18.651-44.179l.272-19.706 17.272 9.641c14.55 8.126 31.43 10.226 47.529 5.915 16.097-4.311 29.671-14.564 38.219-28.874l10.152-17L266.151 46.7c8.548 14.307 22.121 24.562 38.219 28.873 16.098 4.309 32.978 2.211 47.526-5.913l17.275-9.638.272 19.701c.231 16.688 6.857 32.377 18.655 44.177s27.484 18.425 44.17 18.657l19.71.272-9.634 17.271c-8.126 14.551-10.227 31.431-5.916 47.53 4.31 16.097 14.564 29.67 28.872 38.218l16.992 10.151-16.992 10.149z"/><circle cx="318.938" cy="164.368" r="10.068"/></symbol><symbol viewBox="6 -6 512 512" id="programm-sun-snow"><path d="M38.1 257.7c4.2 0 7.7-3.5 7.7-7.7 0-113.4 90.2-208.4 202.6-215.2l-10.9 10.9c-3 3-3 7.9 0 10.9 1.5 1.5 3.4 2.3 5.4 2.3 2.1 0 4-.8 5.4-2.3l24.3-24.3c1.5-1.5 2.3-3.4 2.3-5.4s-.8-4-2.3-5.4L248.2-3.2c-3-3-7.9-3-10.9 0-1.5 1.5-2.3 3.4-2.3 5.4 0 2.1.8 4 2.3 5.4l11.6 11.6C192 22.2 138.6 46 98.1 86.5 54.5 130.3 30.4 188.3 30.4 250c0 4.2 3.5 7.7 7.7 7.7zm476.1-145.4l-14.9-8.9c-8.3-5-11.1-15.4-6.4-23.9l8.5-15.2c1.3-2.4 1.3-5.3-.1-7.6-1.4-2.3-3.9-3.8-6.6-3.9l-17.4-.2c-9.7-.1-17.3-7.8-17.5-17.5l-.2-17.4c0-2.7-1.5-5.2-3.9-6.6-2.3-1.4-5.3-1.4-7.6-.1l-15.2 8.5c-8.4 4.7-18.9 1.9-23.9-6.4l-8.9-14.9c-1.4-2.3-3.9-3.8-6.6-3.8s-5.3 1.4-6.6 3.8l-8.9 15c-4.9 8.3-15.4 11.1-23.9 6.4l-15.2-8.5c-2.4-1.3-5.3-1.3-7.6.1-2.3 1.4-3.8 3.9-3.9 6.6l-.2 17.4c-.1 9.7-7.8 17.3-17.5 17.5l-17.4.2c-2.7 0-5.2 1.5-6.6 3.9-1.4 2.3-1.4 5.3-.1 7.6l8.5 15.2c4.7 8.4 1.9 18.9-6.4 23.9l-14.9 8.9c-2.3 1.4-3.8 3.9-3.8 6.6 0 2.7 1.4 5.3 3.8 6.6l14.9 8.9c8.3 5 11.1 15.4 6.4 23.9l-8.5 15.2c-1.3 2.4-1.3 5.3.1 7.6 1.4 2.3 3.9 3.8 6.6 3.9l17.4.2c9.7.1 17.3 7.8 17.5 17.5l.2 17.4c0 2.7 1.5 5.2 3.9 6.6 2.3 1.4 5.3 1.4 7.6.1l15.2-8.5c8.4-4.7 18.9-1.9 23.9 6.4l8.9 14.9c1.4 2.3 3.9 3.8 6.6 3.8 2.7 0 5.3-1.4 6.6-3.8l8.9-14.9c5-8.3 15.4-11.1 23.9-6.4l15.2 8.5c2.4 1.3 5.3 1.3 7.6-.1 2.3-1.4 3.8-3.9 3.9-6.6l.2-17.4c.1-9.7 7.8-17.3 17.5-17.5l17.4-.2c2.7 0 5.2-1.5 6.6-3.9 1.4-2.3 1.4-5.3.1-7.6l-8.5-15.2c-4.7-8.4-1.9-18.9 6.4-23.9l14.9-8.9c2.3-1.4 3.8-3.9 3.8-6.6 0-2.7-1.4-5.3-3.8-6.7zm-37.9 28.9c-2.2 8.4-1.2 17.2 3.1 24.8l2.2 3.9-4.4.1c-8.7.1-16.9 3.6-23 9.7-6.1 6.2-9.6 14.3-9.7 23l-.1 4.4-3.9-2.2c-7.6-4.2-16.4-5.3-24.8-3.1-8.4 2.2-15.5 7.6-19.9 15l-2.3 3.8-2.3-3.8c-4.5-7.5-11.5-12.8-19.9-15-2.8-.8-5.7-1.1-8.6-1.1-5.6 0-11.2 1.5-16.1 4.2l-3.9 2.2-.1-4.4c-.1-8.7-3.6-16.9-9.7-23-6.1-6.1-14.3-9.6-23-9.7l-4.4-.1 2.2-3.9c4.2-7.6 5.3-16.4 3.1-24.8-2.2-8.4-7.6-15.5-15-19.9L292 119l3.8-2.3c7.5-4.5 12.8-11.5 15-19.9 2.2-8.4 1.2-17.2-3.1-24.8l-2.2-3.9 4.4-.1c8.7-.1 16.9-3.6 23-9.7 6.2-6.2 9.6-14.3 9.7-23l.1-4.4 3.9 2.2c7.6 4.2 16.4 5.3 24.8 3.1 8.4-2.2 15.5-7.6 19.9-15l2.3-3.8 2.3 3.8c4.5 7.5 11.5 12.8 19.9 15 8.4 2.2 17.2 1.2 24.8-3.1l3.9-2.2.1 4.4c.1 8.7 3.6 16.9 9.7 23 6.1 6.1 14.3 9.6 23 9.7l4.4.1-2.2 3.9c-4.2 7.6-5.3 16.4-3.1 24.8 2.2 8.4 7.6 15.5 15 19.9l3.8 2.3-3.8 2.3c-7.5 4.4-12.8 11.5-15.1 19.9z"/><path d="M421.8 44.2c-20-7.5-41.7-6.8-61.2 2s-34.3 24.7-41.9 44.6c-7.5 20-6.8 41.7 2 61.2s24.7 34.3 44.6 41.9c9.1 3.4 18.5 5.2 28.1 5.2 33.1 0 63.2-20.8 74.9-51.7 15.6-41.4-5.3-87.7-46.5-103.2zm32.1 97.5c-12.6 33.3-49.8 50.1-83.1 37.6-16.1-6.1-28.9-18.1-36-33.8-7.1-15.7-7.7-33.2-1.6-49.3 6.1-16.1 18.1-28.9 33.8-36 8.5-3.8 17.4-5.8 26.5-5.8 7.8 0 15.4 1.4 22.8 4.2 33.3 12.6 50.1 49.9 37.6 83.1z"/><path d="M431.6 80.5c-3.4 2.6-4.1 7.4-1.5 10.8 7.5 9.9 10.7 22.6 8.7 34.8-.7 4.2 2.2 8.2 6.4 8.8.4.1.8.1 1.2.1 3.8 0 7-2.7 7.6-6.5 2.6-16.3-1.7-33.3-11.7-46.5-1.2-1.6-3.1-2.7-5.1-3-1.9-.3-3.9.2-5.6 1.5zm53.2 161.8c-4.2 0-7.7 3.5-7.7 7.7 0 114.6-87.7 207.7-201.1 215.1l10.8-10.8c3-3 3-7.9 0-10.9-1.5-1.5-3.4-2.3-5.4-2.3-2.1 0-4 .8-5.4 2.3L251.4 468c-1.5 1.5-2.3 3.4-2.3 5.4 0 2.1.8 4 2.3 5.4l24.3 24.3c1.5 1.5 3.4 2.3 5.4 2.3 2.1 0 4-.8 5.4-2.3 3-3 3-7.9 0-10.9l-11.7-11.7c56.6-3.2 109.6-27 149.9-67.3 43.6-43.6 67.7-101.7 67.7-163.4.2-4-3.3-7.5-7.6-7.5zM431.1 75.5c0-4.3-3.5-7.7-7.7-7.7s-7.7 3.5-7.7 7.7c0 4.3 3.5 7.7 7.7 7.7s7.7-3.4 7.7-7.7zM253.4 394c0-4.2-3.5-7.7-7.7-7.7h-12.9l9.2-9.2c1.5-1.5 2.3-3.4 2.3-5.4 0-2.1-.8-4-2.3-5.4-3-3-7.9-3-10.9 0L211 386.4h-18.9l9.4-27.1c1.4-4-.7-8.4-4.7-9.8-1.9-.7-4-.6-5.9.3-1.1.5-2 1.3-2.8 2.3-.9-3.2-3.7-5.5-7.2-5.5-2.2 0-4.1.8-5.4 2.2-.2-.5-.4-.9-.7-1.4-1.2-1.7-2.9-2.9-4.9-3.2l-2.3-.4 9.4-16.3 27.5-7.4c4.1-1.1 6.5-5.3 5.4-9.4-.5-2-1.8-3.6-3.6-4.7-1.8-1-3.9-1.3-5.8-.8l-12.6 3.4 6.4-11.1c2.1-3.7.9-8.4-2.8-10.5-3.7-2.1-8.4-.9-10.5 2.8l-6.4 11.1-3.4-12.6c-.5-2-1.8-3.6-3.6-4.7-1.8-1-3.9-1.3-5.8-.8-2 .5-3.6 1.8-4.7 3.6-1 1.8-1.3 3.9-.8 5.8l7.4 27.5-9.4 16.3-18.8-21.7c-1.5-1.7-3.6-2.7-5.8-2.7-2.2 0-4.4 1-5.8 2.7L105.1 336l-9.4-16.3 7.4-27.5c.5-2 .3-4.1-.8-5.8-1-1.8-2.7-3.1-4.7-3.6s-4.1-.3-5.8.8c-1.8 1-3.1 2.7-3.6 4.7l-3.4 12.6-6.4-11.1c-2.1-3.7-6.8-4.9-10.5-2.8-3.7 2.1-4.9 6.8-2.8 10.5l6.4 11.1-12.6-3.4c-2-.5-4.1-.3-5.8.8-1.8 1-3.1 2.7-3.6 4.7s-.3 4.1.8 5.8c1 1.8 2.7 3.1 4.7 3.6l27.5 7.4 9.4 16.3-28.2 5.4c-2.2.4-4.1 1.8-5.2 3.7-1.1 1.9-1.3 4.3-.6 6.4l9.4 27.1h-19l-20.1-20.1c-3-3-7.9-3-10.9 0s-3 7.9 0 10.9l9.2 9.2H13.7c-4.2 0-7.7 3.5-7.7 7.7s3.5 7.7 7.7 7.7h12.9l-9.2 9.2c-3 3-3 7.9 0 10.9 1.5 1.5 3.4 2.3 5.4 2.3 2.1 0 4-.8 5.4-2.3l20.1-20.1h18.9l-9.4 27.1c-.7 2.1-.5 4.4.6 6.4 1.1 1.9 3 3.3 5.2 3.7l28.2 5.4-9.4 16.3-27.5 7.3c-4.1 1.1-6.5 5.3-5.4 9.4 1.1 4.1 5.3 6.5 9.4 5.4l12.6-3.4-6.4 11.1c-2.1 3.7-.9 8.4 2.8 10.5 1.2.7 2.5 1 3.8 1 2.7 0 5.3-1.5 6.7-3.8l6.4-11.1 3.4 12.6c.9 3.4 4 5.7 7.4 5.7.7 0 1.3-.1 2-.3 4.1-1.1 6.5-5.3 5.4-9.4l-7.4-27.5 9.4-16.3 18.8 21.7c1.5 1.7 3.6 2.7 5.8 2.7 2.2 0 4.4-1 5.8-2.7l18.8-21.7 9.4 16.3-7.4 27.5c-.5 2-.3 4.1.8 5.8 1 1.8 2.7 3.1 4.7 3.6.7.2 1.3.3 2 .3 3.5 0 6.5-2.3 7.4-5.7l3.4-12.6 6.4 11.1c1.4 2.4 3.9 3.9 6.7 3.9 1.3 0 2.7-.4 3.8-1 1.8-1 3.1-2.7 3.6-4.7s.3-4.1-.8-5.8l-6.4-11.1 12.6 3.4c2 .5 4.1.3 5.8-.8 1.8-1 3.1-2.7 3.6-4.7s.3-4.1-.8-5.8c-1-1.8-2.7-3.1-4.7-3.6l-27.5-7.4-9.4-16.3 28.2-5.4c2.2-.4 4.1-1.8 5.2-3.7 1.1-1.9 1.3-4.3.6-6.4l-9.4-27.1h18.9l20.1 20.1c1.5 1.5 3.4 2.3 5.4 2.3 2.1 0 4-.8 5.4-2.3 1.5-1.5 2.3-3.4 2.3-5.4 0-2.1-.8-4-2.3-5.4l-9.2-9.2h12.9c4.5-.1 7.9-3.6 7.9-7.8zm-93.9 36.2L143 401.7h33l8.2 23.8-24.7 4.7zm-13.3 7.7l-16.5 19-16.5-19 16.5-28.5 16.5 28.5zm-32.9-87.8l16.5-19 16.5 19-16.5 28.5-16.5-28.5zm-38.1 75.3l8.2-23.8h32.9l-16.5 28.5-24.6-4.7zm24.7-67.6l16.5 28.5H83.5l-8.2-23.8 24.6-4.7zm74.1-.7c1.1 2.9 3.7 4.8 7 4.8 1.4 0 2.6-.3 3.7-.9l-8.8 25.3H143l16.5-28.5 7.5 1.4c2 .4 4.1 0 5.8-1.2.4-.2.8-.6 1.2-.9z"/></symbol><symbol viewBox="0 0 500 500" id="ruble"><path d="M382.3 43.6C355.4 16.7 318.2 0 277.4 0H128.9v355.8H74.1v48.4h54.8V500h48.4v-95.8h170v-48.4h-170v-53h100.1c40.9 0 78-16.7 104.9-43.6s43.6-64 43.6-104.9v-5.8c0-40.9-16.7-78-43.6-104.9zm-4.8 110.7c0 27.5-11.3 52.5-29.4 70.7-18.2 18.2-43.2 29.4-70.7 29.4H177.3v-206h100.1c27.5 0 52.5 11.3 70.7 29.4 18.2 18.2 29.4 43.2 29.4 70.7v5.8z"/></symbol><symbol viewBox="0 0 31.494 31.494" id="slick-left"><path d="M10.273 5.009a1.112 1.112 0 0 1 1.587 0 1.12 1.12 0 0 1 0 1.571l-8.047 8.047h26.554c.619 0 1.127.492 1.127 1.111s-.508 1.127-1.127 1.127H3.813l8.047 8.032c.429.444.429 1.159 0 1.587a1.112 1.112 0 0 1-1.587 0L.321 16.532a1.12 1.12 0 0 1 0-1.571l9.952-9.952z"/></symbol><symbol viewBox="0 0 32 23" id="slick-right"><path d="M21.221 21.808a1.112 1.112 0 0 1-1.587 0 1.12 1.12 0 0 1 0-1.571l8.047-8.047H1.127A1.118 1.118 0 0 1 0 11.079c0-.619.508-1.127 1.127-1.127h26.554L19.634 1.92c-.429-.444-.429-1.159 0-1.587a1.112 1.112 0 0 1 1.587 0l9.952 9.952a1.12 1.12 0 0 1 0 1.571l-9.952 9.952z"/></symbol><symbol viewBox="0 0 480.56 480.56" id="tel"><path d="M365.354 317.9c-15.7-15.5-35.3-15.5-50.9 0-11.9 11.8-23.8 23.6-35.5 35.6-3.2 3.3-5.9 4-9.8 1.8-7.7-4.2-15.9-7.6-23.3-12.2-34.5-21.7-63.4-49.6-89-81-12.7-15.6-24-32.3-31.9-51.1-1.6-3.8-1.3-6.3 1.8-9.4 11.9-11.5 23.5-23.3 35.2-35.1 16.3-16.4 16.3-35.6-.1-52.1-9.3-9.4-18.6-18.6-27.9-28-9.6-9.6-19.1-19.3-28.8-28.8-15.7-15.3-35.3-15.3-50.9.1-12 11.8-23.5 23.9-35.7 35.5-11.3 10.7-17 23.8-18.2 39.1-1.9 24.9 4.2 48.4 12.8 71.3 17.6 47.4 44.4 89.5 76.9 128.1 43.9 52.2 96.3 93.5 157.6 123.3 27.6 13.4 56.2 23.7 87.3 25.4 21.4 1.2 40-4.2 54.9-20.9 10.2-11.4 21.7-21.8 32.5-32.7 16-16.2 16.1-35.8.2-51.8-19-19.1-38.1-38.1-57.2-57.1zm-19.1-79.7l36.9-6.3c-5.8-33.9-21.8-64.6-46.1-89-25.7-25.7-58.2-41.9-94-46.9l-5.2 37.1c27.7 3.9 52.9 16.4 72.8 36.3 18.8 18.8 31.1 42.6 35.6 68.8zm57.7-160.4c-42.6-42.6-96.5-69.5-156-77.8l-5.2 37.1c51.4 7.2 98 30.5 134.8 67.2 34.9 34.9 57.8 79 66.1 127.5l36.9-6.3c-9.7-56.2-36.2-107.2-76.6-147.7z"/></symbol><symbol viewBox="0 0 612 612" id="tw"><path d="M612 116.258a250.714 250.714 0 0 1-72.088 19.772c25.929-15.527 45.777-40.155 55.184-69.411-24.322 14.379-51.169 24.82-79.775 30.48-22.907-24.437-55.49-39.658-91.63-39.658-69.334 0-125.551 56.217-125.551 125.513 0 9.828 1.109 19.427 3.251 28.606-104.326-5.24-196.835-55.223-258.75-131.174-10.823 18.51-16.98 40.078-16.98 63.101 0 43.559 22.181 81.993 55.835 104.479a125.556 125.556 0 0 1-56.867-15.756v1.568c0 60.806 43.291 111.554 100.693 123.104-10.517 2.83-21.607 4.398-33.08 4.398-8.107 0-15.947-.803-23.634-2.333 15.985 49.907 62.336 86.199 117.253 87.194-42.947 33.654-97.099 53.655-155.916 53.655-10.134 0-20.116-.612-29.944-1.721 55.567 35.681 121.536 56.485 192.438 56.485 230.948 0 357.188-191.291 357.188-357.188l-.421-16.253c24.666-17.593 46.005-39.697 62.794-64.861z"/></symbol><symbol viewBox="0 0 304.36 304.36" id="vk"><path d="M261.945 175.576c10.096 9.857 20.752 19.131 29.807 29.982 4 4.822 7.787 9.798 10.684 15.394 4.105 7.955.387 16.709-6.746 17.184l-44.34-.02c-11.436.949-20.559-3.655-28.23-11.474-6.139-6.253-11.824-12.908-17.727-19.372-2.42-2.642-4.953-5.128-7.979-7.093-6.053-3.929-11.307-2.726-14.766 3.587-3.523 6.421-4.322 13.531-4.668 20.687-.475 10.441-3.631 13.186-14.119 13.664-22.414 1.057-43.686-2.334-63.447-13.641-17.422-9.968-30.932-24.04-42.691-39.971-22.895-31.021-40.428-65.108-56.186-100.15C-2.01 76.458.584 72.22 9.295 72.07c14.465-.281 28.928-.261 43.41-.02 5.879.086 9.771 3.458 12.041 9.012 7.826 19.243 17.402 37.551 29.422 54.521 3.201 4.518 6.465 9.036 11.113 12.216 5.142 3.521 9.057 2.354 11.476-3.374 1.535-3.632 2.207-7.544 2.553-11.434 1.146-13.383 1.297-26.743-.713-40.079-1.234-8.323-5.922-13.711-14.227-15.286-4.238-.803-3.607-2.38-1.555-4.799 3.564-4.172 6.916-6.769 13.598-6.769h50.111c7.889 1.557 9.641 5.101 10.721 13.039l.043 55.663c-.086 3.073 1.535 12.192 7.07 14.226 4.43 1.448 7.35-2.096 10.008-4.905 11.998-12.734 20.561-27.783 28.211-43.366 3.395-6.852 6.314-13.968 9.143-21.078 2.096-5.276 5.385-7.872 11.328-7.757l48.229.043c1.43 0 2.877.021 4.262.258 8.127 1.385 10.354 4.881 7.844 12.817-3.955 12.451-11.65 22.827-19.174 33.251-8.043 11.129-16.645 21.877-24.621 33.072-7.328 10.223-6.746 15.376 2.357 24.255zm0 0" fill-rule="evenodd" clip-rule="evenodd"/></symbol><symbol viewBox="0 0 215.094 215.094" id="yb"><path d="M28.302 32.547C12.673 32.547 0 45.22 0 60.849v93.396c0 15.629 12.673 28.302 28.302 28.302h158.491c15.629 0 28.301-12.673 28.301-28.302V60.849c0-15.629-12.672-28.302-28.301-28.302H28.302zm62.245 113.036V69.511l50 38.036-50 38.036z"/></symbol></svg>