<svg version="1" xmlns="http://www.w3.org/2000/svg" width="346.667" height="346.667" viewBox="0 0 260.000000 260.000000"><path d="M160.6 49.9c-.4.5.3 1.2 1.3 1.6 3.1 1 9.8 9.1 11.4 13.9.8 2.3 1.4 6.6 1.3 9.4 0 2.9 0 5.2.2 5.2s2.9-1.9 6-4.3c12.6-9.6 27.9-18.5 36.4-21.1 1.9-.6 1.2-1-3.9-2.2-8.5-1.8-14.8-2.4-35-2.9-10.3-.3-17.4-.2-17.7.4zM147.8 53.1c-2.3 1.3-4 4.6-4.3 8.3-.4 4.1.3 5.1 2.4 3.2 2.8-2.5 8.4-4.4 14.8-4.8 1.8-.1 3.3-.6 3.3-1 0-1.4-8.1-5.9-11.3-6.3-1.8-.2-4 .1-4.9.6zM97.6 59.7c-.1.2-6.7.5-14.7.8-48.9 1.6-48.1 1.6-54.1 4.6-4.6 2.3-8.3 6.1-11 11.4-1.9 3.6-2.2 5.8-2.3 21.7-.2 16.9-.1 17.6 1.6 16.5 1.1-.7 1.9-1.5 1.9-1.8 0-.9 15.7-13.1 22.1-17.2C60.4 83.5 88.6 72.6 114 67.6c1.4-.3 5.2-1 8.5-1.6 3.3-.7 6.2-1.3 6.4-1.5.7-.8-7.6-3.6-12.4-4.2-5.1-.6-18.5-1-18.9-.6zM134 78.3c-.3.3-3.2.7-6.5 1-7.6.8-26.1 4.4-28.3 5.6-.9.5-2.1.9-2.7 1-3.6.4-18.5 6.4-18.5 7.5 0 .2 3.7.2 8.3 0 7-.4 8.7-.2 11.5 1.6 5.8 3.6 7.9 12.3 4.5 18.2-3.2 5.4-8.2 7.1-22.3 7.3-6.9.2-13.6-.2-15-.7-5.2-2-8.6-6.6-9.7-13.3-.3-1.7-.6-3.1-.8-3.3-.6-.6-18.6 11.9-25.3 17.6C9.3 137.7-.3 153 .5 166.5c.4 8 .9 9.5 4.5 16.3 2 3.6 5.3 7.5 9.1 10.6 3.2 2.7 5.9 5.4 5.9 6.1 0 .6 1.4 3.3 3 5.9 2.3 3.6 4.3 5.3 8.6 7.3 5.9 2.7 7.4 2.7 43.9.9 4.4-.3 15.6-.7 24.8-1.1 9.4-.3 19.3-1.3 22.5-2.1 8.5-2.2 17.8-7.2 24-12.8l5.4-5 3.4 4.1c4.6 5.6 13.7 11.5 23.2 15.1 10.6 4.1 13.9 4.7 27.7 4.5 23-.2 37.5-7.6 37.5-19.2 0-4.1-3.4-10.6-6.5-12.7-2.5-1.7-9-1.6-18 .2-1.6.3-7.1.6-12.1.7-9.8 0-14.8-1.6-20.6-6.7-3.4-3-7-10.1-6.6-12.9.2-1.8.9-2.2 3.8-2.1 4.7.2 16.3 1.5 17 1.9.4.2 3.5.7 7.1 1 3.5.4 10.2 1.2 14.9 1.9 19.5 2.9 29.2.3 34-8.9 2.2-4.4 2.5-6.1 2.4-15 0-8.1-.5-11.4-2.7-17.4-6.9-19.6-24.2-33.2-46.5-36.6-7.9-1.2-9.7-1.2-18.8 0-20.5 2.6-42.5 21.4-48.4 41.2-.7 2.4-1.4 4.3-1.4 4.3-.1 0-2.7-.9-5.9-2-3.1-1.1-6.9-2-8.4-2l-2.8-.1 3-2.1c6.1-4.4 13.7-13.1 16.3-18.6 2.3-4.8 2.7-7.1 2.7-14.2 0-7-.5-9.4-2.5-13.5-2.2-4.4-2.9-5-6-5.3-2-.2-3.8-.1-4 .1zm78.1 46.2c3.9 2.1 7.7 7 8.5 11.1 1 5.4-1.8 7.8-8.8 7.5-8.2-.2-18.1-1.1-20.3-1.8-6.6-1.9-7.5-8.3-1.9-13.7 5.4-5.3 15.5-6.6 22.5-3.1zM18.6 164.6c.3 9.8.7 20.5.8 23.6.2 3.3-.2 5.8-.7 5.8-1.8 0-10-9.5-11.8-13.7-4.7-11-1.8-23 8-32.1 1.3-1.2 2.6-2.1 2.7-1.9.2.2.6 8.4 1 18.3zm88.9-11.9c7.1 3.4 9.4 13.7 4.5 20-3.9 5-6.3 5.6-23 5.7-18.3.2-22.3-.7-25.9-6-4.6-6.7-2.8-15.2 4.2-19.4 2.8-1.8 5.1-2 19.9-2 13.6 0 17.4.3 20.3 1.7z"/></svg>