<?xml version="1.0" encoding="iso-8859-1"?>
<!-- Generator: Adobe Illustrator 19.0.0, SVG Export Plug-In . SVG Version: 6.00 Build 0)  -->
<svg version="1.1" id="Capa_1" xmlns="http://www.w3.org/2000/svg" xmlns:xlink="http://www.w3.org/1999/xlink" x="0px" y="0px"
	 viewBox="0 0 512 512" style="enable-background:new 0 0 512 512;" xml:space="preserve">
<g>
	<g>
		<path d="M262.258,20.872c-27.809,0-50.433,22.624-50.433,50.433c0,8.462,2.139,16.834,6.184,24.212
			c1.992,3.633,6.551,4.965,10.181,2.971c3.633-1.991,4.962-6.55,2.971-10.182c-2.837-5.174-4.336-11.053-4.336-17.001
			c0-19.538,15.895-35.433,35.433-35.433c19.538,0,35.433,15.895,35.433,35.433c0,19.538-15.895,35.433-35.433,35.433
			c-3.047,0-6.068-0.386-8.98-1.146c-4.014-1.051-8.105,1.354-9.152,5.361c-1.047,4.008,1.354,8.105,5.361,9.152
			c4.149,1.083,8.446,1.633,12.771,1.633c27.809,0,50.433-22.624,50.433-50.433S290.067,20.872,262.258,20.872z"/>
	</g>
</g>
<g>
	<g>
		<path d="M127.455,204.293c-27.809,0-50.433,22.624-50.433,50.433c0,27.81,22.624,50.434,50.433,50.434
			c27.81,0,50.434-22.624,50.434-50.434C177.889,226.917,155.265,204.293,127.455,204.293z M127.455,290.16
			c-19.538,0-35.433-15.896-35.433-35.434c0-19.538,15.895-35.433,35.433-35.433c19.538,0,35.434,15.895,35.434,35.433
			C162.889,274.264,146.993,290.16,127.455,290.16z"/>
	</g>
</g>
<g>
	<g>
		<path d="M435.412,254.659c-4.077-0.703-7.96,2.039-8.662,6.121c-2.926,17.023-17.612,29.38-34.92,29.38
			c-19.538,0-35.433-15.896-35.433-35.434c0-19.538,15.895-35.433,35.433-35.433c12.558,0,23.922,6.436,30.398,17.215
			c2.133,3.552,6.741,4.699,10.291,2.566c3.551-2.133,4.7-6.74,2.566-10.291c-9.075-15.106-25.65-24.49-43.256-24.49
			c-27.808,0-50.432,22.624-50.432,50.433c0,27.81,22.624,50.434,50.433,50.434c24.633,0,45.536-17.596,49.703-41.839
			C442.234,259.239,439.494,255.36,435.412,254.659z"/>
	</g>
</g>
<g>
	<g>
		<path d="M380.646,186.255l-12.49-27.568c-1.215-2.683-3.887-4.405-6.831-4.405h-93.462V137.24c0-4.143-3.357-7.5-7.5-7.5
			s-7.5,3.357-7.5,7.5v17.042H159.4c-2.944,0-5.616,1.723-6.832,4.405l-12.489,27.568c-1.709,3.773-0.036,8.217,3.737,9.927
			c3.773,1.707,8.217,0.035,9.927-3.737l10.493-23.163h192.253l10.494,23.163c1.255,2.77,3.982,4.407,6.837,4.407
			c1.034,0,2.086-0.216,3.09-0.67C380.683,194.472,382.356,190.028,380.646,186.255z"/>
	</g>
</g>
<g>
	<g>
		<path d="M50.433,390.262C22.624,390.262,0,412.886,0,440.695s22.624,50.433,50.433,50.433c27.809,0,50.433-22.624,50.433-50.433
			C100.866,412.886,78.241,390.262,50.433,390.262z M50.433,476.127C30.895,476.127,15,460.233,15,440.695
			c0-19.538,15.895-35.433,35.433-35.433c19.538,0,35.433,15.895,35.433,35.433C85.866,460.233,69.971,476.127,50.433,476.127z"/>
	</g>
</g>
<g>
	<g>
		<path d="M189.906,390.262c-13.818,0-27.187,5.765-36.676,15.815c-2.844,3.012-2.708,7.758,0.305,10.602
			c3.01,2.842,7.758,2.707,10.602-0.305c6.767-7.166,15.918-11.112,25.77-11.112c19.538,0,35.433,15.895,35.433,35.433
			s-15.895,35.433-35.433,35.433c-19.538,0-35.433-15.895-35.433-35.433c0-4.143-3.357-7.5-7.5-7.5s-7.5,3.357-7.5,7.5
			c0,27.809,22.624,50.433,50.433,50.433c27.809,0,50.433-22.624,50.433-50.433C240.34,412.886,217.715,390.262,189.906,390.262z"/>
	</g>
</g>
<g>
	<g>
		<path d="M178.723,372.223l-12.49-27.568c-1.216-2.683-3.888-4.405-6.832-4.405H128.39v-15.042c0-4.143-3.357-7.5-7.5-7.5
			s-7.5,3.357-7.5,7.5v15.042H82.378c-2.944,0-5.616,1.723-6.832,4.405l-12.49,27.568c-1.709,3.773-0.036,8.217,3.737,9.927
			c3.772,1.706,8.217,0.036,9.927-3.737l10.494-23.163h67.351l10.494,23.163c1.255,2.77,3.982,4.407,6.837,4.407
			c1.034,0,2.086-0.216,3.09-0.67C178.759,380.44,180.432,375.996,178.723,372.223z"/>
	</g>
</g>
<g>
	<g>
		<path d="M322.094,390.262c-27.809,0-50.433,22.624-50.433,50.433s22.624,50.433,50.433,50.433
			c27.809,0,50.433-22.624,50.433-50.433C372.527,412.886,349.902,390.262,322.094,390.262z M322.094,476.127
			c-19.538,0-35.433-15.895-35.433-35.433c0-19.538,15.895-35.433,35.433-35.433c19.538,0,35.433,15.895,35.433,35.433
			C357.527,460.232,341.632,476.127,322.094,476.127z"/>
	</g>
</g>
<g>
	<g>
		<path d="M461.567,390.262c-27.809,0-50.433,22.624-50.433,50.433s22.624,50.433,50.433,50.433
			c27.809,0,50.433-22.625,50.433-50.433S489.376,390.262,461.567,390.262z M461.567,476.127c-19.538,0-35.433-15.895-35.433-35.433
			c0-19.538,15.895-35.433,35.433-35.433c19.538,0,35.433,15.896,35.433,35.434C497,460.233,481.105,476.127,461.567,476.127z"/>
	</g>
</g>
<g>
	<g>
		<path d="M450.384,372.223l-12.49-27.568c-1.216-2.683-3.888-4.405-6.832-4.405h-31.011v-15.042c0-4.143-3.357-7.5-7.5-7.5
			s-7.5,3.357-7.5,7.5v15.042h-31.012c-2.944,0-5.616,1.723-6.832,4.405l-12.49,27.568c-1.709,3.772-0.036,8.217,3.737,9.927
			c3.771,1.706,8.216,0.036,9.927-3.737l10.494-23.163h67.351l10.494,23.163c1.255,2.77,3.982,4.407,6.837,4.407
			c1.034,0,2.086-0.216,3.09-0.67C450.42,380.44,452.093,375.996,450.384,372.223z"/>
	</g>
</g>
<g>
</g>
<g>
</g>
<g>
</g>
<g>
</g>
<g>
</g>
<g>
</g>
<g>
</g>
<g>
</g>
<g>
</g>
<g>
</g>
<g>
</g>
<g>
</g>
<g>
</g>
<g>
</g>
<g>
</g>
</svg>
