<?xml version="1.0" encoding="utf-8"?>
<!-- Generator: Adobe Illustrator 19.0.0, SVG Export Plug-In . SVG Version: 6.00 Build 0)  -->
<svg version="1.1" id="Слой_1" xmlns="http://www.w3.org/2000/svg" xmlns:xlink="http://www.w3.org/1999/xlink" x="0px" y="0px"
	 viewBox="0 0 189 150" enable-background="new 0 0 189 150" xml:space="preserve">
<path d="M119.9,7.7c-11.3-11.7-17.2-2.5-15.3,4.6C108,9.6,111.6,7.1,119.9,7.7L119.9,7.7z M94.2,11.3
	C58.9,16.9,30.8,29,11.3,48.7c0-7.5,0-15,0-22.4c0.6-6.2,3.4-11.4,9.9-15c4.4-2.3,6.3-1.9,11.1-2.1C48.1,8.6,63.8,8,79.6,7.6
	C85.8,7.8,90.9,8.9,94.2,11.3L94.2,11.3z M40.1,38.8C25.6,47.2-0.3,66.5,0.2,85.2c0.4,9.5,5.8,17.4,14.3,22.4
	c0.1,1.5,0.5,2.8,1.8,4.9c1.8,3,4.2,5.4,8.1,6.8c3.9,1.4,6.4,1.1,10.4,0.8c14.6-0.6,29.1-1.3,43.7-1.9c6.9-0.4,9.5-0.4,16.1-3
	c6.7-2.7,12.6-6.7,16.9-13.1c3.3-4.8,4.3-9,4.6-15c0-0.6,0-1.4,0-2.5c-0.2-5-1.6-8.4-2.1-9.5c-0.1-0.1-0.4-0.7-0.7-1.4
	c-2.5-4.7-6.1-7.5-7.2-8.4c-1.1-0.8-2.1-1.5-3.3-2.1c-5.3-2.9-10.4-3.5-12.2-3.7c15-8.6,21.4-24.5,11.8-38.8
	C82.7,22.3,67.3,26.2,56,32.2c2.1-0.1,5-0.2,8.8-0.4c3.7,0,5.4-0.2,8.2,2.7c3.4,3.6,4.4,9.8-0.7,14.5c-2.7,1.9-5.8,2.6-9.1,2.8
	c-3.2,0-6.3,0-9.6,0c-3.2,0-5,0.2-7.9-1.5C41.8,48.4,40.2,44.3,40.1,38.8z M13.2,69.9l1.2,33.9c0,0.6,0,1.2,0,1.8
	c-6.1-3.9-10.3-9.6-10.9-16.4C2.8,81.7,6.7,74.8,13.2,69.9L13.2,69.9z M53.9,73.8h19.7c5.5,0,9.9,4.4,9.9,9.9l0,0
	c0,5.5-4.4,9.9-9.9,9.9H53.9c-5.5,0-9.9-4.4-9.9-9.9l0,0C43.9,78.3,48.4,73.8,53.9,73.8z"/>
<path id="XMLID_113_" d="M160,3.3c-14.6-3.2-29.4-3.6-44.4-3c8.1,4.3,12.6,11.3,11.3,22.5
	C138.5,13.4,149.7,5.9,160,3.3z"/>
<path d="M121.4,114.1c12.3,6.7,25.4,9.7,39.6,6.1c5.4-1.4,13.7-3.5,15.7-9.3c1.5-4.4-0.4-9-2.8-11.6
	c-3.2-3.4-5.7-2.1-9.8-1.8c-7.1,0.8-15.8,2.7-22.5,0.1c-4.9-2.3-7.9-5.4-9.6-8.9c-1.4-3-2.8-6.4,1.9-6.1c10.3,1.4,20.6,2.8,30.8,4.1
	c4.8,0.6,9.6,1.1,13.9-0.2c3.5-1.1,5.7-2.7,7.2-4.9c5.7-8.9,2.5-24.7-3-33.1c-11.9-18.3-37.6-24.7-56.8-14.3
	c-6.1,3.3-11.7,8.1-16.6,14.5c-7.4,10.6-9.2,22.7-7.5,35.6C105.3,98.1,111.8,107.9,121.4,114.1L121.4,114.1z M138.8,55.6
	c7.1-4.8,18.6-2.8,21.1,6.1c1.3,4.4-0.4,6.9-4.9,6.5c-4.9-0.4-9.9-0.6-14.8-0.9C133.1,65.8,133.8,59.1,138.8,55.6z"/>
<path d="M20.2,132.6c0-1.6-1.1-3.1-2.7-3.1c-1.6,0-2.7,1.5-2.7,3.1v14.2c0,1.6,1.1,2.7,2.7,2.7
	c1.6,0,2.7-1.1,2.7-2.7v-13.7V132.6z M26.8,141.6c0-1.5,1.2-2.8,2.7-2.8c1.2,0,2.1,1.1,2.1,2.6v5.5c0,1.6,1.1,2.7,2.7,2.7
	c1.6,0,2.7-1.1,2.7-2.7v-5.7c0-5.1-2-7.7-6.1-7.7c-1.6,0-3.2,0.6-4.4,1.6c-0.5-0.8-1.3-1.3-2.3-1.3c-1.6,0-2.7,1.1-2.7,2.7v10.4
	c0,1.6,1.1,2.7,2.7,2.7c1.6,0,2.7-1.1,2.7-2.7L26.8,141.6L26.8,141.6z M39.8,139.1v5.4c0,4,2,5.4,5.5,5.4c1.1,0,1.9-0.1,2.5-0.2
	c1.2-0.4,1.9-1.3,1.9-2.5c0-1.5-0.8-2.8-2.3-2.8c-0.2,0-0.9,0.1-1.2,0.1c-0.5,0-0.7-0.1-0.7-0.7c-0.1-0.5-0.1-0.8-0.1-1.8v-2.9h1.5
	c1.6,0,2.7-1.1,2.7-2.7c0-1.6-1.1-2.7-2.7-2.7h-1.5v-1.5c0-1.6-1.1-2.7-2.7-2.7c-1.6,0-2.7,1.1-2.7,2.7v1.5h-0.1
	c-1.6,0-2.7,1.1-2.7,2.7C37,138.1,38.1,139.1,39.8,139.1L39.8,139.1L39.8,139.1z M63.4,142.8L63.4,142.8c1.5,1.2,1.8,2.5,0.5,4.3
	c-1.4,1.8-3.7,2.8-6.3,2.8c-2.2,0-4.2-0.8-5.8-2.3c-1.6-1.6-2.3-3.5-2.3-5.8c0-2.2,0.8-4.2,2.3-5.8c1.6-1.6,3.5-2.5,5.8-2.5
	c2.1,0,3.7,0.6,5.3,1.8c1.4,1.1,2.2,2.5,2.2,4.1c0,1.5-1.1,2.6-2.7,2.6H55c0.1,1.6,0.9,2.8,2.7,2.8c0.9,0,1.6-0.4,2.1-1.1
	C60.5,142.2,62.2,141.8,63.4,142.8L63.4,142.8z M55.4,138.8h3.9c-0.4-0.8-1.1-1.3-2-1.3C56.4,137.4,55.8,137.8,55.4,138.8
	L55.4,138.8z M71,146.8v-5.1c0-1.6,1.2-2.9,2.7-2.9h0.7c1.6,0,2.7-1.1,2.7-2.6c0-1.6-1.1-2.7-2.7-2.7h-0.1c-1.4,0-2.7,0.5-3.7,1.5
	c-0.5-0.7-1.3-1.2-2.2-1.2c-1.6,0-2.7,1.1-2.7,2.7V147c0,1.6,1.1,2.7,2.7,2.7C69.9,149.5,71,148.5,71,146.8L71,146.8z M83.1,141.6
	c0-1.5,1.2-2.8,2.7-2.8c1.2,0,2.1,1.1,2.1,2.6v5.5c0,1.6,1.1,2.7,2.7,2.7s2.7-1.1,2.7-2.7v-5.7c0-5.1-2-7.7-6.1-7.7
	c-1.6,0-3.2,0.6-4.4,1.6c-0.5-0.8-1.3-1.3-2.3-1.3c-1.6,0-2.7,1.1-2.7,2.7v10.4c0,1.6,1.1,2.7,2.7,2.7s2.7-1.1,2.7-2.7L83.1,141.6
	L83.1,141.6z M110.8,136.4c0-1.6-1.1-2.7-2.7-2.7c-1.2,0-2,0.5-2.5,1.4c-1.3-1.2-2.8-1.8-4.4-1.8c-2.2,0-3.9,0.8-5.1,2.5
	s-1.9,3.6-1.9,5.8c0,2.2,0.6,4.2,1.9,5.8c1.3,1.6,2.9,2.5,5.1,2.5c1.8,0,3.3-0.6,4.6-1.6c0.5,0.8,1.3,1.3,2.3,1.3
	c1.6,0,2.7-1.1,2.7-2.7V136.4L110.8,136.4z M100.6,139.6c1.1-1.2,2.9-1.2,4,0c0.6,0.6,0.8,1.3,0.8,2.1c0,0.8-0.2,1.5-0.8,2.1
	c-1.1,1.1-2.9,1.1-4,0c-0.6-0.6-0.8-1.3-0.8-2.1C99.8,140.9,100.1,140.2,100.6,139.6L100.6,139.6z M114.3,139.1v5.4
	c0,4,2,5.4,5.5,5.4c1.1,0,1.9-0.1,2.5-0.2c1.2-0.4,1.9-1.3,1.9-2.5c0-1.5-0.8-2.8-2.3-2.8c-0.2,0-0.9,0.1-1.2,0.1
	c-0.5,0-0.7-0.1-0.7-0.7c-0.1-0.5-0.1-0.8-0.1-1.8v-2.9h1.5c1.6,0,2.7-1.1,2.7-2.7c0-1.6-1.1-2.7-2.7-2.7h-1.5v-1.5
	c0-1.6-1.1-2.7-2.7-2.7s-2.7,1.1-2.7,2.7v1.5h-0.1c-1.6,0-2.7,1.1-2.7,2.7C111.5,138.1,112.5,139.1,114.3,139.1L114.3,139.1
	L114.3,139.1z M130.3,138.2c0-1.6-1.1-2.7-2.7-2.7s-2.7,1.1-2.7,2.7v8.6c0,1.6,1.1,2.7,2.7,2.7s2.7-1.1,2.7-2.7v-7.7V138.2z
	 M139.6,133.5c-2.3,0-4.3,0.8-6,2.5s-2.5,3.5-2.5,5.8c0,2.2,0.8,4.2,2.5,5.8c1.6,1.6,3.6,2.3,6,2.3s4.3-0.8,6-2.3
	c1.6-1.6,2.5-3.5,2.5-5.8c0-2.2-0.8-4.2-2.5-5.8S142,133.5,139.6,133.5L139.6,133.5z M137.6,139.6c1.1-1.2,2.9-1.2,4,0
	c0.6,0.6,0.8,1.3,0.8,2.1c0,0.8-0.2,1.5-0.8,2.1c-1.1,1.1-2.9,1.1-4,0c-0.6-0.6-0.8-1.3-0.8-2.1
	C136.8,140.9,137.1,140.2,137.6,139.6L137.6,139.6z M154.2,141.6c0-1.5,1.2-2.8,2.7-2.8c1.2,0,2.1,1.1,2.1,2.6v5.5
	c0,1.6,1.1,2.7,2.7,2.7c1.6,0,2.7-1.1,2.7-2.7v-5.7c0-5.1-2-7.7-6.1-7.7c-1.6,0-3.2,0.6-4.4,1.6c-0.5-0.8-1.3-1.3-2.3-1.3
	c-1.6,0-2.7,1.1-2.7,2.7v10.4c0,1.6,1.1,2.7,2.7,2.7c1.6,0,2.7-1.1,2.7-2.7V141.6L154.2,141.6z M182,136.4c0-1.6-1.1-2.7-2.7-2.7
	c-1.2,0-2,0.5-2.5,1.4c-1.3-1.2-2.8-1.8-4.4-1.8c-2.2,0-3.9,0.8-5.1,2.5c-1.3,1.6-1.9,3.6-1.9,5.8c0,2.2,0.6,4.2,1.9,5.8
	c1.3,1.6,2.9,2.5,5.1,2.5c1.8,0,3.3-0.6,4.6-1.6c0.5,0.8,1.3,1.3,2.3,1.3c1.6,0,2.7-1.1,2.7-2.7V136.4L182,136.4z M171.9,139.6
	c1.1-1.2,2.9-1.2,4,0c0.6,0.6,0.8,1.3,0.8,2.1c0,0.8-0.2,1.5-0.8,2.1c-1.1,1.1-2.9,1.1-4,0c-0.6-0.6-0.8-1.3-0.8-2.1
	C171,140.9,171.3,140.2,171.9,139.6L171.9,139.6z M183.1,147c0,1.6,1.1,2.7,2.7,2.7s2.7-1.1,2.7-2.7v-14.7c0-1.6-1.1-2.7-2.7-2.7
	s-2.7,1.1-2.7,2.7V147z M130.4,132.2c0,1.5-1.2,2.7-2.7,2.7c-1.5,0-2.7-1.2-2.7-2.7c0-1.5,1.2-2.7,2.7-2.7
	C129.2,129.6,130.4,130.7,130.4,132.2z"/>
<path id="XMLID_92_" d="M102.7,63.3c0,0,11.4,6,13.1,18c1.5,11.1-2.1,17.9-5.4,22.3c-3.6-5.1-7.6-12.2-8.6-20.4
	C100.2,71.8,102.7,63.3,102.7,63.3z"/>
</svg>
