<svg width="325" height="512" viewBox="0 0 325 512" version="1.1" xmlns="http://www.w3.org/2000/svg" xmlns:xlink="http://www.w3.org/1999/xlink">

<path id="path0_fill" d="M 8.53299 264.532L 90.982 264.532L 153.873 505.616C 154.854 509.379 158.25 511.999 162.133 511.999C 166.016 511.999 169.412 509.379 170.393 505.616L 233.284 264.532L 315.733 264.532C 320.452 264.532 324.266 260.709 324.266 255.999C 324.266 251.289 320.452 247.466 315.733 247.466L 237.738 247.466L 272.793 113.083C 273.834 109.089 271.871 104.925 268.125 103.193C 264.422 101.461 259.95 102.63 257.561 106.009L 170.666 229.111L 170.666 8.53299C 170.666 3.82299 166.852 5.77911e-16 162.133 0C 157.414 -5.77911e-16 153.6 3.82299 153.6 8.53299L 153.6 229.11L 66.705 106.008C 65.058 103.678 62.43 102.398 59.733 102.398C 58.513 102.398 57.293 102.654 56.14 103.192C 52.402 104.933 50.431 109.089 51.472 113.082L 86.527 247.465L 8.53299 247.465C 3.81399 247.465 5.76809e-16 251.288 0 255.998C -5.76809e-16 260.708 3.81399 264.532 8.53299 264.532ZM 170.666 258.713L 244.428 154.222L 170.666 436.948L 170.666 258.713ZM 79.838 154.213L 153.6 258.712L 153.6 436.948L 79.838 154.213Z"/>

</svg>
