<?xml version="1.0" encoding="utf-8"?>
<!-- Generator: Adobe Illustrator 19.0.0, SVG Export Plug-In . SVG Version: 6.00 Build 0)  -->
<svg version="1.1" id="Capa_1" xmlns="http://www.w3.org/2000/svg" xmlns:xlink="http://www.w3.org/1999/xlink" x="0px" y="0px"
	 viewBox="6 -6 512 512" enable-background="new 6 -6 512 512" xml:space="preserve">
<g>
	<path d="M38.1,257.7c4.2,0,7.7-3.5,7.7-7.7c0-113.4,90.2-208.4,202.6-215.2l-10.9,10.9c-3,3-3,7.9,0,10.9c1.5,1.5,3.4,2.3,5.4,2.3
		c2.1,0,4-0.8,5.4-2.3l24.3-24.3c1.5-1.5,2.3-3.4,2.3-5.4s-0.8-4-2.3-5.4L248.2-3.2c-3-3-7.9-3-10.9,0c-1.5,1.5-2.3,3.4-2.3,5.4
		c0,2.1,0.8,4,2.3,5.4l11.6,11.6c-56.9,3-110.3,26.8-150.8,67.3C54.5,130.3,30.4,188.3,30.4,250C30.4,254.2,33.9,257.7,38.1,257.7z"
		/>
	<path d="M514.2,112.3l-14.9-8.9c-8.3-5-11.1-15.4-6.4-23.9l8.5-15.2c1.3-2.4,1.3-5.3-0.1-7.6c-1.4-2.3-3.9-3.8-6.6-3.9l-17.4-0.2
		c-9.7-0.1-17.3-7.8-17.5-17.5l-0.2-17.4c0-2.7-1.5-5.2-3.9-6.6c-2.3-1.4-5.3-1.4-7.6-0.1l-15.2,8.5c-8.4,4.7-18.9,1.9-23.9-6.4
		l-8.9-14.9c-1.4-2.3-3.9-3.8-6.6-3.8s-5.3,1.4-6.6,3.8L378,13.2c-4.9,8.3-15.4,11.1-23.9,6.4l-15.2-8.5c-2.4-1.3-5.3-1.3-7.6,0.1
		c-2.3,1.4-3.8,3.9-3.9,6.6l-0.2,17.4c-0.1,9.7-7.8,17.3-17.5,17.5l-17.4,0.2c-2.7,0-5.2,1.5-6.6,3.9c-1.4,2.3-1.4,5.3-0.1,7.6
		l8.5,15.2c4.7,8.4,1.9,18.9-6.4,23.9l-14.9,8.9c-2.3,1.4-3.8,3.9-3.8,6.6c0,2.7,1.4,5.3,3.8,6.6l14.9,8.9c8.3,5,11.1,15.4,6.4,23.9
		l-8.5,15.2c-1.3,2.4-1.3,5.3,0.1,7.6c1.4,2.3,3.9,3.8,6.6,3.9l17.4,0.2c9.7,0.1,17.3,7.8,17.5,17.5l0.2,17.4c0,2.7,1.5,5.2,3.9,6.6
		c2.3,1.4,5.3,1.4,7.6,0.1l15.2-8.5c8.4-4.7,18.9-1.9,23.9,6.4l8.9,14.9c1.4,2.3,3.9,3.8,6.6,3.8c2.7,0,5.3-1.4,6.6-3.8l8.9-14.9
		c5-8.3,15.4-11.1,23.9-6.4l15.2,8.5c2.4,1.3,5.3,1.3,7.6-0.1c2.3-1.4,3.8-3.9,3.9-6.6l0.2-17.4c0.1-9.7,7.8-17.3,17.5-17.5
		l17.4-0.2c2.7,0,5.2-1.5,6.6-3.9c1.4-2.3,1.4-5.3,0.1-7.6l-8.5-15.2c-4.7-8.4-1.9-18.9,6.4-23.9l14.9-8.9c2.3-1.4,3.8-3.9,3.8-6.6
		C518,116.3,516.6,113.7,514.2,112.3z M476.3,141.2c-2.2,8.4-1.2,17.2,3.1,24.8l2.2,3.9l-4.4,0.1c-8.7,0.1-16.9,3.6-23,9.7
		c-6.1,6.2-9.6,14.3-9.7,23l-0.1,4.4l-3.9-2.2c-7.6-4.2-16.4-5.3-24.8-3.1c-8.4,2.2-15.5,7.6-19.9,15l-2.3,3.8l-2.3-3.8
		c-4.5-7.5-11.5-12.8-19.9-15c-2.8-0.8-5.7-1.1-8.6-1.1c-5.6,0-11.2,1.5-16.1,4.2l-3.9,2.2l-0.1-4.4c-0.1-8.7-3.6-16.9-9.7-23
		c-6.1-6.1-14.3-9.6-23-9.7l-4.4-0.1l2.2-3.9c4.2-7.6,5.3-16.4,3.1-24.8c-2.2-8.4-7.6-15.5-15-19.9l-3.8-2.3l3.8-2.3
		c7.5-4.5,12.8-11.5,15-19.9c2.2-8.4,1.2-17.2-3.1-24.8l-2.2-3.9l4.4-0.1c8.7-0.1,16.9-3.6,23-9.7c6.2-6.2,9.6-14.3,9.7-23l0.1-4.4
		l3.9,2.2c7.6,4.2,16.4,5.3,24.8,3.1c8.4-2.2,15.5-7.6,19.9-15l2.3-3.8l2.3,3.8c4.5,7.5,11.5,12.8,19.9,15
		c8.4,2.2,17.2,1.2,24.8-3.1l3.9-2.2l0.1,4.4c0.1,8.7,3.6,16.9,9.7,23c6.1,6.1,14.3,9.6,23,9.7l4.4,0.1l-2.2,3.9
		c-4.2,7.6-5.3,16.4-3.1,24.8c2.2,8.4,7.6,15.5,15,19.9l3.8,2.3l-3.8,2.3l0,0C483.9,125.7,478.6,132.8,476.3,141.2z"/>
	<path d="M421.8,44.2L421.8,44.2c-20-7.5-41.7-6.8-61.2,2c-19.5,8.8-34.3,24.7-41.9,44.6c-7.5,20-6.8,41.7,2,61.2
		c8.8,19.5,24.7,34.3,44.6,41.9c9.1,3.4,18.5,5.2,28.1,5.2c33.1,0,63.2-20.8,74.9-51.7C483.9,106,463,59.7,421.8,44.2z M453.9,141.7
		c-12.6,33.3-49.8,50.1-83.1,37.6c-16.1-6.1-28.9-18.1-36-33.8c-7.1-15.7-7.7-33.2-1.6-49.3c6.1-16.1,18.1-28.9,33.8-36
		c8.5-3.8,17.4-5.8,26.5-5.8c7.8,0,15.4,1.4,22.8,4.2C449.6,71.2,466.4,108.5,453.9,141.7z"/>
	<path d="M431.6,80.5c-3.4,2.6-4.1,7.4-1.5,10.8c7.5,9.9,10.7,22.6,8.7,34.8c-0.7,4.2,2.2,8.2,6.4,8.8c0.4,0.1,0.8,0.1,1.2,0.1
		c3.8,0,7-2.7,7.6-6.5c2.6-16.3-1.7-33.3-11.7-46.5c-1.2-1.6-3.1-2.7-5.1-3C435.3,78.7,433.3,79.2,431.6,80.5z"/>
	<path d="M484.8,242.3c-4.2,0-7.7,3.5-7.7,7.7c0,114.6-87.7,207.7-201.1,215.1l10.8-10.8c3-3,3-7.9,0-10.9c-1.5-1.5-3.4-2.3-5.4-2.3
		c-2.1,0-4,0.8-5.4,2.3L251.4,468c-1.5,1.5-2.3,3.4-2.3,5.4c0,2.1,0.8,4,2.3,5.4l24.3,24.3c1.5,1.5,3.4,2.3,5.4,2.3
		c2.1,0,4-0.8,5.4-2.3c3-3,3-7.9,0-10.9l-11.7-11.7c56.6-3.2,109.6-27,149.9-67.3c43.6-43.6,67.7-101.7,67.7-163.4
		C492.6,245.8,489.1,242.3,484.8,242.3z"/>
	<path d="M431.1,75.5c0-4.3-3.5-7.7-7.7-7.7s-7.7,3.5-7.7,7.7c0,4.3,3.5,7.7,7.7,7.7S431.1,79.8,431.1,75.5z"/>
	<path d="M253.4,394c0-4.2-3.5-7.7-7.7-7.7h-12.9l9.2-9.2c1.5-1.5,2.3-3.4,2.3-5.4c0-2.1-0.8-4-2.3-5.4c-3-3-7.9-3-10.9,0
		l-20.1,20.1h-18.9l9.4-27.1c1.4-4-0.7-8.4-4.7-9.8c-1.9-0.7-4-0.6-5.9,0.3c-1.1,0.5-2,1.3-2.8,2.3c-0.9-3.2-3.7-5.5-7.2-5.5
		c-2.2,0-4.1,0.8-5.4,2.2c-0.2-0.5-0.4-0.9-0.7-1.4c-1.2-1.7-2.9-2.9-4.9-3.2l-2.3-0.4l9.4-16.3l27.5-7.4c4.1-1.1,6.5-5.3,5.4-9.4
		c-0.5-2-1.8-3.6-3.6-4.7c-1.8-1-3.9-1.3-5.8-0.8l-12.6,3.4l6.4-11.1c2.1-3.7,0.9-8.4-2.8-10.5c-3.7-2.1-8.4-0.9-10.5,2.8l-6.4,11.1
		l-3.4-12.6c-0.5-2-1.8-3.6-3.6-4.7c-1.8-1-3.9-1.3-5.8-0.8c-2,0.5-3.6,1.8-4.7,3.6c-1,1.8-1.3,3.9-0.8,5.8l7.4,27.5l-9.4,16.3
		l-18.8-21.7c-1.5-1.7-3.6-2.7-5.8-2.7c-2.2,0-4.4,1-5.8,2.7L105.1,336l-9.4-16.3l7.4-27.5c0.5-2,0.3-4.1-0.8-5.8
		c-1-1.8-2.7-3.1-4.7-3.6c-2-0.5-4.1-0.3-5.8,0.8c-1.8,1-3.1,2.7-3.6,4.7l-3.4,12.6l-6.4-11.1c-2.1-3.7-6.8-4.9-10.5-2.8
		c-3.7,2.1-4.9,6.8-2.8,10.5l6.4,11.1l-12.6-3.4c-2-0.5-4.1-0.3-5.8,0.8c-1.8,1-3.1,2.7-3.6,4.7c-0.5,2-0.3,4.1,0.8,5.8
		c1,1.8,2.7,3.1,4.7,3.6l27.5,7.4l9.4,16.3l-28.2,5.4c-2.2,0.4-4.1,1.8-5.2,3.7c-1.1,1.9-1.3,4.3-0.6,6.4l9.4,27.1H48.3l-20.1-20.1
		c-3-3-7.9-3-10.9,0c-3,3-3,7.9,0,10.9l9.2,9.2H13.7c-4.2,0-7.7,3.5-7.7,7.7c0,4.2,3.5,7.7,7.7,7.7h12.9l-9.2,9.2c-3,3-3,7.9,0,10.9
		c1.5,1.5,3.4,2.3,5.4,2.3c2.1,0,4-0.8,5.4-2.3l20.1-20.1h18.9l-9.4,27.1c-0.7,2.1-0.5,4.4,0.6,6.4c1.1,1.9,3,3.3,5.2,3.7l28.2,5.4
		l-9.4,16.3L54.9,468c-4.1,1.1-6.5,5.3-5.4,9.4c1.1,4.1,5.3,6.5,9.4,5.4l12.6-3.4l-6.4,11.1c-2.1,3.7-0.9,8.4,2.8,10.5
		c1.2,0.7,2.5,1,3.8,1c2.7,0,5.3-1.5,6.7-3.8l6.4-11.1l3.4,12.6c0.9,3.4,4,5.7,7.4,5.7c0.7,0,1.3-0.1,2-0.3c4.1-1.1,6.5-5.3,5.4-9.4
		l-7.4-27.5l9.4-16.3l18.8,21.7c1.5,1.7,3.6,2.7,5.8,2.7c2.2,0,4.4-1,5.8-2.7l18.8-21.7l9.4,16.3l-7.4,27.5c-0.5,2-0.3,4.1,0.8,5.8
		c1,1.8,2.7,3.1,4.7,3.6c0.7,0.2,1.3,0.3,2,0.3c3.5,0,6.5-2.3,7.4-5.7l3.4-12.6l6.4,11.1c1.4,2.4,3.9,3.9,6.7,3.9
		c1.3,0,2.7-0.4,3.8-1c1.8-1,3.1-2.7,3.6-4.7c0.5-2,0.3-4.1-0.8-5.8l-6.4-11.1l12.6,3.4c2,0.5,4.1,0.3,5.8-0.8
		c1.8-1,3.1-2.7,3.6-4.7c0.5-2,0.3-4.1-0.8-5.8c-1-1.8-2.7-3.1-4.7-3.6l-27.5-7.4l-9.4-16.3l28.2-5.4c2.2-0.4,4.1-1.8,5.2-3.7
		c1.1-1.9,1.3-4.3,0.6-6.4l-9.4-27.1h18.9l20.1,20.1c1.5,1.5,3.4,2.3,5.4,2.3c2.1,0,4-0.8,5.4-2.3c1.5-1.5,2.3-3.4,2.3-5.4
		c0-2.1-0.8-4-2.3-5.4l-9.2-9.2h12.9C250,401.7,253.4,398.2,253.4,394z M159.5,430.2l-16.5-28.5H176l8.2,23.8L159.5,430.2z
		 M146.2,437.9l-16.5,19l-16.5-19l16.5-28.5L146.2,437.9z M113.3,350.1l16.5-19l16.5,19l-16.5,28.5L113.3,350.1z M75.2,425.4
		l8.2-23.8h32.9l-16.5,28.5L75.2,425.4z M99.9,357.8l16.5,28.5H83.5l-8.2-23.8L99.9,357.8z M174,357.1c1.1,2.9,3.7,4.8,7,4.8
		c1.4,0,2.6-0.3,3.7-0.9l-8.8,25.3h-32.9l16.5-28.5l7.5,1.4c2,0.4,4.1,0,5.8-1.2C173.2,357.8,173.6,357.4,174,357.1z"/>
</g>
</svg>
