<?xml version="1.0" encoding="iso-8859-1"?>
<!-- Generator: Adobe Illustrator 19.0.0, SVG Export Plug-In . SVG Version: 6.00 Build 0)  -->
<svg version="1.1" id="Layer_1" xmlns="http://www.w3.org/2000/svg" xmlns:xlink="http://www.w3.org/1999/xlink" x="0px" y="0px"
	 viewBox="0 0 512 512" style="enable-background:new 0 0 512 512;" xml:space="preserve">
<g>
	<g>
		<path d="M231,330.438H8c-4.416,0-8,3.576-8,8v72.752c0,4.424,3.584,8,8,8h201.976v-16H16v-56.752h207v19.792h16v-27.792
			C239,334.014,235.416,330.438,231,330.438z"/>
	</g>
</g>
<g>
	<g>
		<path d="M504,330.438H281c-4.424,0-8,3.576-8,8v32.184h16v-24.184h207v56.752H302.024v16H504c4.424,0,8-3.576,8-8v-72.752
			C512,334.014,508.424,330.438,504,330.438z"/>
	</g>
</g>
<g>
	<g>
		<path d="M504,403.19H302.024v16H496v9.032H290.92v16H504c4.424,0,8-3.576,8-8V411.19C512,406.766,508.424,403.19,504,403.19z"/>
	</g>
</g>
<g>
	<g>
		<path d="M16,428.222v-9.032h195.28v-16H8c-4.416,0-8,3.576-8,8v25.032c0,4.424,3.584,8,8,8h213.088v-16H16z"/>
	</g>
</g>
<g>
	<g>
		<path d="M273,447.294v41.136l-12.344-8.832c-2.784-1.984-6.528-1.984-9.312,0L239,488.43v-41.136h-16v56.704
			c0,3,1.68,5.744,4.344,7.12c2.664,1.368,5.872,1.128,8.312-0.608L256,495.942l20.344,14.56c1.384,0.992,3.016,1.496,4.656,1.496
			c1.248,0,2.512-0.288,3.656-0.88c2.664-1.376,4.344-4.12,4.344-7.12v-56.704H273z"/>
	</g>
</g>
<g>
	<g>
		<path d="M281,330.446h-50c-4.416,0-8,3.576-8,8v32.192h16v-24.192h34v24.184h16v-32.184C289,334.022,285.424,330.446,281,330.446z
			"/>
	</g>
</g>
<g>
	<g>
		<path d="M256,378.31c-16.288,0-29.536,13.248-29.536,29.528c0,16.288,13.248,29.536,29.536,29.536
			c16.288,0,29.544-13.248,29.536-29.536C285.536,391.558,272.288,378.31,256,378.31z M256,421.374
			c-7.464,0-13.536-6.064-13.536-13.536c0-7.456,6.072-13.528,13.536-13.528c7.472,0,13.544,6.064,13.536,13.528
			C269.536,415.302,263.472,421.374,256,421.374z"/>
	</g>
</g>
<g>
	<g>
		<path d="M256,354.998c-29.144,0-52.848,23.704-52.848,52.84s23.704,52.848,52.848,52.848c29.144,0,52.848-23.712,52.848-52.848
			S285.144,354.998,256,354.998z M256,444.686c-20.32,0-36.848-16.528-36.848-36.848c0-20.312,16.528-36.84,36.848-36.84
			s36.856,16.528,36.848,36.84C292.848,428.158,276.32,444.686,256,444.686z"/>
	</g>
</g>
<g>
	<g>
		<path d="M256,59.766c-17.512,0-31.24,10.12-31.24,23.032S238.488,105.83,256,105.83c17.52,0,31.24-10.12,31.24-23.032
			S273.512,59.766,256,59.766z M256,89.83c-9.456,0-15.24-4.552-15.24-7.032s5.784-7.032,15.24-7.032s15.24,4.552,15.24,7.032
			S265.456,89.83,256,89.83z"/>
	</g>
</g>
<g>
	<g>
		<path d="M502.528,70.23L259.64,0.518c-2.392-0.688-4.904-0.688-7.24-0.008L9.48,70.23c-5.664,1.624-9.472,6.68-9.472,12.568
			C0,88.686,3.808,93.742,9.472,95.374l242.92,69.72c1.184,0.336,2.392,0.504,3.608,0.504s2.424-0.168,3.6-0.504l242.928-69.72
			c5.664-1.632,9.472-6.68,9.472-12.576S508.192,71.854,502.528,70.23z M256,149.478L23.672,82.798L256,16.126l232.328,66.672
			L256,149.478z"/>
	</g>
</g>
<g>
	<g>
		<path d="M231.744,81.158l-88.712,33.664c-3.104,1.176-5.16,4.152-5.16,7.48v59.904h16v-54.384l83.552-31.704L231.744,81.158z"/>
	</g>
</g>
<g>
	<g>
		<path d="M186.896,305.102l-16.016-79.976c4.296-5.52,6.624-12.232,6.624-19.312c0-17.432-14.184-31.616-31.616-31.616
			s-31.616,14.184-31.616,31.616c0,7.088,2.32,13.8,6.608,19.312l-16.016,79.984c-0.472,2.352,0.136,4.792,1.656,6.64
			c1.52,1.848,3.784,2.928,6.184,2.928h66.344c2.4,0,4.672-1.088,6.192-2.936C186.76,309.894,187.368,307.454,186.896,305.102z
			 M122.464,298.678l14.896-74.32c0.536-2.672-0.328-5.44-2.288-7.328c-3.096-2.992-4.8-6.968-4.8-11.216
			c0-8.616,7.008-15.616,15.616-15.616c8.616,0,15.616,7.008,15.616,15.616c0,4.24-1.704,8.216-4.808,11.216
			c-1.96,1.896-2.824,4.656-2.288,7.328l14.88,74.32H122.464z"/>
	</g>
</g>
<g>
	<g>
		<path d="M419.84,177.302c-2.784-21.912-10-42.912-21.464-62.416c-1.848-3.152-5.6-4.632-9.112-3.64L256,149.502l-133.296-38.256
			c-3.496-0.984-7.256,0.496-9.104,3.64c-11.4,19.408-18.608,40.32-21.416,62.16c-1.968,15.208,6.52,30.088,20.632,36.184l6.624,2.8
			l6.224-14.744l-6.504-2.744c-7.6-3.288-12.168-11.28-11.112-19.456c2.28-17.688,7.768-34.712,16.328-50.712l127.992,36.736
			c2.376,0.68,4.872,0.688,7.248,0.008l127.992-36.744c8.608,16.08,14.112,33.192,16.36,50.944
			c1.048,8.232-3.368,16.032-10.968,19.408c-49.832,22.112-93.776,36.488-134.304,43.968c-2.144,0.392-4.304,0.4-6.44,0.008
			c-25.216-4.592-53.616-12.912-86.832-25.424l-5.64,14.968c34.128,12.856,63.44,21.424,89.608,26.192
			c2.008,0.368,4.024,0.544,6.04,0.544c2.064,0,4.12-0.192,6.16-0.552c41.784-7.712,86.888-22.456,137.896-45.08
			C413.6,207.086,421.776,192.598,419.84,177.302z"/>
	</g>
</g>
<g>
</g>
<g>
</g>
<g>
</g>
<g>
</g>
<g>
</g>
<g>
</g>
<g>
</g>
<g>
</g>
<g>
</g>
<g>
</g>
<g>
</g>
<g>
</g>
<g>
</g>
<g>
</g>
<g>
</g>
</svg>
