<?xml version="1.0" encoding="utf-8"?>
<!-- Generator: Adobe Illustrator 19.0.0, SVG Export Plug-In . SVG Version: 6.00 Build 0)  -->
<svg version="1.1" id="Capa_1" xmlns="http://www.w3.org/2000/svg" xmlns:xlink="http://www.w3.org/1999/xlink" x="0px" y="0px"
	 viewBox="6 -6 512 512" enable-background="new 6 -6 512 512" xml:space="preserve">
<path d="M280.8,327.1h-40.1c-5.2,0-9.4-4.2-9.4-9.4v-40.5c0-5.2,4.2-9.4,9.4-9.4h40.1c5.2,0,9.4,4.2,9.4,9.4v40.5
	C290.1,322.8,285.9,327.1,280.8,327.1z M242.6,315.8h36.3v-36.7h-36.3V315.8z"/>
<path d="M472.9,469.8H51.2c-18.4,0-33.3-15-33.3-33.3V297.7c0-5,4.1-9.1,9.1-9.1s9.1,4.1,9.1,9.1v138.8c0,8.4,6.8,15.2,15.2,15.2
	h421.7c8.4,0,15.2-6.8,15.2-15.2V297.7c0-5,4.1-9.1,9.1-9.1s9.1,4.1,9.1,9.1v138.8C506.2,454.9,491.3,469.8,472.9,469.8z
	 M264.1,302.6l233.9-52.3c11.2-0.6,20.1-9.9,20.1-21.2v-99.4c0-11.7-9.5-21.2-21.2-21.2H27.4c-11.7,0-21.2,9.5-21.2,21.2v99.4
	c0,11.3,8.9,20.6,20.1,21.2l233.9,52.3c0.7,0.1,1.3,0.2,2,0.2S263.4,302.7,264.1,302.6z M496.8,126.6c1.6,0,3,1.4,3,3v99.4
	c0,1.6-1.4,3-3,3c-0.7,0-1.3,0.1-2,0.2l-232.7,52.1L29.3,232.3c-0.7-0.1-1.3-0.2-2-0.2c-1.6,0-3-1.4-3-3v-99.4c0-1.6,1.4-3,3-3
	H496.8z M187.7,68.8v-7.7c0-8.4,6.8-15.2,15.2-15.2H320c8.4,0,15.2,6.8,15.2,15.2v7.1c0,5,4.1,9.1,9.1,9.1s9.1-4.1,9.1-9.1v-7.1
	c0-18.4-15-33.3-33.3-33.3H202.8c-18.4,0-33.3,15-33.3,33.3v7.7c0,5,4.1,9.1,9.1,9.1C183.6,77.9,187.7,73.8,187.7,68.8z
	 M281.2,270.8l-43,8.2l-2,43.1l51.3-4L281.2,270.8z"/>
</svg>
