<?xml version="1.0" encoding="utf-8"?>
<!-- Generator: Adobe Illustrator 19.0.0, SVG Export Plug-In . SVG Version: 6.00 Build 0)  -->
<svg version="1.1" id="Слой_1" xmlns="http://www.w3.org/2000/svg" xmlns:xlink="http://www.w3.org/1999/xlink" x="0px" y="0px"
	 viewBox="-103.5 105.5 290 290" style="enable-background:new -103.5 105.5 290 290;" xml:space="preserve">
<title>Ellipse (Stroke)</title>
<desc>Created using Figma</desc>
<path id="path0_fill" d="M39,105.5c0.8,0,1.7,0,2.5,0s1.7,0,2.5,0c0.3,0,0.5,0.2,0.5,0.5c0,0.3-0.2,0.5-0.5,0.5c-0.8,0-1.6,0-2.5,0
	s-1.6,0-2.5,0c-0.3,0-0.5-0.2-0.5-0.5C38.5,105.8,38.7,105.5,39,105.5z M34.6,106.2c0,0.3-0.2,0.5-0.5,0.5c-1.6,0.1-3.3,0.2-4.9,0.3
	c-0.3,0-0.5-0.2-0.5-0.5c0-0.3,0.2-0.5,0.5-0.5c1.6-0.1,3.3-0.3,4.9-0.3C34.4,105.7,34.6,105.9,34.6,106.2z M48.4,106.2
	c0-0.3,0.2-0.5,0.5-0.5c1.7,0.1,3.3,0.2,4.9,0.3c0.3,0,0.5,0.3,0.5,0.5c0,0.3-0.3,0.5-0.5,0.5c-1.6-0.1-3.3-0.2-4.9-0.3
	C48.6,106.7,48.4,106.4,48.4,106.2z M24.8,107c0,0.3-0.2,0.5-0.4,0.6c-1.6,0.2-3.3,0.4-4.9,0.7c-0.3,0-0.5-0.1-0.6-0.4
	c0-0.3,0.1-0.5,0.4-0.6c1.6-0.2,3.3-0.5,4.9-0.7C24.5,106.5,24.7,106.7,24.8,107z M58.2,107c0-0.3,0.3-0.5,0.6-0.4
	c1.6,0.2,3.3,0.4,4.9,0.7c0.3,0,0.5,0.3,0.4,0.6c0,0.3-0.3,0.5-0.6,0.4c-1.6-0.2-3.2-0.5-4.9-0.7C58.4,107.5,58.2,107.2,58.2,107z
	 M15,108.4c0.1,0.3-0.1,0.5-0.4,0.6c-1.6,0.3-3.2,0.6-4.8,1c-0.3,0.1-0.5-0.1-0.6-0.4c-0.1-0.3,0.1-0.5,0.4-0.6
	c1.6-0.4,3.2-0.7,4.8-1C14.7,108,14.9,108.2,15,108.4z M68,108.4c0.1-0.3,0.3-0.4,0.6-0.4c1.6,0.3,3.2,0.6,4.8,1
	c0.3,0.1,0.4,0.3,0.4,0.6c-0.1,0.3-0.3,0.4-0.6,0.4c-1.6-0.4-3.2-0.7-4.8-1C68.1,109,68,108.7,68,108.4z M5.4,110.6
	c0.1,0.3-0.1,0.5-0.4,0.6c-1.6,0.4-3.2,0.9-4.7,1.3c-0.3,0.1-0.5-0.1-0.6-0.3c-0.1-0.3,0.1-0.5,0.3-0.6c1.6-0.5,3.2-0.9,4.8-1.3
	C5,110.1,5.3,110.3,5.4,110.6z M77.6,110.6c0.1-0.3,0.3-0.4,0.6-0.4c1.6,0.4,3.2,0.9,4.8,1.3c0.3,0.1,0.4,0.4,0.3,0.6
	c-0.1,0.3-0.4,0.4-0.6,0.3c-1.6-0.5-3.1-0.9-4.7-1.3C77.7,111.1,77.6,110.8,77.6,110.6z M-4.1,113.3c0.1,0.3-0.1,0.5-0.3,0.6
	c-1.6,0.5-3.1,1.1-4.6,1.6c-0.3,0.1-0.5,0-0.6-0.3c-0.1-0.3,0-0.5,0.3-0.6c1.5-0.6,3.1-1.1,4.7-1.7C-4.5,112.9-4.2,113.1-4.1,113.3z
	 M87.1,113.3c0.1-0.3,0.4-0.4,0.6-0.3c1.6,0.5,3.1,1.1,4.7,1.7c0.3,0.1,0.4,0.4,0.3,0.6c-0.1,0.3-0.4,0.4-0.6,0.3
	c-1.5-0.6-3.1-1.1-4.6-1.6C87.2,113.9,87,113.6,87.1,113.3z M-13.4,116.8c0.1,0.3,0,0.5-0.3,0.7c-1.5,0.6-3,1.3-4.5,2
	c-0.3,0.1-0.5,0-0.7-0.2c-0.1-0.3,0-0.5,0.2-0.7c1.5-0.7,3-1.3,4.5-2C-13.8,116.4-13.5,116.5-13.4,116.8z M96.4,116.8
	c0.1-0.3,0.4-0.4,0.7-0.3c1.5,0.6,3,1.3,4.5,2c0.3,0.1,0.4,0.4,0.2,0.7c-0.1,0.3-0.4,0.4-0.7,0.2c-1.5-0.7-3-1.3-4.5-2
	C96.4,117.3,96.2,117,96.4,116.8z M-22.3,120.8c0.1,0.2,0,0.5-0.2,0.7c-1.5,0.7-2.9,1.5-4.4,2.3c-0.2,0.1-0.5,0-0.7-0.2
	c-0.1-0.2,0-0.5,0.2-0.7c1.4-0.8,2.9-1.5,4.4-2.3C-22.8,120.5-22.5,120.6-22.3,120.8z M105.3,120.8c0.1-0.2,0.4-0.3,0.7-0.2
	c1.5,0.7,2.9,1.5,4.4,2.3c0.2,0.1,0.3,0.4,0.2,0.7s-0.4,0.3-0.7,0.2c-1.4-0.8-2.9-1.5-4.4-2.3C105.3,121.4,105.2,121.1,105.3,120.8z
	 M-31,125.5c0.1,0.2,0.1,0.5-0.2,0.7c-1.4,0.8-2.8,1.7-4.2,2.6c-0.2,0.1-0.5,0.1-0.7-0.2c-0.1-0.2-0.1-0.5,0.2-0.7
	c1.4-0.9,2.8-1.7,4.2-2.6C-31.5,125.2-31.2,125.3-31,125.5z M114,125.5c0.1-0.2,0.4-0.3,0.7-0.2c1.4,0.8,2.8,1.7,4.2,2.6
	c0.2,0.1,0.3,0.5,0.2,0.7c-0.1,0.2-0.5,0.3-0.7,0.2c-1.4-0.9-2.8-1.7-4.2-2.6C114,126,113.9,125.7,114,125.5z M-39.4,130.7
	c0.2,0.2,0.1,0.5-0.1,0.7c-1.4,0.9-2.7,1.9-4,2.8c-0.2,0.2-0.5,0.1-0.7-0.1c-0.2-0.2-0.1-0.5,0.1-0.7c1.3-1,2.7-1.9,4-2.9
	C-39.9,130.5-39.6,130.5-39.4,130.7z M122.4,130.7c0.2-0.2,0.5-0.3,0.7-0.1c1.4,0.9,2.7,1.9,4,2.9c0.2,0.2,0.3,0.5,0.1,0.7
	c-0.2,0.2-0.5,0.3-0.7,0.1c-1.3-1-2.7-1.9-4-2.8C122.3,131.3,122.2,131,122.4,130.7z M-47.4,136.6c0.2,0.2,0.1,0.5-0.1,0.7
	c-1.3,1-2.6,2-3.8,3.1c-0.2,0.2-0.5,0.2-0.7-0.1c-0.2-0.2-0.2-0.5,0.1-0.7c1.3-1.1,2.5-2.1,3.8-3.1
	C-47.9,136.3-47.5,136.3-47.4,136.6z M130.4,136.6c0.2-0.2,0.5-0.3,0.7-0.1c1.3,1,2.6,2.1,3.8,3.1c0.2,0.2,0.2,0.5,0.1,0.7
	c-0.2,0.2-0.5,0.2-0.7,0.1c-1.3-1.1-2.5-2.1-3.8-3.1C130.2,137.1,130.2,136.8,130.4,136.6z M-54.9,142.9c0.2,0.2,0.2,0.5,0,0.7
	c-1.2,1.1-2.4,2.2-3.6,3.4c-0.2,0.2-0.5,0.2-0.7,0c-0.2-0.2-0.2-0.5,0-0.7c1.2-1.1,2.4-2.3,3.6-3.4
	C-55.4,142.7-55.1,142.7-54.9,142.9z M137.9,142.9c0.2-0.2,0.5-0.2,0.7,0c1.2,1.1,2.4,2.2,3.6,3.4c0.2,0.2,0.2,0.5,0,0.7
	c-0.2,0.2-0.5,0.2-0.7,0c-1.2-1.1-2.4-2.3-3.6-3.4C137.8,143.4,137.8,143.1,137.9,142.9z M-62.1,149.7c0.2,0.2,0.2,0.5,0,0.7
	c-1.1,1.2-2.3,2.4-3.4,3.6c-0.2,0.2-0.5,0.2-0.7,0c-0.2-0.2-0.2-0.5,0-0.7c1.1-1.2,2.2-2.4,3.4-3.6
	C-62.6,149.5-62.3,149.5-62.1,149.7z M145.1,149.7c0.2-0.2,0.5-0.2,0.7,0c1.1,1.2,2.3,2.4,3.4,3.6c0.2,0.2,0.2,0.5,0,0.7
	c-0.2,0.2-0.5,0.2-0.7,0c-1.1-1.2-2.2-2.4-3.4-3.6C144.9,150.2,144.9,149.9,145.1,149.7z M-68.7,157c0.2,0.2,0.2,0.5,0.1,0.7
	c-1.1,1.3-2.1,2.5-3.1,3.8c-0.2,0.2-0.5,0.3-0.7,0.1c-0.2-0.2-0.3-0.5-0.1-0.7c1-1.3,2.1-2.6,3.1-3.8
	C-69.2,156.9-68.9,156.8-68.7,157z M151.7,157c0.2-0.2,0.5-0.2,0.7,0.1c1.1,1.3,2.1,2.5,3.1,3.8c0.2,0.2,0.1,0.5-0.1,0.7
	c-0.2,0.2-0.5,0.1-0.7-0.1c-1-1.3-2-2.6-3.1-3.8C151.5,157.5,151.5,157.2,151.7,157z M-74.8,164.8c0.2,0.2,0.3,0.5,0.1,0.7
	c-1,1.3-1.9,2.7-2.8,4c-0.2,0.2-0.5,0.3-0.7,0.1c-0.2-0.2-0.3-0.5-0.1-0.7c0.9-1.4,1.9-2.7,2.9-4C-75.4,164.6-75,164.6-74.8,164.8z
	 M157.8,164.8c0.2-0.2,0.5-0.1,0.7,0.1c1,1.3,1.9,2.7,2.9,4c0.2,0.2,0.1,0.5-0.1,0.7c-0.2,0.2-0.5,0.1-0.7-0.1
	c-0.9-1.4-1.9-2.7-2.8-4C157.6,165.2,157.6,164.9,157.8,164.8z M-80.4,172.9c0.2,0.1,0.3,0.5,0.2,0.7c-0.9,1.4-1.7,2.8-2.6,4.2
	c-0.1,0.2-0.4,0.3-0.7,0.2c-0.2-0.1-0.3-0.4-0.2-0.7c0.8-1.4,1.7-2.8,2.6-4.2C-81,172.8-80.6,172.7-80.4,172.9z M163.4,172.9
	c0.2-0.1,0.5-0.1,0.7,0.2c0.9,1.4,1.7,2.8,2.6,4.2c0.1,0.2,0.1,0.5-0.2,0.7c-0.2,0.1-0.5,0.1-0.7-0.2c-0.8-1.4-1.7-2.8-2.6-4.2
	C163.1,173.3,163.2,173,163.4,172.9z M-85.4,181.4c0.2,0.1,0.3,0.4,0.2,0.7c-0.8,1.4-1.5,2.9-2.3,4.4c-0.1,0.2-0.4,0.3-0.7,0.2
	c-0.2-0.1-0.3-0.4-0.2-0.7c0.7-1.5,1.5-2.9,2.3-4.4C-86,181.3-85.7,181.3-85.4,181.4z M168.4,181.4c0.2-0.1,0.5,0,0.7,0.2
	c0.8,1.4,1.5,2.9,2.3,4.4c0.1,0.2,0,0.5-0.2,0.7c-0.2,0.1-0.5,0-0.7-0.2c-0.7-1.5-1.5-2.9-2.3-4.4
	C168.1,181.8,168.2,181.5,168.4,181.4z M-89.9,190.2c0.3,0.1,0.4,0.4,0.2,0.7c-0.7,1.5-1.3,3-2,4.5c-0.1,0.3-0.4,0.4-0.7,0.3
	c-0.3-0.1-0.4-0.4-0.3-0.7c0.6-1.5,1.3-3,2-4.5C-90.4,190.2-90.1,190.1-89.9,190.2z M172.9,190.2c0.3-0.1,0.5,0,0.7,0.2
	c0.7,1.5,1.3,3,2,4.5c0.1,0.3,0,0.5-0.3,0.7c-0.3,0.1-0.5,0-0.7-0.3c-0.6-1.5-1.3-3-2-4.5C172.5,190.6,172.6,190.3,172.9,190.2z
	 M-93.7,199.3c0.3,0.1,0.4,0.4,0.3,0.6c-0.6,1.5-1.1,3.1-1.6,4.6c-0.1,0.3-0.4,0.4-0.6,0.3c-0.3-0.1-0.4-0.4-0.3-0.6
	c0.5-1.6,1.1-3.1,1.7-4.7C-94.2,199.3-93.9,199.2-93.7,199.3z M176.7,199.3c0.3-0.1,0.5,0,0.6,0.3c0.6,1.5,1.1,3.1,1.7,4.7
	c0.1,0.3-0.1,0.5-0.3,0.6c-0.3,0.1-0.5-0.1-0.6-0.3c-0.5-1.6-1.1-3.1-1.6-4.6C176.3,199.7,176.4,199.4,176.7,199.3z M-96.8,208.7
	c0.3,0.1,0.4,0.4,0.3,0.6c-0.5,1.6-0.9,3.1-1.3,4.7c-0.1,0.3-0.3,0.4-0.6,0.4c-0.3-0.1-0.4-0.3-0.4-0.6c0.4-1.6,0.9-3.2,1.3-4.8
	C-97.4,208.7-97.1,208.6-96.8,208.7z M179.9,208.7c0.3-0.1,0.5,0.1,0.6,0.3c0.5,1.6,0.9,3.2,1.3,4.8c0.1,0.3-0.1,0.5-0.4,0.6
	c-0.3,0.1-0.5-0.1-0.6-0.4c-0.4-1.6-0.9-3.2-1.3-4.7C179.4,209,179.6,208.7,179.9,208.7z M-99.4,218.2c0.3,0.1,0.4,0.3,0.4,0.6
	c-0.4,1.6-0.7,3.2-1,4.8c-0.1,0.3-0.3,0.4-0.6,0.4c-0.3-0.1-0.4-0.3-0.4-0.6c0.3-1.6,0.6-3.2,1-4.9
	C-99.9,218.3-99.6,218.1-99.4,218.2z M182.4,218.2c0.3-0.1,0.5,0.1,0.6,0.4c0.4,1.6,0.7,3.2,1,4.9c0.1,0.3-0.1,0.5-0.4,0.6
	c-0.3,0.1-0.5-0.1-0.6-0.4c-0.3-1.6-0.6-3.2-1-4.8C181.9,218.5,182.1,218.2,182.4,218.2z M-101.2,227.9c0.3,0,0.5,0.3,0.4,0.6
	c-0.2,1.6-0.5,3.2-0.7,4.9c0,0.3-0.3,0.5-0.6,0.4c-0.3,0-0.5-0.3-0.4-0.6c0.2-1.6,0.4-3.3,0.7-4.9
	C-101.8,228-101.5,227.8-101.2,227.9z M184.2,227.9c0.3,0,0.5,0.1,0.6,0.4c0.3,1.6,0.5,3.3,0.7,4.9c0,0.3-0.2,0.5-0.4,0.6
	c-0.3,0-0.5-0.2-0.6-0.4c-0.2-1.6-0.4-3.3-0.7-4.9C183.8,228.2,184,227.9,184.2,227.9z M-102.4,237.7c0.3,0,0.5,0.3,0.5,0.5
	c-0.1,1.6-0.2,3.3-0.3,4.9c0,0.3-0.2,0.5-0.5,0.5c-0.3,0-0.5-0.2-0.5-0.5c0.1-1.7,0.2-3.3,0.3-4.9
	C-103,237.9-102.7,237.6-102.4,237.7z M185.4,237.7c0.3,0,0.5,0.2,0.5,0.5c0.1,1.6,0.3,3.3,0.3,4.9c0,0.3-0.2,0.5-0.5,0.5
	c-0.3,0-0.5-0.2-0.5-0.5c-0.1-1.6-0.2-3.3-0.3-4.9C185,237.9,185.2,237.7,185.4,237.7z M-103,247.5c0.3,0,0.5,0.2,0.5,0.5
	c0,0.8,0,1.6,0,2.5s0,1.6,0,2.5c0,0.3-0.2,0.5-0.5,0.5c-0.3,0-0.5-0.2-0.5-0.5c0-0.8,0-1.7,0-2.5s0-1.7,0-2.5
	C-103.5,247.7-103.2,247.5-103,247.5z M186,247.5c0.3,0,0.5,0.2,0.5,0.5c0,0.8,0,1.7,0,2.5s0,1.7,0,2.5c0,0.3-0.2,0.5-0.5,0.5
	c-0.3,0-0.5-0.2-0.5-0.5c0-0.8,0-1.6,0-2.5s0-1.6,0-2.5C185.5,247.8,185.7,247.5,186,247.5z M-102.8,257.4c0.3,0,0.5,0.2,0.5,0.5
	c0.1,1.6,0.2,3.3,0.3,4.9c0,0.3-0.2,0.5-0.5,0.5c-0.3,0-0.5-0.2-0.5-0.5c-0.1-1.6-0.3-3.3-0.3-4.9
	C-103.3,257.6-103.1,257.4-102.8,257.4z M185.8,257.4c0.3,0,0.5,0.2,0.5,0.5c-0.1,1.7-0.2,3.3-0.3,4.9c0,0.3-0.3,0.5-0.5,0.5
	c-0.3,0-0.5-0.3-0.5-0.5c0.1-1.6,0.2-3.3,0.3-4.9C185.3,257.6,185.6,257.4,185.8,257.4z M-102,267.2c0.3,0,0.5,0.2,0.6,0.4
	c0.2,1.6,0.4,3.3,0.7,4.9c0,0.3-0.1,0.5-0.4,0.6c-0.3,0-0.5-0.1-0.6-0.4c-0.2-1.6-0.5-3.3-0.7-4.9
	C-102.5,267.5-102.3,267.3-102,267.2z M185,267.2c0.3,0,0.5,0.3,0.4,0.6c-0.2,1.6-0.4,3.3-0.7,4.9c0,0.3-0.3,0.5-0.6,0.4
	c-0.3,0-0.5-0.3-0.4-0.6c0.2-1.6,0.5-3.2,0.7-4.9C184.5,267.4,184.8,267.2,185,267.2z M-100.6,277c0.3-0.1,0.5,0.1,0.6,0.4
	c0.3,1.6,0.6,3.2,1,4.8c0.1,0.3-0.1,0.5-0.4,0.6c-0.3,0.1-0.5-0.1-0.6-0.4c-0.4-1.6-0.7-3.2-1-4.8C-101,277.3-100.8,277.1-100.6,277
	z M183.6,277c0.3,0.1,0.4,0.3,0.4,0.6c-0.3,1.6-0.6,3.2-1,4.8c-0.1,0.3-0.3,0.4-0.6,0.4c-0.3-0.1-0.4-0.3-0.4-0.6
	c0.4-1.6,0.7-3.2,1-4.8C183,277.1,183.3,277,183.6,277z M-98.4,286.6c0.3-0.1,0.5,0.1,0.6,0.4c0.4,1.6,0.9,3.2,1.3,4.7
	c0.1,0.3-0.1,0.5-0.3,0.6c-0.3,0.1-0.5-0.1-0.6-0.3c-0.5-1.6-0.9-3.2-1.3-4.8C-98.9,287-98.7,286.7-98.4,286.6z M181.4,286.6
	c0.3,0.1,0.4,0.3,0.4,0.6c-0.4,1.6-0.9,3.2-1.3,4.8c-0.1,0.3-0.4,0.4-0.6,0.3c-0.3-0.1-0.4-0.4-0.3-0.6c0.5-1.6,0.9-3.1,1.3-4.7
	C180.9,286.7,181.2,286.6,181.4,286.6z M-95.7,296.1c0.3-0.1,0.5,0.1,0.6,0.3c0.5,1.6,1.1,3.1,1.6,4.6c0.1,0.3,0,0.5-0.3,0.6
	c-0.3,0.1-0.5,0-0.6-0.3c-0.6-1.5-1.1-3.1-1.7-4.7C-96.1,296.5-95.9,296.2-95.7,296.1z M178.7,296.1c0.3,0.1,0.4,0.4,0.3,0.6
	c-0.5,1.6-1.1,3.1-1.7,4.7c-0.1,0.3-0.4,0.4-0.6,0.3c-0.3-0.1-0.4-0.4-0.3-0.6c0.6-1.5,1.1-3.1,1.6-4.6
	C178.1,296.2,178.4,296,178.7,296.1z M-92.2,305.4c0.3-0.1,0.5,0,0.7,0.3c0.6,1.5,1.3,3,2,4.5c0.1,0.3,0,0.5-0.2,0.7
	c-0.3,0.1-0.5,0-0.7-0.2c-0.7-1.5-1.3-3-2-4.5C-92.6,305.8-92.5,305.5-92.2,305.4z M175.2,305.4c0.3,0.1,0.4,0.4,0.3,0.7
	c-0.6,1.5-1.3,3-2,4.5c-0.1,0.3-0.4,0.4-0.7,0.2c-0.3-0.1-0.4-0.4-0.2-0.7c0.7-1.5,1.3-3,2-4.5C174.7,305.4,175,305.2,175.2,305.4z
	 M-88.2,314.3c0.2-0.1,0.5,0,0.7,0.2c0.7,1.5,1.5,2.9,2.3,4.4c0.1,0.2,0,0.5-0.2,0.7c-0.2,0.1-0.5,0-0.7-0.2
	c-0.8-1.4-1.5-2.9-2.3-4.4C-88.5,314.8-88.4,314.5-88.2,314.3z M171.2,314.3c0.2,0.1,0.3,0.4,0.2,0.7c-0.7,1.5-1.5,2.9-2.3,4.4
	c-0.1,0.2-0.4,0.3-0.7,0.2c-0.2-0.1-0.3-0.4-0.2-0.7c0.8-1.4,1.5-2.9,2.3-4.4C170.6,314.3,170.9,314.2,171.2,314.3z M-83.5,323
	c0.2-0.1,0.5-0.1,0.7,0.2c0.8,1.4,1.7,2.8,2.6,4.2c0.1,0.2,0.1,0.5-0.2,0.7c-0.2,0.1-0.5,0.1-0.7-0.2c-0.9-1.4-1.7-2.8-2.6-4.2
	C-83.8,323.5-83.7,323.2-83.5,323z M166.5,323c0.2,0.1,0.3,0.4,0.2,0.7c-0.8,1.4-1.7,2.8-2.6,4.2c-0.1,0.2-0.5,0.3-0.7,0.2
	c-0.2-0.1-0.3-0.5-0.2-0.7c0.9-1.4,1.7-2.8,2.6-4.2C166,323,166.3,322.9,166.5,323z M-78.3,331.4c0.2-0.2,0.5-0.1,0.7,0.1
	c0.9,1.4,1.9,2.7,2.8,4c0.2,0.2,0.1,0.5-0.1,0.7c-0.2,0.2-0.5,0.1-0.7-0.1c-1-1.3-1.9-2.7-2.9-4C-78.5,331.9-78.5,331.6-78.3,331.4z
	 M161.3,331.4c0.2,0.2,0.3,0.5,0.1,0.7c-0.9,1.4-1.9,2.7-2.9,4c-0.2,0.2-0.5,0.3-0.7,0.1c-0.2-0.2-0.3-0.5-0.1-0.7
	c1-1.3,1.9-2.7,2.8-4C160.7,331.3,161,331.2,161.3,331.4z M-72.4,339.4c0.2-0.2,0.5-0.1,0.7,0.1c1,1.3,2,2.6,3.1,3.8
	c0.2,0.2,0.2,0.5-0.1,0.7c-0.2,0.2-0.5,0.2-0.7-0.1c-1.1-1.3-2.1-2.5-3.1-3.8C-72.7,339.9-72.7,339.5-72.4,339.4z M155.4,339.4
	c0.2,0.2,0.3,0.5,0.1,0.7c-1,1.3-2.1,2.6-3.1,3.8c-0.2,0.2-0.5,0.2-0.7,0.1c-0.2-0.2-0.2-0.5-0.1-0.7c1.1-1.3,2.1-2.5,3.1-3.8
	C154.9,339.2,155.2,339.2,155.4,339.4z M-66.1,346.9c0.2-0.2,0.5-0.2,0.7,0c1.1,1.2,2.2,2.4,3.4,3.6c0.2,0.2,0.2,0.5,0,0.7
	c-0.2,0.2-0.5,0.2-0.7,0c-1.1-1.2-2.3-2.4-3.4-3.6C-66.3,347.4-66.3,347.1-66.1,346.9z M149.1,346.9c0.2,0.2,0.2,0.5,0,0.7
	c-1.1,1.2-2.2,2.4-3.4,3.6c-0.2,0.2-0.5,0.2-0.7,0c-0.2-0.2-0.2-0.5,0-0.7c1.1-1.2,2.3-2.4,3.4-3.6
	C148.6,346.8,148.9,346.8,149.1,346.9z M-59.3,354.1c0.2-0.2,0.5-0.2,0.7,0c1.2,1.1,2.4,2.3,3.6,3.4c0.2,0.2,0.2,0.5,0,0.7
	c-0.2,0.2-0.5,0.2-0.7,0c-1.2-1.1-2.4-2.2-3.6-3.4C-59.5,354.6-59.5,354.3-59.3,354.1z M142.3,354.1c0.2,0.2,0.2,0.5,0,0.7
	c-1.2,1.1-2.4,2.3-3.6,3.4c-0.2,0.2-0.5,0.2-0.7,0c-0.2-0.2-0.2-0.5,0-0.7c1.2-1.1,2.4-2.2,3.6-3.4
	C141.8,353.9,142.1,353.9,142.3,354.1z M-52,360.7c0.2-0.2,0.5-0.2,0.7-0.1c1.3,1.1,2.5,2.1,3.8,3.1c0.2,0.2,0.3,0.5,0.1,0.7
	c-0.2,0.2-0.5,0.3-0.7,0.1c-1.3-1-2.6-2.1-3.8-3.1C-52.1,361.2-52.2,360.9-52,360.7z M135,360.7c0.2,0.2,0.2,0.5-0.1,0.7
	c-1.3,1.1-2.5,2.1-3.8,3.1c-0.2,0.2-0.5,0.1-0.7-0.1c-0.2-0.2-0.1-0.5,0.1-0.7c1.3-1,2.6-2,3.8-3.1
	C134.5,360.5,134.8,360.5,135,360.7z M-44.2,366.8c0.2-0.2,0.5-0.3,0.7-0.1c1.3,1,2.7,1.9,4,2.8c0.2,0.2,0.3,0.5,0.1,0.7
	c-0.2,0.2-0.5,0.3-0.7,0.1c-1.4-0.9-2.7-1.9-4-2.9C-44.4,367.4-44.4,367-44.2,366.8z M127.2,366.8c0.2,0.2,0.1,0.5-0.1,0.7
	c-1.3,1-2.7,1.9-4,2.9c-0.2,0.2-0.5,0.1-0.7-0.1c-0.2-0.2-0.1-0.5,0.1-0.7c1.4-0.9,2.7-1.9,4-2.8
	C126.8,366.6,127.1,366.6,127.2,366.8z M-36.1,372.4c0.1-0.2,0.5-0.3,0.7-0.2c1.4,0.9,2.8,1.7,4.2,2.6c0.2,0.1,0.3,0.4,0.2,0.7
	c-0.1,0.2-0.4,0.3-0.7,0.2c-1.4-0.8-2.8-1.7-4.2-2.6C-36.2,373-36.3,372.6-36.1,372.4z M119.1,372.4c0.1,0.2,0.1,0.5-0.2,0.7
	c-1.4,0.9-2.8,1.7-4.2,2.6c-0.2,0.1-0.5,0.1-0.7-0.2c-0.1-0.2-0.1-0.5,0.2-0.7c1.4-0.8,2.8-1.7,4.2-2.6
	C118.7,372.1,119,372.2,119.1,372.4z M-27.6,377.4c0.1-0.2,0.4-0.3,0.7-0.2c1.4,0.8,2.9,1.5,4.4,2.3c0.2,0.1,0.3,0.4,0.2,0.7
	c-0.1,0.2-0.4,0.3-0.7,0.2c-1.5-0.7-2.9-1.5-4.4-2.3C-27.7,378-27.7,377.7-27.6,377.4z M110.6,377.4c0.1,0.2,0,0.5-0.2,0.7
	c-1.4,0.8-2.9,1.5-4.4,2.3c-0.2,0.1-0.5,0-0.7-0.2c-0.1-0.2,0-0.5,0.2-0.7c1.5-0.7,2.9-1.5,4.4-2.3
	C110.2,377.1,110.5,377.2,110.6,377.4z M-18.8,381.9c0.1-0.3,0.4-0.4,0.7-0.2c1.5,0.7,3,1.3,4.5,2c0.3,0.1,0.4,0.4,0.3,0.7
	c-0.1,0.3-0.4,0.4-0.7,0.3c-1.5-0.6-3-1.3-4.5-2C-18.8,382.4-18.9,382.1-18.8,381.9z M101.8,381.9c0.1,0.3,0,0.5-0.2,0.7
	c-1.5,0.7-3,1.3-4.5,2c-0.3,0.1-0.5,0-0.7-0.3c-0.1-0.3,0-0.5,0.3-0.7c1.5-0.6,3-1.3,4.5-2C101.4,381.5,101.7,381.6,101.8,381.9z
	 M-9.7,385.7c0.1-0.3,0.4-0.4,0.6-0.3c1.5,0.6,3.1,1.1,4.6,1.6c0.3,0.1,0.4,0.4,0.3,0.6c-0.1,0.3-0.4,0.4-0.6,0.3
	c-1.6-0.5-3.1-1.1-4.7-1.7C-9.7,386.2-9.8,385.9-9.7,385.7z M92.7,385.7c0.1,0.3,0,0.5-0.3,0.6c-1.5,0.6-3.1,1.1-4.7,1.7
	c-0.3,0.1-0.5-0.1-0.6-0.3c-0.1-0.3,0.1-0.5,0.3-0.6c1.6-0.5,3.1-1.1,4.6-1.6C92.3,385.3,92.6,385.4,92.7,385.7z M-0.3,388.9
	c0.1-0.3,0.4-0.4,0.6-0.3c1.6,0.5,3.1,0.9,4.7,1.3c0.3,0.1,0.4,0.3,0.4,0.6c-0.1,0.3-0.3,0.4-0.6,0.4c-1.6-0.4-3.2-0.9-4.8-1.3
	C-0.3,389.4-0.4,389.1-0.3,388.9z M83.3,388.9c0.1,0.3-0.1,0.5-0.3,0.6c-1.6,0.5-3.2,0.9-4.8,1.3c-0.3,0.1-0.5-0.1-0.6-0.4
	c-0.1-0.3,0.1-0.5,0.4-0.6c1.6-0.4,3.2-0.9,4.7-1.3C83,388.4,83.3,388.6,83.3,388.9z M9.2,391.4c0.1-0.3,0.3-0.4,0.6-0.4
	c1.6,0.4,3.2,0.7,4.8,1c0.3,0.1,0.4,0.3,0.4,0.6c-0.1,0.3-0.3,0.4-0.6,0.4c-1.6-0.3-3.2-0.6-4.8-1C9.3,391.9,9.1,391.6,9.2,391.4z
	 M73.8,391.4c0.1,0.3-0.1,0.5-0.4,0.6c-1.6,0.4-3.2,0.7-4.8,1c-0.3,0.1-0.5-0.1-0.6-0.4c-0.1-0.3,0.1-0.5,0.4-0.6
	c1.6-0.3,3.2-0.6,4.8-1C73.5,390.9,73.8,391.1,73.8,391.4z M18.9,393.2c0-0.3,0.3-0.5,0.6-0.4c1.6,0.2,3.2,0.5,4.9,0.7
	c0.3,0,0.5,0.3,0.4,0.6c0,0.3-0.3,0.5-0.6,0.4c-1.6-0.2-3.3-0.4-4.9-0.7C19,393.8,18.8,393.5,18.9,393.2z M64.1,393.2
	c0,0.3-0.1,0.5-0.4,0.6c-1.6,0.3-3.3,0.5-4.9,0.7c-0.3,0-0.5-0.2-0.6-0.4c0-0.3,0.2-0.5,0.4-0.6c1.6-0.2,3.3-0.4,4.9-0.7
	C63.8,392.8,64.1,393,64.1,393.2z M28.7,394.4c0-0.3,0.3-0.5,0.5-0.5c1.6,0.1,3.3,0.2,4.9,0.3c0.3,0,0.5,0.2,0.5,0.5
	c0,0.3-0.2,0.5-0.5,0.5c-1.7-0.1-3.3-0.2-4.9-0.3C28.9,395,28.6,394.7,28.7,394.4z M54.3,394.4c0,0.3-0.2,0.5-0.5,0.5
	c-1.6,0.1-3.3,0.3-4.9,0.3c-0.3,0-0.5-0.2-0.5-0.5c0-0.3,0.2-0.5,0.5-0.5c1.6-0.1,3.3-0.2,4.9-0.3C54.1,394,54.3,394.2,54.3,394.4z
	 M38.5,395c0-0.3,0.2-0.5,0.5-0.5c0.8,0,1.6,0,2.5,0s1.6,0,2.5,0c0.3,0,0.5,0.2,0.5,0.5c0,0.3-0.2,0.5-0.5,0.5c-0.8,0-1.7,0-2.5,0
	s-1.7,0-2.5,0C38.7,395.5,38.5,395.2,38.5,395z"/>
</svg>
